<svg xmlns="http://www.w3.org/2000/svg" xmlns:xlink="http://www.w3.org/1999/xlink" preserveAspectRatio="xMidYMid" width="33" height="25" viewBox="0 0 33 25">
  <defs>
    <style>
      .cls-1, .cls-2, .cls-5, .cls-9 {
        font-size: 14px;
      }

      .cls-2, .cls-3, .cls-4 {
        fill: #fff;
      }

      .cls-2 {
        font-family: "Telefonica";
      }

      .cls-10, .cls-3 {
        fill-rule: evenodd;
      }

      .cls-5, .cls-8 {
        fill: #00a9e0;
      }

      .cls-5, .cls-9 {
        font-family: "Telefonica-Bold";
        font-weight: bold;
      }

      .cls-5, .cls-8, .cls-9 {
        text-transform: uppercase;
      }

      .cls-10, .cls-6 {
        fill: #006d9e;
        stroke: #00a9e0;
        stroke-linejoin: round;
        stroke-width: 1px;
        fill-opacity: 0;
      }

      .cls-7, .cls-8 {
        font-size: 25px;
      }

      .cls-8 {
        font-family: "Material-Design-Icons";
      }

      .cls-9 {
        fill: #b6b7b7;
      }
    </style>
  </defs>
  <g>
    <text x="42" y="19" class="cls-1"><tspan class="cls-2">© 2017 Movistar. Telefónica. Todos los derechos reservados.</tspan></text>
    <path d="M6.203,2.896 C4.674,2.921 1.852,3.695 0.562,9.099 C0.001,11.454 -0.216,13.908 0.264,16.830 C0.708,19.525 1.493,21.851 2.023,23.132 C2.205,23.574 2.488,24.034 2.706,24.318 C3.334,25.133 4.380,25.081 4.820,24.859 C5.299,24.617 5.849,24.033 5.650,22.698 C5.554,22.053 5.276,21.111 5.119,20.586 C4.640,18.977 4.001,17.036 3.945,15.653 C3.871,13.804 4.581,13.562 5.053,13.455 C5.846,13.276 6.512,14.170 7.144,15.291 C7.898,16.629 9.191,18.999 10.245,20.809 C11.197,22.443 12.953,24.193 15.774,24.073 C18.650,23.951 20.770,22.824 21.862,19.279 C22.679,16.626 23.236,14.644 24.133,12.614 C25.163,10.280 26.538,9.030 27.696,9.412 C28.771,9.766 29.039,10.844 29.052,12.430 C29.063,13.832 28.905,15.378 28.782,16.513 C28.738,16.925 28.657,17.754 28.690,18.215 C28.755,19.119 29.136,20.023 30.129,20.168 C31.187,20.322 32.035,19.454 32.374,18.406 C32.508,17.993 32.622,17.360 32.683,16.911 C32.994,14.646 33.075,13.123 32.934,10.804 C32.770,8.093 32.254,5.621 31.352,3.481 C30.489,1.436 29.104,0.124 27.326,0.008 C25.359,-0.120 23.102,1.220 21.918,3.819 C20.826,6.215 19.953,8.674 19.423,9.929 C18.885,11.203 18.096,11.987 16.882,12.118 C15.398,12.279 14.119,11.172 13.182,9.596 C12.365,8.221 10.747,5.604 9.881,4.724 C9.067,3.898 8.138,2.864 6.203,2.896 " class="cls-3"/>
    <rect x="-245" y="-91" width="1600" height="80" class="cls-4"/>
    <text x="49" y="-46" class="cls-1"><tspan class="cls-5">Mapa del sitio</tspan></text>
    <circle cx="19" cy="-51" r="20" class="cls-6"/>
    <text x="7" y="-42" class="cls-7"><tspan class="cls-8"></tspan></text>
    <g>
      <text x="678" y="-46" class="cls-1"><tspan class="cls-9">Seguinos en:</tspan></text>
      <path d="M801.507,-71.007 C812.281,-71.007 821.014,-62.052 821.014,-51.007 C821.014,-39.961 812.281,-31.007 801.507,-31.007 C790.734,-31.007 782.000,-39.961 782.000,-51.007 C782.000,-62.052 790.734,-71.007 801.507,-71.007 Z" class="cls-10"/>
      <text transform="translate(792 -44) scale(0.78 0.8)" class="cls-7"><tspan class="cls-8"></tspan></text>
      <circle cx="850.547" cy="-51" r="19.578" class="cls-6"/>
      <text transform="translate(841 -44) scale(0.78 0.8)" class="cls-7"><tspan class="cls-8"></tspan></text>
      <circle cx="898.516" cy="-51" r="19.578" class="cls-6"/>
      <text transform="translate(889 -44) scale(0.78 0.8)" class="cls-7"><tspan class="cls-8"></tspan></text>
      <circle cx="946.5" cy="-51" r="19.562" class="cls-6"/>
      <text transform="translate(936 -44) scale(0.78 0.8)" class="cls-7"><tspan class="cls-8"></tspan></text>
      <circle cx="994.483" cy="-51" r="19.577" class="cls-6"/>
      <text transform="translate(985 -44) scale(0.78 0.8)" class="cls-7"><tspan class="cls-8"></tspan></text>
      <circle cx="1042.455" cy="-51" r="19.575" class="cls-6"/>
      <text transform="translate(1033 -44) scale(0.78 0.8)" class="cls-7"><tspan class="cls-8"></tspan></text>
      <circle cx="1090.42" cy="-51" r="19.58" class="cls-6"/>
      <text transform="translate(1081 -44) scale(0.78 0.8)" class="cls-7"><tspan class="cls-8"></tspan></text>
    </g>
  </g>
</svg>
