<svg xmlns="http://www.w3.org/2000/svg" xmlns:xlink="http://www.w3.org/1999/xlink" preserveAspectRatio="xMidYMid" width="158" height="35" viewBox="0 0 158 35">
  <defs>
    <style>
      .cls-1, .cls-2, .cls-5, .cls-8 {
        fill: #fff;
      }

      .cls-1 {
        fill-rule: evenodd;
      }

      .cls-2 {
        stroke: #fff;
        stroke-linejoin: round;
        stroke-width: 1px;
        fill-opacity: 0;
      }

      .cls-3, .cls-4, .cls-6 {
        font-size: 20px;
      }

      .cls-4 {
        text-anchor: end;
      }

      .cls-5 {
        font-family: "Telefonica-Light";
        font-size: 16px;
      }

      .cls-6 {
        font-family: "FontAwesome";
      }

      .cls-7, .cls-8 {
        font-size: 13px;
      }

      .cls-8 {
        font-family: "Telefonica-Bold";
        font-weight: bold;
        text-transform: uppercase;
      }
    </style>
  </defs>
  <g>
    <g>
      <path d="M9.023,4.054 C6.799,4.089 2.693,5.172 0.818,12.738 C0.001,16.035 -0.315,19.471 0.385,23.562 C1.029,27.334 2.172,30.591 2.942,32.385 C3.207,33.003 3.619,33.648 3.936,34.045 C4.850,35.186 6.371,35.113 7.010,34.802 C7.707,34.463 8.508,33.645 8.218,31.777 C8.078,30.875 7.674,29.554 7.446,28.820 C6.749,26.568 5.820,23.851 5.739,21.915 C5.630,19.325 6.664,18.987 7.350,18.837 C8.504,18.586 9.472,19.838 10.391,21.407 C11.488,23.280 13.368,26.598 14.902,29.132 C16.286,31.420 18.841,33.870 22.944,33.702 C27.127,33.531 30.211,31.954 31.799,26.990 C32.988,23.276 33.798,20.501 35.102,17.659 C36.601,14.391 38.601,12.642 40.285,13.176 C41.848,13.672 42.238,15.182 42.257,17.401 C42.274,19.364 42.044,21.528 41.865,23.118 C41.800,23.695 41.683,24.856 41.731,25.500 C41.825,26.767 42.380,28.032 43.824,28.235 C45.362,28.451 46.597,27.236 47.090,25.768 C47.284,25.189 47.450,24.304 47.539,23.676 C47.991,20.504 48.109,18.371 47.905,15.126 C47.666,11.330 46.914,7.869 45.603,4.874 C44.348,2.010 42.332,0.174 39.747,0.012 C36.886,-0.168 33.603,1.708 31.880,5.346 C30.292,8.700 29.022,12.144 28.252,13.901 C27.470,15.683 26.322,16.782 24.556,16.965 C22.397,17.190 20.537,15.641 19.174,13.434 C17.986,11.509 15.632,7.845 14.372,6.614 C13.189,5.457 11.837,4.010 9.023,4.054 " class="cls-1"/>
      <path d="M145.533,12.083 C144.738,11.740 143.529,11.511 141.966,11.511 L141.776,11.511 C140.823,11.511 139.526,11.627 138.276,11.854 C138.065,11.892 137.982,12.000 137.982,12.244 L137.982,14.031 C137.982,14.254 138.097,14.331 138.349,14.294 C139.446,14.129 140.577,14.014 141.446,14.014 L141.569,14.014 C142.800,14.014 143.794,14.127 144.392,14.531 C144.988,14.934 145.284,15.532 145.284,16.834 L145.284,17.218 C144.382,17.028 143.294,16.902 142.296,16.901 L142.032,16.901 C140.370,16.901 138.809,17.304 137.814,18.235 C137.049,18.951 136.546,20.029 136.546,21.404 L136.546,21.523 C136.546,24.292 138.454,26.000 142.330,26.000 L143.020,26.000 C144.544,26.000 145.992,25.545 146.863,24.823 C147.865,23.993 148.253,22.764 148.253,20.799 L148.253,16.797 C148.253,14.062 147.188,12.797 145.533,12.083 M145.284,20.731 C145.284,21.779 145.250,22.395 144.871,22.832 C144.469,23.295 143.755,23.515 142.789,23.515 L142.319,23.515 C140.535,23.515 139.497,22.797 139.497,21.421 C139.497,20.791 139.745,20.230 140.129,19.898 C140.582,19.508 141.245,19.317 142.380,19.317 L142.632,19.317 C143.491,19.317 144.472,19.403 145.284,19.618 L145.284,20.731 ZM157.692,11.510 L156.094,11.510 C153.798,11.510 152.006,12.307 151.237,13.976 C150.906,14.696 150.802,15.660 150.802,16.701 L150.802,25.475 C150.802,25.669 150.896,25.747 151.095,25.747 L153.481,25.747 C153.681,25.747 153.770,25.669 153.770,25.475 L153.770,18.135 C153.770,17.098 153.791,16.343 153.844,15.877 C153.980,14.661 154.716,14.088 156.432,14.088 L157.702,14.088 C157.908,14.088 157.997,13.982 157.997,13.784 L157.997,11.813 C157.997,11.610 157.899,11.510 157.692,11.510 M100.454,25.747 L103.039,25.747 C103.262,25.747 103.360,25.675 103.451,25.503 C105.125,22.345 107.687,16.948 107.860,12.054 C107.868,11.859 107.786,11.776 107.534,11.776 L105.125,11.777 C104.845,11.777 104.767,11.867 104.752,12.117 C104.641,13.901 104.263,15.971 103.716,17.820 C103.149,19.733 102.429,21.553 101.739,22.907 C101.050,21.553 100.329,19.733 99.764,17.820 C99.213,15.959 98.833,13.874 98.724,12.083 C98.708,11.828 98.572,11.777 98.325,11.777 L95.901,11.777 C95.644,11.777 95.572,11.897 95.592,12.157 C95.932,16.952 97.420,20.677 100.001,25.514 C100.091,25.684 100.228,25.747 100.454,25.747 M119.649,19.482 C120.292,19.722 120.827,19.919 121.465,20.146 C122.830,20.632 123.414,21.018 123.414,21.854 C123.414,22.937 122.504,23.511 120.445,23.511 L120.371,23.511 C119.209,23.511 117.878,23.282 116.708,22.907 C116.467,22.829 116.334,22.921 116.334,23.165 L116.334,24.949 C116.334,25.173 116.371,25.310 116.622,25.396 C117.739,25.782 119.280,25.999 120.537,25.999 L120.633,25.999 C124.290,25.999 126.274,24.369 126.274,21.731 L126.274,21.692 C126.274,20.675 125.940,19.755 125.317,19.141 C124.708,18.540 123.781,18.074 122.351,17.541 C121.587,17.256 120.995,17.037 120.467,16.843 C119.277,16.408 118.944,15.999 118.944,15.386 C118.944,14.373 119.934,13.977 121.528,13.977 L121.650,13.978 C122.569,13.978 123.684,14.110 125.035,14.356 C125.285,14.401 125.426,14.347 125.426,14.087 L125.426,12.256 C125.426,12.014 125.361,11.947 125.113,11.893 C124.234,11.707 122.641,11.511 121.746,11.511 L121.531,11.511 C119.665,11.511 118.280,11.859 117.357,12.665 C116.608,13.320 116.106,14.309 116.106,15.493 L116.105,15.578 C116.105,16.674 116.485,17.558 117.135,18.160 C117.742,18.722 118.560,19.078 119.649,19.482 M134.338,25.747 C134.543,25.747 134.654,25.637 134.654,25.456 L134.654,23.464 C134.654,23.285 134.543,23.173 134.338,23.173 L134.022,23.173 C133.075,23.173 132.492,22.944 132.137,22.568 C131.665,22.071 131.568,21.263 131.568,20.307 L131.568,14.254 L134.193,14.254 C134.392,14.254 134.490,14.177 134.490,13.982 L134.490,12.049 C134.490,11.854 134.392,11.778 134.193,11.778 L131.568,11.778 L131.568,9.270 C131.568,9.076 131.469,8.997 131.270,8.997 L128.884,8.997 C128.685,8.997 128.593,9.076 128.593,9.270 L128.593,20.469 C128.593,22.417 128.980,23.661 129.835,24.513 C130.637,25.311 131.891,25.747 133.706,25.747 L134.338,25.747 ZM73.260,11.511 L72.539,11.511 C70.466,11.511 69.090,12.063 68.423,12.882 L68.407,12.882 C67.740,12.063 66.278,11.511 64.204,11.511 L63.464,11.511 C61.127,11.511 59.212,12.326 58.443,13.995 C58.112,14.714 58.003,15.678 58.003,16.720 L58.003,25.427 C58.003,25.619 58.115,25.747 58.310,25.747 L60.663,25.747 C60.857,25.747 60.968,25.619 60.968,25.427 L60.973,18.175 C60.973,17.137 60.998,16.382 61.050,15.918 C61.186,14.701 62.087,14.110 63.805,14.110 L64.001,14.110 C65.718,14.110 66.662,14.701 66.796,15.918 C66.848,16.382 66.874,17.137 66.874,18.175 L66.874,25.430 C66.874,25.622 66.990,25.747 67.185,25.747 L69.544,25.747 C69.738,25.747 69.848,25.596 69.848,25.405 L69.852,18.175 C69.852,17.137 69.876,16.382 69.929,15.918 C70.063,14.701 71.005,14.110 72.724,14.110 L72.920,14.110 C74.638,14.110 75.538,14.701 75.673,15.918 C75.725,16.382 75.749,17.137 75.749,18.175 L75.749,25.430 C75.749,25.628 75.864,25.747 76.059,25.747 L78.417,25.747 C78.611,25.747 78.721,25.596 78.721,25.405 L78.721,16.720 C78.721,15.678 78.611,14.714 78.280,13.995 C77.513,12.326 75.595,11.511 73.260,11.511 M93.546,22.609 C93.833,21.659 93.993,20.566 93.993,18.757 C93.993,16.948 93.833,15.851 93.546,14.902 C92.821,12.476 90.909,11.511 87.809,11.511 L87.439,11.511 C84.339,11.511 82.427,12.476 81.699,14.902 C81.414,15.851 81.254,16.948 81.254,18.757 C81.254,20.566 81.414,21.659 81.699,22.609 C82.427,25.035 84.339,26.003 87.439,26.003 L87.809,26.003 C90.909,26.003 92.821,25.035 93.546,22.609 M90.864,20.794 C90.634,23.058 89.493,23.413 87.661,23.413 L87.584,23.413 C85.753,23.413 84.612,23.058 84.384,20.794 C84.312,20.110 84.256,19.544 84.256,18.757 C84.256,17.967 84.312,17.402 84.384,16.718 C84.612,14.453 85.753,14.099 87.584,14.099 L87.661,14.099 C89.493,14.099 90.634,14.453 90.864,16.718 C90.936,17.402 90.992,17.967 90.992,18.757 C90.992,19.544 90.936,20.110 90.864,20.794 M112.994,11.779 L110.607,11.779 C110.408,11.779 110.313,11.857 110.313,12.052 L110.316,25.475 C110.316,25.669 110.410,25.747 110.609,25.747 L112.995,25.747 C113.195,25.747 113.290,25.669 113.290,25.475 L113.287,12.052 C113.287,11.857 113.193,11.779 112.994,11.779 " class="cls-1"/>
    </g>
    <rect x="1011" y="-2" width="131" height="40" rx="8" ry="8" class="cls-2"/>
    <text x="1132" y="24" class="cls-3"><tspan x="1132" class="cls-4"><tspan class="cls-5">1144326578   <tspan class="cls-6"></tspan></tspan></tspan></text>
    <circle cx="1179" cy="18" r="20" class="cls-2"/>
    <path d="M1189.534,28.000 L1169.462,28.000 C1169.208,28.000 1169.002,27.796 1169.002,27.544 C1169.002,24.352 1170.451,21.385 1172.979,19.403 C1173.178,19.247 1173.467,19.280 1173.625,19.477 C1173.783,19.675 1173.750,19.962 1173.551,20.118 C1171.365,21.831 1170.064,24.351 1169.933,27.089 L1189.063,27.089 C1188.933,24.348 1187.631,21.827 1185.445,20.118 C1185.246,19.962 1185.212,19.675 1185.369,19.478 C1185.526,19.280 1185.816,19.247 1186.015,19.403 C1188.544,21.380 1189.994,24.348 1189.994,27.544 C1189.994,27.796 1189.788,28.000 1189.534,28.000 ZM1179.579,18.063 C1176.257,18.063 1173.554,15.384 1173.554,12.090 C1173.554,8.801 1176.257,6.125 1179.579,6.125 C1182.904,6.125 1185.608,8.801 1185.608,12.090 C1185.608,15.384 1182.904,18.063 1179.579,18.063 ZM1179.579,7.036 C1176.765,7.036 1174.475,9.304 1174.475,12.090 C1174.475,14.881 1176.765,17.152 1179.579,17.152 C1182.396,17.152 1184.688,14.881 1184.688,12.090 C1184.688,9.304 1182.396,7.036 1179.579,7.036 Z" class="cls-1"/>
  </g>
  <g>
    <text x="371" y="24" class="cls-7"><tspan class="cls-8">factura</tspan></text>
    <text x="295" y="24" class="cls-7"><tspan class="cls-8">inicio</tspan></text>
    <text x="468" y="24" class="cls-7"><tspan class="cls-8">pedidos</tspan></text>
    <text x="561" y="24" class="cls-7"><tspan class="cls-8">trámites</tspan></text>
    <text x="664" y="24" class="cls-7"><tspan class="cls-8">cambiar plan</tspan></text>
    <text x="796" y="24" class="cls-7"><tspan class="cls-8">cambiar equipo</tspan></text>
  </g>
</svg>
