<?xml version="1.0" standalone="no"?>
<!DOCTYPE svg PUBLIC "-//W3C//DTD SVG 1.1//EN" "http://www.w3.org/Graphics/SVG/1.1/DTD/svg11.dtd" >
<svg xmlns="http://www.w3.org/2000/svg">
<metadata></metadata>
<defs>
<font id="telefonicahand" horiz-adv-x="1228" >
<font-face units-per-em="2048" ascent="1536" descent="-512" />
<missing-glyph horiz-adv-x="573" />
<glyph unicode="&#xfb01;" horiz-adv-x="1241" d="M14 0zM14 891l2 20q6 47 97.5 71t222.5 36q68 270 172 393t280 123q76 0 134.5 -33t58.5 -98q0 -31 -20.5 -52.5t-45.5 -21.5q-68 74 -161 74q-66 0 -110 -36t-75.5 -114.5t-60.5 -218.5q74 6 133 6q96 0 143 -21.5t47 -66.5q0 -18 -10 -49q-53 10 -135 10 q-98 0 -205 -14q-4 -29 -16 -106l-82 -533q-16 -115 -43 -184.5t-84 -71.5q-84 -4 -84 84q0 10 4 39l105 614l24 133q-76 -10 -158 -28q-57 -14 -81 -15q-51 0 -52 60zM805 121q0 70 78 402.5t107 404.5q14 37 40.5 58.5t59.5 21.5t45 -16.5t12 -47.5q0 -43 -13 -100.5 t-40 -143.5q-29 -104 -45 -168.5t-23 -130.5q-14 -123 -18 -196l-8 -80q-4 -45 -36 -69.5t-85 -24.5q-74 0 -74 90zM1063 1292q0 117 32 167t97 50q37 0 57.5 -21.5t18.5 -53.5q0 -41 -19.5 -94.5t-54 -92.5t-80.5 -39q-24 0 -37.5 22.5t-13.5 61.5z" />
<glyph unicode="&#xfb02;" horiz-adv-x="1331" d="M14 0zM14 891l2 20q6 47 97.5 71t222.5 36q68 270 172 393t280 123q76 0 134.5 -33t58.5 -98q0 -31 -20.5 -52.5t-45.5 -21.5q-68 74 -161 74q-66 0 -110 -36t-75.5 -114.5t-60.5 -218.5q74 6 133 6q96 0 143 -21.5t47 -66.5q0 -18 -10 -49q-53 10 -135 10 q-98 0 -205 -14q-4 -29 -16 -106l-82 -533q-16 -115 -43 -184.5t-84 -71.5q-84 -4 -84 84q0 10 4 39l105 614l24 133q-76 -10 -158 -28q-57 -14 -81 -15q-51 0 -52 60zM856 254q0 184 55.5 440t132.5 473q45 123 87 216.5t89 121.5q20 12 36 16.5t40 4.5q49 0 49 -45 q0 -27 -22.5 -82.5t-65.5 -147.5q-41 -86 -47 -102q-72 -180 -128 -420t-56 -399q0 -51 15.5 -91t58.5 -40q20 0 47 10q6 2 21.5 6t27.5 4q27 0 27 -37q0 -61 -54.5 -114.5t-132.5 -53.5q-88 0 -134 64.5t-46 175.5z" />
<glyph horiz-adv-x="0" />
<glyph unicode="&#xd;" horiz-adv-x="573" />
<glyph unicode=" "  horiz-adv-x="573" />
<glyph unicode="&#x09;" horiz-adv-x="573" />
<glyph unicode="&#xa0;" horiz-adv-x="573" />
<glyph unicode="!" horiz-adv-x="505" d="M45 86q0 45 39 78t84 33t78 -31t33 -76q0 -53 -33 -92t-78 -39q-59 0 -91 41t-32 86zM160 596q0 174 64.5 400.5t162.5 435.5q55 8 92 -27t37 -90q0 -29 -12 -62.5t-41 -97.5q-68 -156 -92 -227q-43 -121 -67.5 -233.5t-35.5 -254.5q-61 -6 -84.5 32t-23.5 124z" />
<glyph unicode="&#x22;" horiz-adv-x="514" d="M111 993q33 106 49 211t30 246q16 10 45 17.5t46 7.5q47 0 47 -80t-42 -207t-89 -209q-19 -4 -46.5 4t-39.5 10zM352 1006q66 260 68 446q16 12 46 21.5t46 9.5q45 2 45 -72q0 -72 -37 -192.5t-82 -223.5q-16 -4 -26 -4q-31 0 -60 15z" />
<glyph unicode="#" horiz-adv-x="1124" d="M37 395q70 66 221 123q12 57 16 78l35 154q8 33 10 49l19 73q-76 -25 -184 -73l-45 53q18 53 88.5 96t173.5 74q90 393 112 465q16 8 41 8q29 0 60.5 -11t36.5 -24q0 -29 -84 -405q57 8 122 8q121 0 175 -2q70 211 141 375q18 12 49 12q27 0 49.5 -8t32.5 -25 q-37 -106 -45 -127q-35 -100 -80 -237q125 -19 188 -80l-14 -62q-12 -4 -25 -4q-25 0 -40 4q-84 10 -150 13q-14 -47 -33 -119l-41 -170q182 0 183 -51q0 -39 -35 -56q-8 -2 -58 -6l-114 -10q-27 -143 -44.5 -272t-21.5 -203q-20 -6 -37 -6q-49 0 -67.5 43t-18.5 110 q2 125 39 312q-72 -8 -147 -25q-84 -18 -152 -43l-53 -229q-23 -96 -66 -162t-81 -66q-35 0 -35 47q0 8 6 58q4 37 57 282q-72 -29 -115 -28q-70 0 -69 67zM426 575q78 20 125 29q111 17 166 21l4 20q35 160 72 281l-162 -4q-86 -4 -127 -11l-37 -159z" />
<glyph unicode="$" horiz-adv-x="1024" d="M55 141q0 74 107 74l45 -2l82 -2l76 2q31 172 94 457q-145 72 -212 150.5t-67 199.5q0 168 121 260t334 92h2q33 147 69.5 208.5t90.5 61.5q25 0 55 -12l-68 -274q134 -31 218.5 -103.5t84.5 -148.5q0 -16 -12 -25.5t-31 -9.5q-23 0 -64.5 33t-55.5 43q-86 59 -172 80 q-27 -102 -47.5 -185.5t-36.5 -142.5q-8 -37 -33 -135q137 -68 200.5 -143.5t63.5 -178.5q0 -143 -116.5 -238.5t-315.5 -133.5q-47 -195 -72 -267q-35 -92 -57 -92q-31 2 -31 64q0 74 23 223l8 53q-78 -4 -123 -4q-74 0 -117 25.5t-43 70.5zM334 1047q0 -61 37 -115.5 t127 -104.5l22 86q72 272 86 330h-28q-123 0 -183.5 -51t-60.5 -145zM508 227q125 20 190.5 68.5t65.5 118.5q0 110 -166 190z" />
<glyph unicode="%" horiz-adv-x="1411" d="M123 45q0 49 200.5 294t459.5 522.5t401 402.5q-90 -47 -163 -75t-138 -28q-49 0 -127 64v-15q0 -98 -72 -198.5t-171 -166t-175 -65.5q-94 0 -148.5 58.5t-54.5 156.5q0 104 58.5 208t155.5 169.5t208 65.5h2q57 0 97 -21.5t92 -64.5q51 -41 86.5 -61.5t87.5 -20.5 q45 0 93 17.5t128 53.5q76 33 113.5 47.5t70.5 14.5q29 0 48.5 -14.5t19.5 -40.5q-295 -277 -556 -587t-632 -822q-43 2 -63.5 30.5t-20.5 75.5zM268 1010q0 -51 24.5 -81t67.5 -30q58 0 117.5 43t99 108.5t39.5 127.5q0 66 -19 92t-67 26q-68 0 -128 -46t-97 -113.5 t-37 -126.5zM739 223q0 104 58.5 213t156 179.5t207.5 70.5q86 0 142.5 -65.5t56.5 -161.5q0 -106 -63.5 -212t-166 -172.5t-208.5 -66.5q-86 0 -134.5 56.5t-48.5 158.5zM872 238q0 -51 25 -81t68 -30q57 0 116.5 46t99.5 115.5t40 137.5q0 53 -20.5 86t-65.5 33 q-68 0 -128.5 -49.5t-97.5 -122t-37 -135.5z" />
<glyph unicode="&#x26;" horiz-adv-x="1302" d="M57 301q0 137 86 235.5t246 172.5q-41 129 -41 270q2 266 136 352t288 86q152 0 220.5 -78.5t68.5 -183.5q0 -156 -134 -265.5t-364 -205.5q51 -119 137 -219q92 -117 164 -189q117 143 172 416q18 8 41 8q59 0 60 -79q0 -98 -58 -224q-51 -115 -127 -202 q98 -82 217 -144q35 -16 47.5 -31.5t12.5 -31.5q0 -29 -24.5 -51.5t-63.5 -24.5q-109 0 -305 178q-162 -117 -381 -117q-168 0 -283 80t-115 248zM233 324q0 -107 71 -162.5t175 -55.5q156 0 269 68q-106 113 -187 215q-92 119 -139 232q-104 -57 -146.5 -129t-42.5 -168z M504 999q0 -125 31 -229q172 74 279.5 159t107.5 195q0 59 -42 115.5t-130 56.5q-113 0 -179.5 -72.5t-66.5 -224.5z" />
<glyph unicode="'" horiz-adv-x="305" d="M109 989q82 260 100 465q16 10 46 17.5t48 7.5q43 0 43 -72q0 -74 -41 -200t-90 -224q-8 -2 -31 -2q-45 0 -75 8z" />
<glyph unicode="(" horiz-adv-x="724" d="M45 465q0 205 82 402.5t230.5 357t340.5 256.5q96 -20 97 -113q0 -27 -38 -56.5t-98 -64.5l-41 -24q-203 -139 -301 -332t-98 -455q0 -252 105.5 -421t308.5 -275q23 -8 22 -29q0 -12 -8 -21t-22 -7q-162 12 -295 122.5t-209 284.5t-76 375z" />
<glyph unicode=")" horiz-adv-x="686" d="M-98 -264q0 14 18 20q317 131 467 354.5t150 565.5q0 508 -412 717q4 35 31.5 56t70.5 21q147 0 255 -108.5t163 -275t55 -341.5q0 -266 -79.5 -487t-247.5 -368.5t-422 -188.5h-6q-20 0 -31.5 11.5t-11.5 23.5z" />
<glyph unicode="*" horiz-adv-x="729" d="M119 1212q0 18 4 28.5t14 29.5q45 -14 104.5 -21.5t112.5 -5.5q-39 39 -69.5 103.5t-30.5 107.5q0 16 6 29q6 10 14 8q47 -14 83 -53t85 -111q6 -8 13.5 -19.5t15.5 -23.5q43 78 97.5 132t117.5 54q45 0 76 -30q-43 -31 -84 -74t-103 -115l54 2q41 4 63 4q51 0 81 -12 t30 -45q0 -18 -3 -29.5t-12 -27.5q-31 10 -88 10q-55 0 -127 -14q74 -94 101 -166q4 -8 4 -23q0 -29 -33 -28q-37 0 -83 45t-105 114q-33 -53 -71 -119.5t-67 -119.5q-29 0 -56 25.5t-27 58.5q0 27 26.5 68.5t54 76.5t35.5 47q-12 2 -45 2q-86 0 -137 16.5t-51 75.5z" />
<glyph unicode="+" d="M229 678l2 18q8 45 39 61.5t92 16.5l87 -2q41 -4 69 -4q49 2 71.5 17.5t32 51t21.5 126.5l16 106q4 25 25 41t53 16q45 0 45 -45q0 -16 -6 -42.5t-8 -37.5q-4 -14 -14 -57l-17 -106q-2 -10 -2 -27q0 -25 9.5 -32t29.5 -11q70 -4 105 -4l108 2q18 2 53 2q37 0 57.5 -11.5 t14.5 -39.5q-6 -25 -33.5 -49.5t-64.5 -26.5q-41 -2 -103 2q-49 4 -92 4q-84 0 -113.5 -19.5t-37.5 -66.5q-20 -102 -27 -221q-2 -76 -28.5 -115t-73.5 -39q-20 0 -52 11q-1 55 9 137q6 37 22 110q14 66 23 109q6 43 6 45q0 29 -31 29q-23 0 -50.5 -2t-41.5 -4 q-61 -8 -102 -9q-92 0 -93 66z" />
<glyph unicode="," horiz-adv-x="419" d="M-82 -229q188 47 188 186q0 78 -61 156q-8 8 -8 16q0 6 4 18q10 33 41 59.5t74 26.5q55 0 86.5 -44t31.5 -113q0 -92 -34.5 -170t-92 -129t-120.5 -66q-17 -4 -27 -4q-35 0 -59.5 17.5t-22.5 46.5z" />
<glyph unicode="-" horiz-adv-x="714" d="M61 496q0 90 160 90q41 0 123 -8l59 -5q18 -2 60 -2q74 0 172 15q25 -8 24 -41q0 -47 -73 -72q-49 -16 -165 -25.5t-204 -9.5q-67 0 -111.5 10.5t-44.5 47.5z" />
<glyph unicode="." horiz-adv-x="419" d="M18 106q0 55 32 92.5t95 37.5q49 0 79 -30t30 -79q0 -45 -24.5 -87t-86.5 -42q-57 0 -91 30.5t-34 77.5z" />
<glyph unicode="/" horiz-adv-x="806" d="M-12 -313q43 225 202.5 615t352 733t327.5 456q12 4 31 4q41 0 87 -14.5t54 -32.5q-291 -322 -533.5 -804t-393.5 -968q-4 -16 -24.5 -24t-45.5 -8q-27 0 -44 11t-13 32z" />
<glyph unicode="0" horiz-adv-x="1091" d="M84 414q0 250 85 482t232.5 375.5t325.5 143.5q180 0 259 -110.5t79 -292.5q0 -276 -85 -509t-231.5 -369t-322.5 -136q-195 0 -268.5 123t-73.5 293zM260 473q0 -131 39 -227t145 -96q105 0 210.5 121.5t174 315t68.5 394.5q0 145 -38 230t-136 85q-115 0 -222.5 -117.5 t-174 -308t-66.5 -397.5z" />
<glyph unicode="1" horiz-adv-x="917" d="M61 135q0 20 22.5 26.5t92.5 10.5l170 6q49 221 122 488.5t134 457.5q-61 -37 -179 -82t-147 -45q-20 0 -35.5 16.5t-15.5 39.5q0 29 25 43q25 18 149.5 89.5t239.5 130t139 58.5q12 0 18.5 -8t14.5 -29q14 -30 19.5 -49.5t-1.5 -34.5q-113 -291 -193.5 -577.5 t-121.5 -497.5q150 0 270 -12q6 -25 7 -47q0 -29 -10.5 -47.5t-26.5 -22.5q-84 -20 -570 -20q-47 0 -85 32.5t-38 73.5z" />
<glyph unicode="2" horiz-adv-x="1116" d="M72 123q0 20 2 31q18 92 80.5 176t142.5 151.5t209 165.5q127 92 200.5 154.5t123 136.5t49.5 152q0 178 -187 178q-92 0 -194.5 -46t-159.5 -135q-31 8 -45 23.5t-14 42.5q0 78 66.5 137.5t167.5 91t198 31.5q172 0 258 -72.5t86 -214.5q0 -119 -59.5 -216 t-145.5 -169.5t-227 -171.5q-156 -109 -240 -186.5t-113 -169.5q176 23 348 23q111 0 195 -9q78 -6 113 -31.5t35 -64.5q0 -33 -21 -59q-158 14 -330 14q-231 0 -467 -25q-72 -6 -71 62z" />
<glyph unicode="3" horiz-adv-x="1052" d="M59 201q2 35 32 63.5t83 28.5q53 -66 118.5 -99.5t164.5 -33.5q74 0 143.5 31.5t113.5 91t44 139.5q0 123 -64.5 186.5t-179.5 63.5q-47 0 -88 -8q-27 -6 -47 -7q-23 0 -33 11.5t-12 40.5v14q0 39 33 45q166 35 316.5 118t150.5 218q0 66 -45.5 100.5t-129.5 34.5 q-74 0 -123 -16.5t-98 -44.5q-53 -29 -82 -29q-49 0 -49 49q0 53 59.5 95t150.5 65.5t177 23.5q150 0 228.5 -58t78.5 -167q0 -139 -83.5 -224t-241.5 -151q125 -25 184.5 -113.5t59.5 -211.5q0 -125 -64.5 -223.5t-182.5 -154.5t-272 -56q-135 0 -238.5 48t-103.5 130z" />
<glyph unicode="4" horiz-adv-x="1118" d="M61 502q0 53 124 226t281 360.5t226 252.5l45 43q37 37 53.5 50.5t32.5 13.5q25 0 36 -14.5t22 -44.5q6 -14 6 -29q0 -27 -22.5 -60.5t-76.5 -87.5q-174 -170 -361 -377.5t-187 -281.5q0 -47 91 -66.5t269 -23.5q47 0 117 6q59 272 92 496q18 8 41 8q45 0 64.5 -24.5 t19.5 -71.5q0 -84 -60 -388q80 14 181 46q16 -6 27.5 -23.5t11.5 -32.5q0 -43 -68 -76.5t-180 -52.5q-29 -129 -52.5 -205.5t-52.5 -136.5q-23 -49 -96 -49q-29 0 -47 9t-14 22q47 125 102 342q-41 -2 -123 -2q-227 6 -364.5 39.5t-137.5 132.5z" />
<glyph unicode="5" horiz-adv-x="1069" d="M86 240q0 39 25.5 59t56.5 18q47 -72 114.5 -110.5t174.5 -38.5q137 0 210.5 74.5t73.5 208.5q0 121 -75 190q-88 80 -285 80q-23 0 -64 -4l-45 -2q-33 0 -48 14t-13 55q4 72 59.5 261.5t91.5 240.5q45 68 189.5 97.5t306.5 29.5q145 0 232.5 -26.5t87.5 -100.5 q0 -31 -15 -61q-147 18 -286 18q-250 0 -424 -47q-61 -172 -97 -330q45 8 111 8q127 0 231.5 -41.5t167 -124.5t62.5 -204q0 -137 -65.5 -242.5t-181.5 -163t-263 -57.5q-133 0 -232.5 54.5t-99.5 144.5z" />
<glyph unicode="6" horiz-adv-x="1146" d="M109 457q0 254 102 479t281.5 361.5t396.5 136.5q92 0 141 -35t49 -80q0 -25 -20 -49q-78 37 -180 33q-158 0 -283 -95.5t-204 -248t-101 -322.5q109 121 236.5 191.5t244.5 70.5q143 0 203.5 -80t60.5 -188q0 -160 -77.5 -308.5t-204.5 -239.5t-267 -91 q-117 0 -202.5 61.5t-130.5 167t-45 236.5zM285 455q8 -135 64.5 -232.5t174.5 -97.5q68 0 149 66.5t136 169t55 204.5q0 172 -129 172q-112 0 -234 -77.5t-216 -204.5z" />
<glyph unicode="7" horiz-adv-x="925" d="M121 1206q0 29 12 62q70 33 195 52t252 19q223 0 314 -27.5t91 -97.5q0 -61 -254 -569q-127 -252 -243.5 -444.5t-172.5 -206.5l-22 -2q-76 0 -76 65q0 35 15.5 66t62.5 94q66 82 151 223q20 29 37 55.5t31 49.5q92 143 181 314t139 296q-135 14 -248 14q-162 0 -369 -41 q-8 -2 -24 -2q-33 0 -52.5 21.5t-19.5 58.5z" />
<glyph unicode="8" horiz-adv-x="1107" d="M84 281q0 143 101.5 248.5t273.5 209.5q-123 96 -167 190.5t-40 192.5q6 180 157.5 239.5t327.5 59.5q119 0 217.5 -35.5t152.5 -93t52 -121.5q0 -33 -14.5 -50t-38.5 -27q-41 63 -100 104q-37 -109 -114 -207t-212 -227l6 -4q147 -111 213 -204t66 -196 q0 -178 -125 -272t-359 -94q-172 0 -284.5 66.5t-112.5 220.5zM260 303q0 -82 70.5 -129t195.5 -47q160 0 231.5 56.5t71.5 162.5q0 88 -75.5 168t-190.5 154q-137 -94 -220 -180.5t-83 -184.5zM408 1102q0 -82 40.5 -140.5t145.5 -136.5q88 74 185.5 204t133.5 222 q-94 37 -204 37q-119 0 -210 -48t-91 -138z" />
<glyph unicode="9" horiz-adv-x="1042" d="M63 219q0 33 20.5 63.5t63.5 45.5q45 -90 101.5 -130t138.5 -40q160 0 263.5 164.5t172.5 431.5q-63 -82 -159.5 -130.5t-200.5 -48.5q-115 0 -188.5 85t-73.5 217q0 156 74.5 277.5t196.5 190t257 68.5q154 0 232.5 -73.5t78.5 -219.5q0 -143 -67.5 -372.5 t-145.5 -393.5q-94 -162 -202.5 -246.5t-274.5 -84.5q-117 0 -202 50t-85 146zM358 922q0 -88 37 -141.5t111 -53.5q110 0 197.5 60.5t135.5 155.5t48 198q0 76 -41 116.5t-119 40.5q-111 0 -194.5 -53t-129 -140t-45.5 -183z" />
<glyph unicode=":" horiz-adv-x="421" d="M18 0zM18 106q0 55 32 92.5t95 37.5q49 0 79 -30t30 -79q0 -45 -24.5 -87t-86.5 -42q-57 0 -91 30.5t-34 77.5zM127 718q0 55 32 92.5t95 37.5q49 0 79 -30t30 -79q0 -45 -24.5 -87t-86.5 -42q-57 0 -91 30.5t-34 77.5z" />
<glyph unicode=";" horiz-adv-x="450" d="M-51 -229q188 47 188 186q0 78 -61 156q-8 8 -8 16q0 6 4 18q10 33 40.5 59.5t73.5 26.5q55 0 87 -44t32 -113q0 -92 -34.5 -170t-92 -129t-121.5 -66q-16 -4 -26 -4q-35 0 -59.5 17.5t-22.5 46.5zM137 719q0 55 32 92t95 37q49 0 79 -30t30 -79q0 -45 -24.5 -87 t-86.5 -42q-57 0 -91 31t-34 78z" />
<glyph unicode="&#x3c;" d="M205 678q0 61 26.5 97t87 65.5t197.5 77.5q289 88 594 210q33 -24 29 -67q-2 -29 -48.5 -55.5t-166.5 -83.5q-190 -96 -562 -207q121 -27 254.5 -93.5t225.5 -125.5q78 -43 126 -83t48 -91q0 -33 -18.5 -51.5t-53.5 -37.5q-211 227 -737 408q-2 12 -2 37z" />
<glyph unicode="=" d="M147 434q0 53 23 68.5t44.5 17.5t27.5 2q63 8 145 8q51 0 129 -4q76 -4 102 -2q106 -8 150 -8q47 0 150 8q74 2 93 -13t19 -48q0 -37 -24.5 -55.5t-67.5 -18.5q-12 0 -45 4q-88 14 -231 15h-64q-203 0 -360 -31q-25 -4 -33 -4q-57 0 -58 61zM188 864q0 53 22.5 68.5 t44 17.5t28.5 2q72 8 163 9q57 0 148 -5q43 -2 106 -2q106 -8 150 -8q47 0 149 8q74 2 93.5 -13t19.5 -48q0 -37 -24.5 -55.5t-67.5 -18.5q-12 0 -45 4q-88 14 -232 15h-65q-225 0 -399 -31q-25 -4 -33 -4q-57 0 -58 61z" />
<glyph unicode="&#x3e;" d="M164 293q0 39 49 73.5t166 73.5l115 45q104 41 223 84t241 78q-123 27 -266 95.5t-231 123.5q-78 43 -126 83t-48 91q0 35 16 53.5t55 34.5q303 -252 758 -407q2 -12 2 -37q0 -61 -28.5 -97t-98 -65.5t-225.5 -77.5q-254 -78 -573 -211q-29 20 -29 60z" />
<glyph unicode="?" horiz-adv-x="727" d="M72 68q0 57 37.5 85.5t97.5 28.5q45 0 82 -29.5t37 -76.5q0 -45 -40 -78t-87 -33q-60 0 -93.5 34t-33.5 69zM115 530q0 70 36.5 125.5t88 93t143.5 95.5q88 53 138 90t85 88t35 117q0 74 -49 113.5t-121 39.5q-49 0 -84 -9t-80 -28q-25 -10 -49.5 -17t-46.5 -7 q-37 0 -58.5 15.5t-21.5 41.5q0 72 100.5 108t212.5 36q164 0 257.5 -71t93.5 -198q0 -115 -48.5 -193.5t-114 -125.5t-169.5 -103q-100 -53 -147.5 -92t-47.5 -96q0 -33 9.5 -55.5t29.5 -53.5q-39 -39 -90 -38q-45 0 -73.5 34.5t-28.5 89.5z" />
<glyph unicode="@" horiz-adv-x="1632" d="M96 526q0 258 132 464t348.5 320.5t459.5 114.5q219 0 353.5 -72.5t189.5 -181t55 -225.5q0 -176 -76.5 -316.5t-192.5 -217t-226 -76.5q-76 0 -123 58.5t-47 162.5q0 29 2 45q-51 -109 -127 -173t-170 -64q-84 0 -131 53t-47 135q0 123 62.5 248t163.5 204.5t214 79.5 q43 0 72.5 -17t29.5 -50q0 -18 -8 -37q-33 4 -39 4q-84 0 -161.5 -60.5t-125 -150.5t-47.5 -168q0 -86 66 -86q84 0 166 109.5t145 249.5q8 16 27.5 62t39 76t38.5 30q45 0 78.5 -25t19.5 -49q-72 -119 -99.5 -206t-27.5 -192q0 -43 24.5 -78.5t67.5 -35.5q59 0 119.5 46 t101.5 146.5t41 253.5q0 94 -42 182.5t-144 148.5t-272 60q-203 0 -370 -100t-263.5 -263t-96.5 -337q0 -166 62.5 -287t174.5 -183t253 -62q285 0 551 176q16 -27 16 -52q0 -57 -75.5 -117.5t-214 -100.5t-312.5 -40q-311 0 -473 162t-162 432z" />
<glyph unicode="A" horiz-adv-x="1212" d="M-25 35q0 96 205 457.5t435.5 679t302.5 317.5q35 0 55 -19q-29 -209 -37 -400t-8 -437q53 0 102 -6q53 -6 69.5 -25.5t16.5 -48.5q0 -20 -19.5 -25.5t-58.5 -5.5q-74 0 -110 -2q2 -109 10 -199t29 -221q-18 -39 -63.5 -69.5t-80.5 -30.5q-20 0 -32.5 20.5t-18.5 71.5 q-8 74 -15 192q-5 92 -5 175v47q-258 -31 -484 -133q-104 -217 -182 -434h-10q-64 -1 -82 23q-18 26 -19 73zM350 537q193 66 406 88q14 387 30 583q-221 -263 -436 -671z" />
<glyph unicode="B" horiz-adv-x="1318" d="M96 121q4 43 49 216t105.5 362.5t116.5 301.5q68 139 155 140q20 0 45 -11q-78 -207 -141 -407q543 170 543 438q0 66 -50.5 104t-154.5 38q-127 0 -272.5 -57.5t-245.5 -162.5q-25 0 -43.5 14.5t-18.5 49.5q0 78 102.5 148.5t253 113.5t285.5 43q131 0 226.5 -57.5 t95.5 -188.5q0 -248 -252 -385q41 4 55 4q88 0 146.5 -40t86 -101t27.5 -125q0 -252 -307 -440q-106 -66 -240.5 -102.5t-226.5 -36.5q-82 0 -82 73q0 47 22 63q19 14 58 13h10q16 -1 32 -1q120 0 238 41q134 46 219 136t85 209q0 84 -45 130t-133 46q-90 0 -211 -21.5 t-244 -78.5q-88 -309 -137 -576q-33 -14 -56 -14h-6q-91 4 -91 101q0 9 1 20z" />
<glyph unicode="C" horiz-adv-x="1171" d="M68 426q0 227 131 453.5t336.5 371t416.5 144.5q90 0 142.5 -29t52.5 -113q0 -49 -42 -146t-94.5 -174t-84.5 -77q-31 0 -50.5 27.5t-19.5 64.5q0 43 26.5 94.5t88.5 145.5l47 76q-41 12 -76 12q-170 0 -325.5 -124t-251 -310.5t-95.5 -354.5q0 -174 81 -247.5t210 -73.5 q117 0 207 33.5t188 87.5q59 35 76 35t27 -11.5t10 -27.5q0 -61 -94 -127t-233.5 -111t-262.5 -45q-188 0 -299.5 116.5t-111.5 309.5z" />
<glyph unicode="D" horiz-adv-x="1411" d="M31 90q1 20 31 30q25 8 81 7h25l43 -2q88 631 281 1128q-76 -6 -127.5 -17t-110.5 -28q-43 -14 -55 -14q-37 0 -37 23q0 53 71.5 96t179 66.5t205.5 23.5q343 0 528 -155.5t185 -450.5q0 -266 -140 -447.5t-397 -271.5t-608 -90q-86 0 -120.5 22.5t-34.5 79.5zM381 129 q348 27 563 184.5t215 440.5q0 240 -146.5 366.5t-391.5 136.5q-84 -266 -136.5 -524t-103.5 -604z" />
<glyph unicode="E" horiz-adv-x="1091" d="M31 225q0 190 125 588q59 188 134 319.5t206 198.5q74 41 176 60.5t153 19.5q260 0 260 -135q0 -33 -14 -60.5t-39 -44.5q-31 35 -93 53.5t-142 18.5q-150 0 -237 -47t-133 -133t-85 -234l-31 -116q41 4 123 8q154 10 253 23.5t196 46.5q18 -14 25 -30t5 -40 q-2 -70 -98 -90.5t-280 -24.5q-182 -4 -256 -22l-33 -123q-33 -127 -33 -193q0 -76 40 -107.5t132 -31.5q80 0 173 14.5t226 40.5q113 23 127 23q39 0 39 -55v-5q-2 -55 -112.5 -94t-253 -58.5t-230.5 -19.5q-209 0 -286 95q-37 49 -37 155z" />
<glyph unicode="F" horiz-adv-x="1140" d="M195 1298q0 8 4 25q143 78 334.5 119t394.5 41q154 0 262 -36t108 -118q0 -29 -14 -59q-111 51 -244 67q-102 11 -176 11q-94 0 -178 -15q-68 -242 -135 -565q61 10 84 14q18 2 116.5 17.5t176.5 15.5q145 0 145 -96q0 -20 -10 -55l-4 -2q-12 4 -37 8q-47 8 -109 8 q-86 0 -178 -14.5t-213 -38.5q-37 -201 -106 -602q-14 -10 -49 -19.5t-62 -9.5q-47 0 -47 57q0 35 14.5 113t34.5 170q31 143 53 262q-33 -4 -47 -4l-26 2q-74 10 -74 90q0 20 2 31q90 10 172 24q10 53 22.5 104.5t22.5 104.5q45 182 74 342q-70 -20 -182 -65 q-27 -10 -45 -11q-37 0 -60.5 26t-23.5 58z" />
<glyph unicode="G" horiz-adv-x="1449" d="M96 477q0 215 127 434t340 362.5t455 143.5q123 0 206 -41t83 -108q0 -27 -16.5 -41.5t-41.5 -14.5q-37 0 -92 25q-47 18 -88 28.5t-92 10.5q-199 0 -351.5 -106.5t-236.5 -275.5t-84 -345q0 -174 64.5 -295t214.5 -121q113 0 220 75t186 192.5t110 236.5q-12 2 -39 2 q-88 0 -166 -8q-41 -4 -64 -4q-55 0 -55 37q0 47 74 70.5t190 23.5q143 0 264 -25.5t123 -89.5v-6q0 -39 -55 -39q-23 0 -67.5 9t-59.5 11l-119 -555q-2 -8 -10 -47t-24 -71q-12 -25 -46 -49.5t-57 -24.5q-33 0 -33 51q0 70 64 342q-96 -135 -220 -199.5t-259 -64.5 q-236 0 -340.5 129t-104.5 348z" />
<glyph unicode="H" horiz-adv-x="1306" d="M82 82q0 37 2 59q8 119 66.5 365t144.5 492.5t180 383.5q25 4 33 4q39 0 61.5 -19t22.5 -54t-21 -78q-94 -217 -163 -453q102 33 253.5 58.5t299.5 38.5q59 195 134.5 366.5t153.5 278.5h8q42 0 73 -20q34 -22 38 -50q-156 -305 -235 -567q41 0 57 -2q43 -2 61.5 -28 t16.5 -58q-2 -16 -11.5 -19.5t-54.5 -1.5q-12 2 -45 2q-35 0 -55 -2q-88 -334 -113 -737q-8 -4 -31.5 -7t-39.5 -3q-51 0 -72 27.5t-21 82.5q0 125 27 288t76 337q-143 -16 -296 -44t-259 -60q-86 -326 -140 -715q-14 -2 -38 -2q-61 0 -87 30.5t-26 106.5z" />
<glyph unicode="I" horiz-adv-x="1085" d="M-16 94q0 35 26 70q78 -10 129 -10q84 0 195 18l49 6q16 250 88 564.5t162 514.5q-188 0 -266 -14q-8 -2 -25 -2q-57 0 -57 66q0 51 25.5 78.5t68.5 27.5q57 0 166 -10q156 -12 233 -12l129 -2q160 0 236 14q2 -11 2 -29q0 -59 -44 -95t-118 -36q-35 0 -74 3t-57 3l-70 6 q-84 -156 -149.5 -472t-75.5 -590l49 2q70 4 99 4q45 0 79 -6q55 -10 89 -42t34 -79q0 -27 -16 -64q-49 23 -102.5 32t-135.5 9q-63 0 -139 -8t-143 -18q-63 -10 -129 -17.5t-121 -7.5q-61 0 -99 26.5t-38 69.5z" />
<glyph unicode="J" horiz-adv-x="1089" d="M33 281q0 53 28.5 77.5t67.5 24.5q31 0 48.5 -25.5t41.5 -85.5q33 -86 73 -135t126 -49q96 0 163.5 67.5t117 216t92.5 402.5l83 490h-22q-153 0 -330 -25q-104 -14 -160 -14q-33 0 -59.5 16t-26.5 59t49.5 64.5t139.5 30.5q154 14 268 14q162 0 245 -14.5t83 -61.5 q0 -27 -11.5 -83t-21.5 -103t-16 -72l-62 -270q-14 -72 -20 -96q-45 -225 -95.5 -379t-158 -267.5t-283.5 -113.5q-170 0 -265 94t-95 238z" />
<glyph unicode="K" horiz-adv-x="1265" d="M82 41q0 74 51 205q98 250 151.5 417.5t84.5 383.5q12 109 16 198q0 37 2 53q2 63 32 91t95 28q74 0 74 -82q0 -49 -35 -184q-49 -188 -90 -401q150 61 279.5 156t223 194.5t142.5 179.5q33 53 64.5 88t72.5 35q31 0 51.5 -23.5t20.5 -50.5q0 -39 -16.5 -70.5 t-61.5 -82.5q-82 -96 -230.5 -213t-330.5 -215q74 -188 135 -316.5t146 -230t182 -109.5q2 -8 2 -24q0 -49 -38 -79t-95 -30q-141 0 -268.5 225.5t-217.5 485.5l-84 -37l-2 -17q-41 -193 -131 -464l-18 -56q-20 -66 -58 -95.5t-88 -29.5q-29 0 -45 18.5t-16 51.5z" />
<glyph unicode="L" horiz-adv-x="1024" d="M84 70q0 104 297 1292q12 53 34.5 83t51.5 30q33 0 67.5 -45.5t34.5 -83.5q0 -41 -18.5 -108t-61.5 -202q-61 -184 -88 -282l-24 -86q-47 -166 -75 -286t-46 -253q207 27 348 27q98 0 188.5 -11.5t112.5 -31.5q0 -57 -26.5 -97.5t-87.5 -40.5q-25 0 -57 2.5t-48 4.5 q-78 8 -137 8q-102 0 -238 -17q-82 -10 -123 -10q-104 0 -104 107z" />
<glyph unicode="M" horiz-adv-x="1796" d="M72 129q0 10 4 39q14 137 105 465t215 590t245 262q111 0 157 -145.5t46 -421.5q0 -184 -27 -592l78 139q229 410 331.5 577.5t174.5 241.5t145 74q123 0 123 -182q0 -50 -9 -119.5t-24 -147.5q-29 -156 -47 -286q-23 -164 -34 -320t-11 -256q0 -39 -10 -62.5t-45 -23.5 q-49 0 -94 26.5t-45 104.5q0 72 19.5 185.5t62.5 347.5q33 164 45 237l12 78q18 121 18 150t-7 42t-25 13q-47 0 -130 -131t-219 -385q-147 -272 -231 -405.5t-135 -133.5q-94 0 -94 217q0 106 12 348q2 41 6 122t6 143v67q0 285 -74 287h-2q-58 0 -122 -132 q-64 -134 -115 -320.5t-68 -319.5q-16 -133 -16 -250l2 -137q0 -57 -33 -77t-88 -20q-49 0 -75.5 30t-26.5 81z" />
<glyph unicode="N" horiz-adv-x="1382" d="M-2 41q0 23 19.5 70t45.5 100q43 80 78 166q123 287 189 600q33 156 53 237.5t55 149.5t80 68q63 0 140 -190.5t145.5 -483.5t107.5 -580q61 109 101.5 243t81.5 339q23 109 34 202t29 285l14 154q23 23 54.5 38t54.5 15q47 0 47 -80q0 -135 -33.5 -340t-81 -399.5 t-86.5 -298.5q-119 -324 -288 -324q-45 0 -66 19q-55 412 -104.5 633t-153.5 483q-76 -326 -135.5 -533.5t-128.5 -412.5q-78 -231 -180 -232q-72 0 -72 72z" />
<glyph unicode="O" horiz-adv-x="1230" d="M90 467q0 256 98.5 489.5t273.5 378t396 144.5q160 0 253 -127t93 -326q0 -215 -103.5 -455.5t-281.5 -404.5t-391 -164q-178 0 -258 140.5t-80 324.5zM276 459q0 -160 43 -237t132 -77q139 0 279 132.5t231.5 335t91.5 397.5q0 131 -53.5 214t-161.5 83 q-170 0 -298 -134.5t-196 -333t-68 -380.5z" />
<glyph unicode="P" horiz-adv-x="1163" d="M129 -8q0 80 68.5 365.5t185.5 740.5l57 221q-74 -16 -135 -59q-53 -41 -80 -41q-16 0 -25.5 11t-9.5 30q0 66 72 114.5t175.5 75.5t193.5 27q235 0 400 -115t165 -369q0 -174 -84 -312t-222 -215t-292 -77q-59 0 -120.5 8.5t-98.5 22.5q-41 -180 -94 -447 q-6 -33 -16.5 -47t-43.5 -14q-35 0 -65.5 21.5t-30.5 58.5zM408 547q84 -29 190 -29q104 0 201.5 49t160 143.5t62.5 223.5q0 190 -110.5 296.5t-282.5 110.5q-127 -389 -221 -794z" />
<glyph unicode="Q" horiz-adv-x="1359" d="M61 426q0 256 116 489.5t306.5 376t399.5 142.5q377 0 377 -453q0 -209 -102.5 -428t-272.5 -369q37 -111 55 -157q39 -92 93 -135.5t130 -43.5q63 0 115 23q6 -18 6 -43q0 -57 -53 -92t-119 -35q-117 0 -195.5 61.5t-128.5 200.5q-14 39 -38 125q-164 -96 -344 -96 q-123 0 -201 69.5t-111 169t-33 195.5zM268 459q0 -324 201 -324q125 0 246 80q-23 96 -39.5 179t-18.5 112q0 18 13.5 29.5t36.5 11.5q39 0 71.5 -59.5t65.5 -165.5q119 123 191.5 293.5t72.5 349.5q0 290 -212 290h-1q-190 0 -333.5 -128t-218.5 -314t-75 -354z" />
<glyph unicode="R" horiz-adv-x="1292" d="M141 49q0 135 54.5 371.5t134.5 477.5t145 382q-115 -27 -211 -90q-59 -41 -80 -41q-16 0 -25 12.5t-9 32.5q0 74 81.5 132t199.5 90t218 32q250 0 405.5 -110.5t155.5 -315.5q0 -219 -148.5 -333t-387.5 -163q74 -188 196.5 -326.5t257.5 -138.5q20 0 33 2q2 -10 2 -26 q0 -55 -38 -90t-97 -35q-102 0 -222 110.5t-209 273.5t-103 304q254 29 407.5 123t153.5 258q0 143 -119 229t-297 90q-109 -289 -181.5 -550t-168.5 -717q-6 -37 -35 -55.5t-57 -18.5q-35 0 -45.5 22.5t-10.5 67.5z" />
<glyph unicode="S" horiz-adv-x="997" d="M0 178q-2 6 -2 14q0 12 4 27q6 25 18 41q139 -96 291 -96q166 0 278.5 64.5t112.5 183.5q0 72 -33.5 122t-80.5 82.5t-135 79.5q-94 49 -151.5 89t-97.5 104.5t-40 159.5q0 117 66.5 203.5t177 134t243.5 47.5q166 0 278.5 -64.5t112.5 -175.5q0 -68 -73 -68 q-18 0 -33.5 10.5t-38.5 30.5q-53 47 -114.5 75t-172.5 28q-121 0 -203.5 -54.5t-82.5 -144.5q0 -68 51 -115t162 -112q102 -61 164.5 -109.5t107.5 -123t45 -177.5q0 -127 -70.5 -228.5t-197.5 -158.5t-291 -57q-102 0 -191.5 42t-103.5 146z" />
<glyph unicode="T" horiz-adv-x="1032" d="M127 1255q0 88 96 113q213 53 527 53h65q10 0 127 -2t212 -27.5t95 -70.5q0 -31 -17.5 -43t-57.5 -12q-27 0 -101 8q-129 14 -262 16l-61 -233q-8 -31 -57.5 -222.5t-86.5 -373.5q-51 -248 -61 -428q-2 -25 -27.5 -34t-83.5 -9q-78 0 -78 82q0 63 15.5 136t48.5 191 l35 131l51 193q47 164 77.5 292t53.5 271q-104 -8 -183 -27.5t-178 -50.5q-55 -22 -77 -22h-2q-39 0 -54.5 18.5t-15.5 50.5z" />
<glyph unicode="U" horiz-adv-x="1269" d="M141 406q0 127 37 315t96.5 372.5t122.5 299.5q23 10 49 10q78 0 78 -105v-11q0 -31 -9 -65q-11 -40 -40 -124l-35 -105q-39 -106 -73.5 -268t-34.5 -285q0 -145 51 -225t149 -80q164 0 269.5 149.5t166 378t117.5 572.5q4 20 15.5 97t41 100.5t87.5 25.5q35 0 51 -16 q-70 -475 -157 -787.5t-237.5 -499t-385.5 -186.5q-174 0 -266.5 112t-92.5 325z" />
<glyph unicode="V" horiz-adv-x="1120" d="M238 1393q8 29 34.5 47t57.5 18q82 0 104 -69q20 -66 25 -181q2 -49 2 -147q0 -121 -8 -330q-8 -180 -9 -256q0 -174 27 -268q410 492 549 1053q25 96 58.5 134t105.5 38q57 -1 57 -53v-7q0 -102 -130 -375.5t-315.5 -558t-342.5 -430.5q-8 -2 -25 -2q-74 0 -111.5 100.5 t-37.5 290.5q0 55 2 86q4 139 4 234q0 438 -47 676z" />
<glyph unicode="W" horiz-adv-x="1742" d="M86 324q0 141 50 344.5t135 412.5t182 363q23 31 42 50t44 19t49 -38.5t24 -71.5q0 -25 -18.5 -66t-69.5 -139q-92 -170 -133 -278q-49 -135 -87 -278.5t-38 -248.5q0 -113 18.5 -177t90.5 -64q102 0 236 181t288 552l31 78q43 106 72.5 151t78.5 45q18 0 25.5 -9 t7.5 -30q0 -29 -20 -116l-27 -134q-27 -143 -27 -288q0 -156 31 -261.5t90 -105.5q82 0 170 123t150 336q31 106 47 203.5t39 275.5l20 160q6 49 15.5 72.5t35.5 52.5q14 12 42 22t42 10h1q32 0 32 -71q0 -113 -32.5 -291t-75.5 -340q-72 -266 -198 -504.5t-314 -238.5 q-139 0 -195.5 128t-56.5 302q0 37 4 90q-55 -139 -152.5 -267t-208 -207t-202.5 -79q-238 0 -238 332z" />
<glyph unicode="X" horiz-adv-x="1316" d="M-2 35q0 59 38 126.5t78 115t115 131.5q18 20 84 86q115 117 180.5 191.5t65.5 107.5q0 53 -25.5 117.5t-76.5 166.5q-49 100 -72 156.5t-23 101.5t25 72t66 27q14 0 43 -9l217 -530q170 209 361.5 368.5t297.5 159.5q43 0 62.5 -15t19.5 -50q0 -27 -4 -43 q-125 -70 -282.5 -182.5t-269.5 -217t-112 -153.5q0 -31 34 -98.5t106 -196.5q86 -156 130 -247t46 -138q0 -37 -27.5 -60.5t-58.5 -23.5q-55 0 -110.5 96t-133.5 279q-49 121 -82 182t-55 61q-31 0 -112 -86t-177 -219t-168 -262q-33 -57 -53.5 -72.5t-50.5 -15.5 q-31 0 -53.5 20.5t-22.5 53.5z" />
<glyph unicode="Y" horiz-adv-x="1198" d="M94 139q0 47 25.5 69.5t66.5 22.5q23 0 43.5 -12t49.5 -37q49 -41 96 -63.5t123 -22.5q133 0 229 132t156.5 322.5t113.5 442.5q-133 -276 -257 -377.5t-248 -101.5q-125 0 -199 103.5t-74 285.5q0 125 32 253t81 226q33 68 75 96.5t78 28.5q53 0 76 -34 q-80 -115 -119 -264.5t-39 -278.5q0 -279 129 -279q94 0 192.5 111.5t179.5 264.5t128 284l35 98q10 29 31.5 43t48.5 14q41 0 65 -26q19 -19 19 -44q0 -9 -2 -18l-127 -567q-61 -274 -128 -449.5t-196 -289t-344 -113.5q-82 0 -160.5 25.5t-129 67.5t-50.5 87z" />
<glyph unicode="Z" horiz-adv-x="1243" d="M53 143q0 106 364.5 455.5t700.5 630.5q-90 25 -172 33t-201 8q-143 0 -255.5 -37t-174.5 -117q-39 6 -60.5 29.5t-21.5 52.5q0 104 156 159.5t359 55.5q518 0 518 -168q0 -61 -78 -143t-258 -238q-182 -160 -221 -196q-322 -296 -449 -484q178 -14 256 -14l78 2 q143 6 220 18.5t144 30.5q57 14 89 15q35 0 50 -18.5t15 -45.5q0 -88 -180 -129t-391 -41q-205 0 -346.5 32t-141.5 109z" />
<glyph unicode="[" horiz-adv-x="786" d="M6 -209q0 25 2 37l254 1534q12 88 166 88q25 0 98 -6q84 -6 125 -6q27 0 125 8q10 2 25.5 4t32.5 2q37 0 38 -35q0 -57 -55 -85.5t-125 -28.5q-27 0 -84 8q-53 8 -76 8q-49 0 -80.5 -25.5t-48.5 -93.5q-82 -379 -153.5 -774t-71.5 -543q0 -53 84 -53q92 0 275 59 q31 10 43 11q27 0 32 -29q4 -25 4 -33q0 -47 -40.5 -69.5t-151.5 -51.5q-59 -16 -136 -27.5t-141 -11.5q-23 0 -59 5q-39 4 -60.5 32.5t-21.5 75.5z" />
<glyph unicode="\" horiz-adv-x="778" d="M123 1376q6 16 47 25.5t84 9.5q41 0 55 -8q16 -379 144.5 -884t294.5 -925q8 -22 -4.5 -32.5t-38.5 -10.5q-31 0 -63 13.5t-40 32.5q-182 416 -301 855t-178 924z" />
<glyph unicode="]" horiz-adv-x="778" d="M-55 -190q0 33 12 46t51 13q45 0 129 -14q18 -2 55 -9.5t64 -7.5q51 0 87 30t52 103q80 346 155 758t75 559q0 31 -28 42t-89 11q-123 0 -242 -38q-8 -2 -23.5 -8.5t-25.5 -6.5q-20 0 -27 25q-4 25 -4 33q0 33 21.5 50t68 30.5t103.5 27.5q164 39 278 39q25 0 58 -4 q41 -4 62.5 -31.5t21.5 -75.5q0 -10 -4 -39l-238 -1421q-20 -123 -95 -176t-171 -53q-170 0 -258 27.5t-88 89.5z" />
<glyph unicode="^" horiz-adv-x="907" d="M123 786q2 43 29.5 87.5t72.5 101.5q70 88 148 199l28 40l41 60q78 119 148 207q29 37 49 37q18 0 47 -52q25 -51 42 -106t50 -178l19 -72q37 -141 55 -303q6 -45 -11.5 -88t-52.5 -43q-82 0 -98 151q-33 293 -90 420q-96 -115 -168 -213t-135 -207q-72 -115 -125 -114 q-37 0 -44 21.5t-5 51.5z" />
<glyph unicode="_" horiz-adv-x="1333" d="M-57 -131q0 43 18 70q98 -25 193.5 -31t253.5 -6q414 0 757 39q47 -29 47 -82q0 -41 -51 -66.5t-162 -25.5q-41 0 -63 2q-98 8 -209 8q-135 0 -317 -15q-193 -12 -273 -16q-82 -4 -138 23.5t-56 99.5z" />
<glyph unicode="`" d="M-19 1464q0 41 38 68t91 22q45 -106 119 -181t195 -126q0 -18 -22.5 -33.5t-59.5 -15.5q-60 0 -147 42t-150.5 103.5t-63.5 120.5zM0 1198z" />
<glyph unicode="a" horiz-adv-x="1130" d="M-2 225q0 188 106.5 374.5t265 305.5t302.5 119q109 0 109 -91q0 -10 -1 -20q-35 6 -59 7q-23 0 -64 -9q-121 -25 -228 -126t-171.5 -234t-64.5 -246q0 -160 98 -160q145 0 276 185.5t219 414.5q45 115 81 183.5t77 68.5q31 0 51.5 -21.5t20.5 -51.5q0 -23 -8 -39 q-70 -156 -120 -332t-50 -277v-14q0 -76 43 -76q18 0 46.5 14.5t39.5 14.5q25 0 24 -45q0 -37 -27.5 -74t-72.5 -60.5t-96 -23.5q-59 0 -92 45t-33 138q0 41 14 131q-84 -145 -206 -233.5t-263 -88.5q-98 0 -157.5 62.5t-59.5 158.5z" />
<glyph unicode="b" horiz-adv-x="1026" d="M49 354q0 135 53.5 360.5t122.5 432.5q35 109 83 219.5t95 138.5q16 12 29.5 16.5t36.5 4.5q49 0 49 -45q0 -27 -23.5 -98.5t-50.5 -145.5l-38 -109l-19 -55q-70 -190 -102 -313q92 123 230 203.5t263 80.5q74 0 137.5 -55t63.5 -182q0 -223 -105.5 -407.5t-261 -290 t-293.5 -105.5q-111 0 -170 42t-79.5 116t-20.5 192zM221 311q0 -92 24.5 -139t102.5 -47q84 0 192.5 88t185.5 235.5t77 317.5q0 72 -19.5 108.5t-72.5 36.5q-92 0 -209 -91t-199 -230t-82 -279z" />
<glyph unicode="c" horiz-adv-x="897" d="M-6 313q0 199 109.5 361t269 254t301.5 92q98 0 143 -36t45 -95q0 -78 -80 -111q-47 78 -161 78q-104 0 -212 -63.5t-179.5 -178t-71.5 -262.5q0 -109 50 -166t140 -57q104 0 217 62.5t183 185.5q43 -2 43 -60q0 -94 -69 -168.5t-178.5 -115.5t-226.5 -41 q-170 0 -246.5 87t-76.5 234z" />
<glyph unicode="d" horiz-adv-x="1138" d="M6 283q0 180 110.5 356t284.5 288.5t351 112.5q63 0 114 -26q33 139 43 174q33 117 66 204t80 117q20 12 35.5 16.5t39.5 4.5q49 0 50 -45q0 -27 -19.5 -90.5t-42.5 -124.5l-33 -99q-66 -207 -119 -431t-53 -365q0 -205 88 -264q-4 -31 -36.5 -57.5t-71.5 -26.5 q-76 0 -119 91t-43 199q-102 -176 -222 -241.5t-247 -65.5q-123 0 -189.5 71t-66.5 202zM195 338q0 -94 35.5 -138t109.5 -44q70 0 158 52t172 179t133 332l37 164q-43 26 -103 26h-4q-143 0 -267 -89t-197.5 -222t-73.5 -260z" />
<glyph unicode="e" horiz-adv-x="991" d="M4 340q0 190 98.5 350t255 252t320.5 92q106 0 168.5 -55t62.5 -141q0 -123 -92 -223.5t-242.5 -159t-314.5 -58.5q-39 0 -59 2v-37q0 -100 66.5 -160.5t154.5 -60.5q117 0 213 52.5t192 168.5q19 -4 28 -20t5 -41q-12 -68 -82.5 -138.5t-185.5 -116.5t-250 -46 q-76 0 -152.5 30.5t-131 106.5t-54.5 203zM213 494q15 -1 30 -1q124 0 231 45q120 50 189.5 127.5t69.5 149.5q0 98 -96 98q-94 0 -182 -53t-152.5 -148.5t-89.5 -217.5z" />
<glyph unicode="f" horiz-adv-x="753" d="M14 891l2 20q6 47 97.5 71t222.5 36q68 270 172 393t280 123q76 0 134.5 -33t58.5 -98q0 -31 -20.5 -52.5t-45.5 -21.5q-68 74 -161 74q-66 0 -110 -36t-75.5 -114.5t-60.5 -218.5q74 6 133 6q96 0 143 -21.5t47 -66.5q0 -18 -10 -49q-53 10 -135 10q-98 0 -205 -14 q-4 -29 -16 -106l-82 -533q-16 -115 -43 -184.5t-84 -71.5h-7q-77 0 -77 84q0 10 4 39l105 614l24 133q-76 -10 -158 -28q-57 -14 -81 -15q-51 0 -52 60z" />
<glyph unicode="g" horiz-adv-x="1056" d="M-57 -307q0 27 13 46t42 19q20 0 38.5 -7t47.5 -21q49 -25 94 -38.5t115 -13.5q135 0 221 114t130 265.5t101 417.5q-68 -178 -188.5 -282.5t-271.5 -104.5q-125 0 -201 78t-76 211q0 168 85 332.5t224.5 269t292.5 104.5q121 0 127 -88q-12 2 -37 2q-119 0 -240.5 -89 t-201.5 -226t-80 -270q0 -84 44 -132.5t126 -48.5q98 0 183 89.5t144.5 215.5t90.5 242q4 14 39 99q39 86 39 106q0 10 -8 10q-6 0 38 31q30 8 50 8q18 0 26 -1t0 1q14 -4 21.5 -15t7.5 -34q0 -6 -4 -43q-27 -201 -75 -442.5t-99 -444.5q-63 -256 -203.5 -387t-339.5 -131 q-123 0 -216 44t-99 114z" />
<glyph unicode="h" horiz-adv-x="1128" d="M61 145q0 217 62.5 524.5t198.5 661.5q43 113 85 163t105 50q25 0 25 -33t-15 -75q-188 -500 -274 -1022q82 143 208 292.5t248.5 248t194.5 98.5q66 0 66 -88q0 -68 -50 -334q-51 -260 -51 -336q0 -129 74 -129q10 0 24.5 4t20.5 10q18 -26 18 -69q0 -45 -37.5 -76 t-91.5 -31q-172 0 -172 256q0 86 11.5 163t31.5 189q25 117 25 164q0 29 -14 29q-45 0 -149.5 -100.5t-188.5 -229.5q-106 -166 -163 -270.5t-95 -206.5q-51 4 -74 36t-23 111z" />
<glyph unicode="i" horiz-adv-x="487" d="M51 121q0 70 78 402.5t107 404.5q14 37 40.5 58.5t59.5 21.5t45 -16.5t12 -47.5q0 -43 -13 -100.5t-40 -143.5q-29 -104 -45 -168.5t-23 -130.5q-14 -123 -18 -196l-8 -80q-4 -45 -36 -69.5t-85 -24.5q-74 0 -74 90zM309 1292q0 117 32 167t97 50q38 1 58 -21 q19 -20 18 -48v-6q0 -41 -19 -94.5t-54 -92.5t-81 -39q-24 0 -37.5 22.5t-13.5 61.5z" />
<glyph unicode="j" horiz-adv-x="518" d="M-422 -319q0 39 16.5 61t45.5 25q16 0 29.5 -7.5t21.5 -13.5t12 -8q31 -25 58.5 -37t72.5 -12q106 0 169 136t118 372q35 139 62.5 350t27.5 332q0 63 24.5 96t65.5 33q100 0 100 -119q0 -94 -63 -416l-8 -43q-45 -238 -95.5 -416t-159 -327.5t-278.5 -149.5 q-84 0 -150.5 38t-68.5 106zM274 1323q0 78 36 147.5t96 69.5h7q34 0 54 -16q22 -19 22 -51q0 -39 -27.5 -96.5t-66.5 -100.5t-65 -43h-4q-22 0 -36 23q-14 24 -16 67z" />
<glyph unicode="k" horiz-adv-x="1019" d="M-6 84q0 23 10 63q123 442 199 742l12 47q39 158 57.5 254t28.5 227q4 45 15.5 69.5t45.5 24.5q53 0 78 -35.5t25 -86.5q0 -18 -2 -27q-23 -188 -89.5 -454.5t-164.5 -545.5q121 152 288 310.5t305 264t175 105.5q22 0 34.5 -15t12.5 -44q-2 -111 -72 -149 q-233 -127 -405 -263q66 -209 131 -313t156 -104q49 0 77 26q33 -29 33 -71q0 -51 -44 -80t-107 -29q-129 0 -227.5 139.5t-139.5 319.5q-111 -117 -205 -279q-8 -14 -30.5 -61t-52 -76t-68.5 -29q-76 0 -76 70z" />
<glyph unicode="l" horiz-adv-x="557" d="M82 254q0 184 55.5 440t132.5 473q45 123 87 216.5t89 121.5q20 12 36 16.5t40 4.5q49 0 49 -45q0 -27 -22.5 -82.5t-65.5 -147.5q-41 -86 -47 -102q-72 -180 -128 -420t-56 -399q0 -51 15.5 -91t58.5 -40q20 0 47 10q6 2 21.5 6t27.5 4q27 0 27 -37q0 -61 -54.5 -114.5 t-132.5 -53.5q-88 0 -134 64.5t-46 175.5z" />
<glyph unicode="m" horiz-adv-x="1767" d="M66 164q0 53 10 141q27 203 87 399.5t120 311.5h4q94 0 94 -88q0 -41 -23 -119q-39 -119 -106 -432q80 150 206 313.5t247.5 273t191.5 109.5q47 0 69.5 -75.5t22.5 -159.5q0 -98 -20.5 -229.5t-59.5 -270.5q162 242 304.5 398.5t220.5 156.5q59 0 90.5 -53.5 t40.5 -118.5q12 -94 12 -232l-2 -182q0 -69 23.5 -107t66.5 -55q0 -66 -39 -94t-82 -28q-78 0 -110.5 69.5t-32.5 171.5q0 57 8 176q6 78 6 123q0 57 -11 90t-42 33q-45 0 -111.5 -79t-179.5 -236q-109 -154 -172 -229.5t-106 -75.5q-80 0 -80 100q0 43 11 99.5t32 146.5 q27 115 41 196.5t16 157.5q0 20 -7 44t-30 24q-47 0 -164.5 -141.5t-239.5 -339t-184 -351.5h-7q-63 0 -88 37q-27 39 -27 125z" />
<glyph unicode="n" horiz-adv-x="1148" d="M61 176q0 96 23 266q16 106 56 241.5t104.5 238t144.5 102.5q12 0 26.5 -5t18.5 -13q-78 -180 -116.5 -313.5t-65.5 -291.5q84 135 215 289t256 257.5t197 103.5q41 0 54 -29t13 -80q0 -39 -33 -194q-39 -201 -51 -289q-18 -125 -18 -199q0 -102 41 -102q8 0 20 2t29 2 q29 0 29 -31q0 -39 -27 -77t-66 -58q-33 -14 -53 -14q-76 0 -110.5 63.5t-34.5 185.5q0 68 14 193q12 109 28.5 187.5t18.5 90.5q14 68 14 84q0 10 -2 14.5t-10 4.5q-45 0 -148.5 -99.5t-197.5 -230.5q-100 -141 -151 -240.5t-107 -244.5h-9q-52 0 -76 41q-26 45 -26 145z " />
<glyph unicode="o" horiz-adv-x="997" d="M12 324q0 176 83 344t223.5 272t302.5 104q143 0 226 -89t83 -244q0 -164 -88 -326t-235.5 -265.5t-313.5 -103.5q-131 0 -206 83t-75 225zM193 332q0 -184 137 -185q116 0 222.5 87.5t172.5 215.5t66 238q0 88 -44.5 145.5t-130.5 57.5q-127 0 -223 -93t-148 -225.5 t-52 -240.5z" />
<glyph unicode="p" horiz-adv-x="1110" d="M-86 -420q0 45 29 160q104 412 170 801q8 55 28 170q23 117 43 252q2 31 20.5 48t45.5 19q37 0 58.5 -38t21.5 -99q0 -55 -13 -182q115 158 258.5 233.5t255.5 75.5q121 0 176.5 -68.5t55.5 -154.5q0 -203 -109.5 -355.5t-260 -234.5t-263.5 -82q-59 0 -83.5 15.5 t-24.5 49.5q0 37 18 47.5t63 10.5q133 0 243 82t172.5 201.5t62.5 224.5q0 121 -113 121q-70 0 -159 -44.5t-176 -121t-144 -170.5l-111 -506q-31 -139 -51 -246q-25 -125 -38 -174t-28 -72q-16 -18 -44.5 -26.5t-55.5 -8.5q-47 0 -47 72z" />
<glyph unicode="q" horiz-adv-x="1013" d="M14 348q0 152 84 292t208 236.5t239 120.5q55 10 88 11q108 0 108 -73q0 -15 -2 -24q-18 1 -35 1q-29 0 -55 -4q-41 -7 -92 -27q-117 -51 -200 -136.5t-125 -186.5t-42 -200q0 -63 25 -99t66 -36q133 0 237.5 153.5t188.5 371.5q6 16 33.5 89.5t59 117.5t62.5 44 q61 0 62 -77q0 -23 -2 -35q-14 -80 -78 -326q-39 -150 -91.5 -419t-78.5 -461q84 37 131 54t90 17q39 0 39 -37q0 -31 -62.5 -88t-145.5 -101t-144 -44q-41 0 -63.5 27.5t-22.5 78.5q0 43 16 155t49 243q49 201 90 407q-74 -158 -185.5 -244t-246.5 -86q-96 0 -150.5 77 t-54.5 208z" />
<glyph unicode="r" horiz-adv-x="708" d="M63 182q0 106 57.5 358.5t121.5 467.5q25 6 43 6q73 0 73 -98q0 -69 -24 -164q70 123 168 195.5t188 72.5q55 0 82 -26.5t27 -67.5q0 -43 -29 -74t-61 -31q-49 16 -88 17q-113 0 -201 -113q-74 -94 -124 -263t-89 -427l-23 -2q-59 0 -90 41t-31 108z" />
<glyph unicode="s" horiz-adv-x="882" d="M20 209q0 31 11.5 54.5t29.5 29.5q135 -117 275 -117q92 0 154.5 36t62.5 107q0 53 -49 86t-148 70q-90 35 -145 64.5t-94 80t-39 125.5q0 133 107.5 207t275.5 74q102 0 193 -30.5t147.5 -86t56.5 -127.5q0 -45 -28.5 -72.5t-67.5 -27.5q-14 0 -21 2q-12 98 -95 152.5 t-197 54.5q-76 0 -127.5 -40t-51.5 -95q0 -59 50.5 -99.5t152.5 -87.5q80 -37 129 -66.5t84 -74.5t35 -109q0 -98 -60.5 -163.5t-150.5 -96t-180 -30.5q-142 0 -226 52t-84 128z" />
<glyph unicode="t" horiz-adv-x="933" d="M-6 897q2 63 97 91t251 40q78 313 127 432q8 6 29 6q59 0 79.5 -34.5t20.5 -71.5q0 -20 -12.5 -64.5t-14.5 -56.5q-14 -47 -16 -57l-39 -146q41 2 115 2q176 0 249.5 -22.5t73.5 -79.5q0 -18 -10 -49q-84 16 -229 16q-113 0 -236 -10q-110 -430 -110 -603 q0 -71 20.5 -112t97.5 -41q127 0 291 158q27 -4 44.5 -19.5t17.5 -35.5q0 -10 -15 -33q-70 -106 -188.5 -163.5t-226.5 -57.5q-217 0 -217 262q0 139 110 622q-35 -6 -104 -22q-16 -4 -72.5 -16.5t-83.5 -12.5q-31 1 -41 21q-8 17 -8 45v12z" />
<glyph unicode="u" horiz-adv-x="1122" d="M66 260q0 117 38.5 270.5t93 294t97.5 213.5q113 -6 113 -94q0 -35 -50 -158q-53 -139 -82.5 -243.5t-29.5 -206.5q0 -66 16.5 -106t48.5 -40q113 0 238 206t252 487l33 69q16 34 42 62q25 26 54 26h4q18 0 38 -20q20 -18 34 -44q12 -22 12 -35q0 -17 -27 -91 q-39 -113 -63.5 -220.5t-30.5 -267.5v-20q1 -71 13 -125q14 -61 53 -121q-14 -27 -43 -47t-58 -20q-70 0 -107.5 61.5t-37.5 181.5q0 106 35 275q-256 -524 -521 -524q-80 0 -122.5 60t-42.5 177z" />
<glyph unicode="v" horiz-adv-x="892" d="M53 1026q31 39 84 39q84 0 141.5 -209t77.5 -590q197 236 353 645q2 6 11 36t34.5 46.5t70.5 16.5q70 -1 70 -56q0 -68 -134 -296t-286.5 -423.5t-214.5 -195.5q-29 0 -43 19.5t-16 68.5q-8 434 -148 899z" />
<glyph unicode="w" horiz-adv-x="1396" d="M59 279q0 139 49.5 322t128 313t164.5 130q29 0 46.5 -10t17.5 -30q0 -14 -10.5 -34t-23.5 -38.5t-23 -36.5q-82 -127 -129.5 -277.5t-47.5 -300.5q0 -92 16.5 -131t47.5 -39q74 0 184.5 171t206.5 413q23 53 29 80q23 63 38 82.5t50 19.5q65 0 65 -59q0 -10 -6 -53 q-2 -16 -24.5 -153.5t-22.5 -256.5q0 -196 87 -196h1q57 0 123 102t107 238q41 131 52 215t11 204q0 39 23.5 58.5t62.5 19.5q29 0 49.5 -14t20.5 -64q0 -74 -22.5 -197.5t-67.5 -246.5q-72 -201 -194 -343t-237 -142q-39 0 -75.5 34.5t-60 102t-23.5 160.5q0 59 6 122 q-80 -184 -206 -323t-243 -139q-72 0 -121 69.5t-49 227.5z" />
<glyph unicode="x" horiz-adv-x="1056" d="M-31 -12q0 74 76 175t217 255q70 72 104.5 114.5t34.5 59.5q0 27 -22.5 50.5t-75.5 66.5q-72 53 -110.5 100t-38.5 109q0 31 18 71.5t55 40.5q20 0 58.5 -45t105.5 -139q57 -82 91 -123t50 -41q14 0 46 29.5t96 95.5q102 109 174 171t119 62q35 0 62.5 -30.5t27.5 -67.5 q0 -47 -49.5 -86t-151.5 -100q-96 -55 -144 -92q-53 -41 -53 -83q1 -19 21 -57q22 -40 74 -125q61 -100 88.5 -151t27.5 -84q0 -29 -25.5 -53.5t-53.5 -24.5q-23 0 -35.5 14.5t-19.5 29.5t-9 20q-37 88 -106.5 203.5t-110.5 115.5t-141.5 -123t-249.5 -338q-44 -67 -101 -67 h-2q-18 0 -32.5 13t-14.5 34z" />
<glyph unicode="y" horiz-adv-x="1163" d="M-111 -289q0 29 18.5 49.5t47.5 20.5q27 0 56.5 -10.5t76.5 -32.5q61 -29 112.5 -46.5t104.5 -17.5q152 0 250 102.5t154.5 266.5t101.5 403q-68 -121 -164 -225t-195.5 -165.5t-179.5 -61.5q-88 0 -132 84t-44 223q0 141 41 318.5t106.5 300t135.5 122.5q74 0 74 -59v-6 q-2 -27 -25 -78q-70 -158 -119 -339t-49 -314q0 -102 49 -103q94 0 212 118t222.5 309.5t163.5 400.5q12 47 49 47q33 0 55.5 -49t22.5 -97q0 -74 -25.5 -232.5t-72.5 -360.5q-53 -233 -124 -392t-199 -257.5t-330 -98.5q-84 0 -176.5 23.5t-155 64.5t-62.5 92z" />
<glyph unicode="z" horiz-adv-x="1028" d="M12 152q0 43 58.5 99t222.5 187l123 101q131 109 204.5 175t155.5 152q-90 18 -188 19q-184 0 -363 -66q-41 8 -65.5 42t-24.5 75q0 57 113.5 77.5t234.5 20.5q225 0 336 -35.5t111 -89.5q0 -88 -201 -274t-504 -414q39 -4 105 -4h65q147 0 412 62q53 14 78 15 q43 0 43 -52q0 -25 -8 -58q-16 -66 -235.5 -96.5t-418.5 -30.5q-254 0 -254 95z" />
<glyph unicode="{" horiz-adv-x="813" d="M47 -100q0 72 42 121t126 112q68 49 102.5 87t34.5 87q0 59 -64.5 101.5t-137.5 50.5q-10 14 -11 30q0 23 24.5 49.5t78.5 69.5q61 55 63 58q109 88 109 141q0 18 -18.5 37.5t-57.5 48.5q-70 55 -109 103t-39 118q0 92 88.5 173t217.5 130t239 49q31 0 58.5 -13t27.5 -36 q0 -35 -68.5 -64.5t-197.5 -60.5q-111 -26 -162 -64t-51 -110q0 -31 24.5 -56.5t71.5 -60.5q63 -47 97 -85.5t34 -94.5q0 -66 -62.5 -128t-172.5 -142q84 -53 131 -113.5t47 -122.5q0 -76 -47 -133t-131 -123q-63 -53 -91 -83.5t-28 -65.5q0 -29 24.5 -61.5t71.5 -56 t111 -23.5q68 0 127 8q2 -6 2 -19q0 -55 -57.5 -72.5t-145.5 -17.5q-61 0 -132 30t-120 82t-49 120z" />
<glyph unicode="|" horiz-adv-x="559" d="M33 -326q0 123 31.5 319.5t76.5 393.5q59 250 111.5 422t163.5 481l18 49q39 115 61.5 158t51.5 39q37 -6 57.5 -28.5t20.5 -55.5l-2 -16q-6 -47 -29 -114t-27 -75l-47 -133q-94 -266 -147.5 -439t-79.5 -351q-31 -147 -58.5 -334t-39.5 -318q-8 -51 -16.5 -78.5t-31 -46 t-67.5 -18.5q-47 0 -47 145z" />
<glyph unicode="}" horiz-adv-x="811" d="M0 -233q106 -6 199.5 22.5t150 90t56.5 145.5q0 33 -14.5 67.5t-43.5 81.5q-31 49 -47 88t-16 78t34.5 84t88.5 80q-84 2 -148.5 52t-64.5 130q0 88 67.5 160t192.5 162q94 70 138 113.5t44 86.5q0 55 -106.5 88t-217.5 29q-16 31 -16 57q0 45 34 61.5t91 16.5 q86 0 171 -31.5t139 -85t54 -118.5q0 -92 -72.5 -170t-205.5 -178q-82 -59 -121 -96.5t-39 -67.5q0 -47 38 -72t108 -25q98 0 208 43q25 -20 25 -45q0 -27 -27.5 -49t-91.5 -61q-88 -53 -134 -95t-46 -100q0 -20 10.5 -42.5t30.5 -59.5q33 -57 50.5 -104.5t17.5 -102.5 q0 -143 -93.5 -241.5t-285.5 -98.5q-158 0 -158 107z" />
<glyph unicode="~" d="M158 647q0 129 79.5 196.5t192.5 67.5q70 0 118 -28.5t105 -83.5q51 -49 90 -74t93 -25q61 0 98 40t67 104q10 20 19.5 34.5t15.5 14.5q25 0 41.5 -19.5t16.5 -52.5q0 -121 -79 -197.5t-194 -76.5q-78 0 -131 34.5t-112 98.5q-51 51 -82 73.5t-74 22.5q-47 0 -76 -30.5 t-29 -73.5q0 -55 -16 -85t-78 -30q-29 0 -47 25.5t-18 64.5z" />
<glyph unicode="&#xa1;" horiz-adv-x="485" d="M-51 -311q0 29 12 62.5t41 96.5q68 156 92 228q43 121 67.5 233.5t35.5 253.5q61 6 84.5 -31.5t23.5 -123.5q0 -174 -64.5 -400.5t-162.5 -435.5q-55 -8 -92 26.5t-37 90.5zM186 913q0 53 33 92t78 39q59 0 91 -40.5t32 -85.5t-38 -78t-85 -33q-45 0 -78 30.5t-33 75.5z " />
<glyph unicode="&#xa2;" horiz-adv-x="1028" d="M115 532q0 160 65.5 300.5t183 236.5t267.5 129q27 160 57.5 222.5t77.5 62.5q20 0 51 -10l-53 -259h10q229 0 230 -127q0 -78 -80 -110q-55 74 -195 78l-35 -166q-35 -150 -37 -172q-6 -43 -63 -291l-19 -88q109 23 211.5 95.5t163.5 182.5q43 -2 43 -59 q0 -86 -63.5 -163t-167 -129t-219.5 -68q-18 -84 -58 -254q-20 -84 -57 -84q-18 0 -24.5 10t-6.5 33q0 109 31 288q-164 8 -238.5 100.5t-74.5 241.5zM279 571q0 -106 45 -167.5t127 -73.5q25 135 69 360q23 119 58 244q16 55 26 108q-158 -37 -241.5 -165.5t-83.5 -305.5z " />
<glyph unicode="&#xa3;" horiz-adv-x="1083" d="M4 76q0 31 10.5 54.5t26.5 31.5q37 14 94 20q51 6 86 19q74 27 105.5 122t35.5 261q-31 0 -116 -9q-82 -8 -113 -8q-12 0 -19.5 17.5t-7.5 38.5q0 23 11.5 42t32.5 25q47 10 172 10q20 2 47 2q-2 18 -2 72q0 115 8 205q12 123 73.5 217t160 146.5t216.5 52.5 q125 0 208 -51.5t83 -124.5q0 -47 -18.5 -70t-50.5 -35q-35 82 -96.5 118t-131.5 36q-166 0 -228.5 -105.5t-62.5 -285.5q0 -115 2 -166l308 6q41 2 61.5 -10.5t20.5 -34.5q0 -39 -32 -57.5t-83 -14.5q-86 6 -170 6q-70 0 -105 -4q-8 -231 -120 -379q57 -2 101 -17.5 t99 -43.5q47 -23 81 -35t71 -12q49 0 75.5 21.5t49.5 60.5q16 25 26.5 35t24.5 10q25 2 41 -13.5t16 -48.5q0 -102 -70.5 -157.5t-174.5 -55.5q-59 0 -108.5 14.5t-125.5 45.5q-68 29 -115 42t-100 13q-31 0 -59.5 -10.5t-77.5 -32.5q-29 -14 -57.5 -25.5t-49.5 -11.5 q-27 0 -40 21.5t-13 52.5z" />
<glyph unicode="&#xa4;" d="M37 141q0 43 48 112t153 173q-35 66 -35 162q0 121 59.5 232.5t159.5 193.5q-160 152 -207 209q-14 16 -14 37q0 27 35 51q18 12 38 12q47 0 102.5 -52t131.5 -143q-2 2 33 -38q119 59 243 59q98 0 172 -39q86 76 156 121t119 45q29 0 51 -19q31 -24 31 -51 q0 -23 -25 -35q-141 -80 -233 -157q37 -61 37 -146q0 -98 -42 -196.5t-114 -179.5q145 -182 145 -267q0 -59 -75 -88q-59 115 -181 254q-147 -104 -305 -104q-106 0 -180 37q-162 -154 -236 -263q-68 33 -67 80zM362 598q0 -66 9.5 -104.5t47.5 -63t118 -24.5q98 0 193 61 t153.5 160.5t58.5 203.5q0 90 -44 139.5t-150 49.5q-109 0 -197 -64.5t-138.5 -164t-50.5 -193.5z" />
<glyph unicode="&#xa5;" horiz-adv-x="1161" d="M156 539q0 25 18.5 46t40.5 19l66 -4q98 -4 153 -8h21q-43 94 -89.5 246.5t-107.5 361.5q-37 123 -37 141q0 20 26.5 31.5t63.5 11.5q39 0 61.5 -7t39.5 -23q18 -131 62 -334t118 -428q31 47 61 86q125 178 195 303t143 344q41 37 101 37q33 0 57.5 -19.5t24.5 -42.5 q0 -92 -95.5 -233t-290.5 -385q-57 -70 -83 -104q184 2 397 -15q18 -2 29.5 -13t11.5 -26q0 -37 -47 -52t-109 -15q-147 0 -311 6q-23 0 -35 2l-23 -115q76 -2 193 -14l86 -6q16 -2 25.5 -15.5t9.5 -29.5q0 -20 -11.5 -36t-29.5 -18q-61 -6 -137 -6q-47 0 -158 4l-16 -86 q-12 -78 -27.5 -123t-50.5 -45q-33 0 -64.5 21.5t-31.5 54.5q0 41 16 123l12 68q-252 18 -252 80q0 63 58 55q88 -14 215 -21l22 119q-104 8 -297 33q-25 6 -24 31z" />
<glyph unicode="&#xa6;" horiz-adv-x="559" d="M12 -348q0 123 41 328.5t103 402.5q10 35 28.5 52.5t40.5 17.5q35 0 60.5 -29t25.5 -72q0 -18 -6 -37q-43 -135 -76.5 -312t-52.5 -331q-10 -51 -18 -77.5t-30 -45t-60 -18.5q-16 0 -25 2q-31 17 -31 119zM238 723q39 152 71.5 255t106.5 312l18 49q39 115 61.5 158 t51.5 39q37 -6 57.5 -28.5t20.5 -55.5l-2 -16q-4 -43 -15.5 -82t-40.5 -107q-70 -164 -101.5 -256t-70.5 -268q-4 -23 -22.5 -35t-42.5 -12q-27 0 -52.5 13t-39.5 34z" />
<glyph unicode="&#xa7;" horiz-adv-x="1060" d="M31 -78q0 35 32 58q133 -74 240 -74q113 0 202 26.5t89 90.5q0 49 -48 85.5t-161 96.5l-94 51q-111 53 -153 111.5t-42 142.5q0 102 82 190t206 148.5t247 85.5q-166 39 -242 97.5t-76 166.5q0 117 121 176.5t281 59.5q121 0 205 -20.5t123.5 -50.5t39.5 -56 q0 -25 -25.5 -51.5t-62.5 -26.5q-16 0 -77 26q-68 29 -120.5 44.5t-111.5 15.5q-86 0 -143.5 -22.5t-57.5 -75.5q0 -66 64.5 -109t234.5 -96q139 -45 189.5 -98.5t50.5 -141.5q0 -123 -83 -222t-213 -157.5t-269 -68.5q33 -14 86 -41l57 -29q70 -43 122 -97.5t52 -131.5 q0 -129 -138 -192.5t-314 -63.5q-293 0 -293 153zM256 547q0 -104 131 -105q117 0 232.5 36t190.5 102.5t75 152.5q0 45 -36 67.5t-93 22.5q-102 0 -220 -45t-199 -110.5t-81 -120.5z" />
<glyph unicode="&#xa8;" d="M324 1198zM324 1307q0 90 42 120.5t105 30.5q45 0 64.5 -26.5t19.5 -65.5q0 -35 -19.5 -74t-53 -66.5t-72.5 -27.5q-43 0 -64.5 28.5t-21.5 80.5zM713 1309q0 88 44 127t105 39q41 0 61.5 -29t20.5 -66q0 -55 -43 -108t-115 -53q-30 0 -51.5 25.5t-21.5 64.5z" />
<glyph unicode="&#xa9;" horiz-adv-x="1724" d="M111 565q0 229 113.5 447.5t332.5 357.5t516 139q174 0 315.5 -71.5t224.5 -212t83 -336.5q0 -254 -106.5 -466t-320.5 -338t-521 -126q-336 0 -486.5 174t-150.5 432zM283 651q0 -129 46 -252t155.5 -205.5t289.5 -82.5q244 0 416 101t258 269t86 367q0 166 -67.5 285.5 t-184.5 180t-262 60.5q-217 0 -386 -113.5t-260 -282.5t-91 -327zM514 629q0 141 90 269t223.5 206t251.5 78q86 0 126 -35t40 -94q0 -76 -78 -109q-41 76 -139 76q-88 0 -169 -48t-132 -130t-51 -174q0 -98 43 -148.5t123 -50.5q96 0 198.5 60.5t171.5 181.5q43 -2 43 -58 q0 -94 -64.5 -166.5t-167.5 -112.5t-212 -40q-156 0 -226.5 80t-70.5 215z" />
<glyph unicode="&#xaa;" horiz-adv-x="690" d="M72 983q0 115 68.5 229.5t173 188.5t198.5 74q39 0 58.5 -22.5t15.5 -61.5q-33 4 -39 4q-84 0 -162 -60.5t-125 -150.5t-47 -168q0 -127 66 -127q84 0 164.5 122t146.5 277q8 16 27.5 62.5t39 76t37.5 29.5q25 0 46.5 -17.5t21.5 -39.5q0 -4 -4 -17q-53 -117 -90 -226 t-37 -171q0 -45 3 -63.5t17 -18.5t31.5 10.5t26.5 10.5q16 0 16 -31q0 -41 -40 -77t-91 -36q-82 0 -82 125q0 45 8 94q-51 -102 -124.5 -163.5t-166.5 -61.5q-74 0 -115.5 58.5t-41.5 150.5z" />
<glyph unicode="&#xab;" horiz-adv-x="1382" d="M104 520q0 61 47.5 102.5t139.5 82.5q94 41 117 49q125 49 194.5 91t134.5 126q49 -33 49 -80q0 -51 -49 -104.5t-129 -88.5q-41 -18 -131 -51q-88 -33 -133 -51t-86 -47q70 -27 117 -53.5t121 -75.5q110 -76 147 -111t37 -82q0 -31 -22.5 -52t-57.5 -21 q-31 0 -68.5 22.5t-68.5 59.5q-53 63 -100.5 101t-91.5 62.5t-154 75.5q-12 20 -13 45zM649 522q0 57 46 97t134 79l119 50q119 47 184.5 86.5t127.5 119.5q47 -28 47 -75t-48.5 -99.5t-123.5 -87.5q-29 -14 -69 -28.5t-56 -20.5q-78 -29 -124 -48.5t-87 -45.5 q68 -25 113.5 -51.5t113.5 -71.5q109 -76 143.5 -108.5t34.5 -77.5q0 -29 -22.5 -49.5t-55.5 -20.5q-31 0 -66.5 21.5t-64.5 56.5q-51 61 -96 98t-86 58.5t-151 74.5q-12 16 -13 43z" />
<glyph unicode="&#xac;" d="M188 754q0 53 22.5 68.5t44 17.5t28.5 2q72 8 155 8q55 0 129 -4q37 -2 92 -2q106 -8 150 -8q47 0 149 8q74 2 93.5 -13.5t19.5 -48.5q-6 -47 -22.5 -102t-20.5 -72q-43 -135 -57 -223q-10 -49 -24.5 -70.5t-30 -25.5t-44.5 -4q-37 0 -36 73q0 23 8 72q76 219 94 287 q-92 10 -236 10q-127 0 -209.5 -4t-213.5 -27q-25 -4 -33 -4q-57 0 -58 62z" />
<glyph unicode="&#xad;" horiz-adv-x="714" d="M61 438zM61 496q0 90 160 90q41 0 123 -8l59 -5q18 -2 60 -2q74 0 172 15q25 -8 24 -41q0 -47 -73 -72q-49 -16 -165 -25.5t-204 -9.5q-67 0 -111.5 10.5t-44.5 47.5z" />
<glyph unicode="&#xae;" horiz-adv-x="1724" d="M111 565q0 229 113.5 447.5t332.5 357.5t516 139q174 0 315.5 -71.5t224.5 -212t83 -336.5q0 -254 -106.5 -466t-320.5 -338t-521 -126q-336 0 -486.5 174t-150.5 432zM283 651q0 -129 46 -252t155.5 -205.5t289.5 -82.5q244 0 416 101t258 269t86 367q0 166 -67.5 285.5 t-184.5 180t-262 60.5q-217 0 -386 -113.5t-260 -282.5t-91 -327zM545 442v19q0 14 4 55q12 74 66.5 217.5t118 277.5t106.5 185q22 2 69 2q141 0 232.5 -51t99.5 -170q4 -47 -29.5 -106.5t-102.5 -108.5t-165 -70q74 -37 139.5 -118.5t69.5 -153.5v-12q0 -23 -10 -33 t-41 -10q-51 0 -85 29.5t-81 92.5q-33 45 -57.5 75t-59.5 56q-16 16 -29.5 21.5t-33.5 5.5q-18 0 -31 -2q-23 -82 -29 -133q-2 -8 -10 -54t-27.5 -80t-48.5 -34q-31 0 -47 34t-18 66zM754 737q86 0 172 33t142 85t56 106q0 59 -45 92.5t-135 33.5l-35 -2q-37 -45 -79 -140 t-76 -208z" />
<glyph unicode="&#xaf;" d="M217 1249zM219 1337q2 43 86 64.5t205 21.5q35 0 96 -4q162 -10 189 -37q8 -8 8 -32q0 -31 -15 -70q-98 4 -147 4q-215 0 -403 -35q-11 15 -16 42.5t-3 45.5z" />
<glyph unicode="&#xb0;" horiz-adv-x="815" d="M213 856zM213 1092q0 109 58.5 213t154.5 168.5t205 64.5q104 0 166.5 -56.5t62.5 -152.5q0 -113 -62.5 -223.5t-166 -180t-220.5 -69.5q-92 0 -145 56.5t-53 179.5zM352 1112q0 -154 92 -153q76 0 141.5 53t105.5 135t40 166q0 53 -26.5 84t-78.5 31q-84 0 -146 -52.5 t-95 -127t-33 -136.5z" />
<glyph unicode="&#xb1;" d="M117 125q0 61 57 61q8 0 33 -4q145 -29 309 -28h74q188 0 293 14q33 4 45 4q43 0 67.5 -18.5t24.5 -55.5q0 -33 -19.5 -48t-93.5 -13q-74 6 -147 6q-80 0 -172 -6q-106 -10 -201 -10q-98 0 -176 10q-6 0 -32.5 2t-44 23.5t-17.5 62.5zM197 739q4 25 30.5 49.5t63.5 26.5 t90 -2q45 -4 84 -4q82 0 109.5 18.5t37.5 67.5q10 41 13 80q2 14 5 33.5t7 46.5q12 76 37.5 114.5t68.5 38.5q18 0 50 -10q2 -70 -12.5 -136.5t-43.5 -158.5q-6 -18 -6 -37q0 -47 39 -55q47 -12 109 -12q49 0 75 2q20 2 54 2q39 0 53 -7.5t14 -25.5q0 -51 -31.5 -69.5 t-101.5 -18.5q-23 0 -96 4l-74 2q-61 -2 -87 -18.5t-31 -55.5t-7 -141v-86q-4 -25 -24.5 -41t-51.5 -16q-26 0 -36.5 12t-10.5 39q0 12 11 78q8 37 10 53l12 106q4 43 -6 54.5t-35 15.5q-31 4 -94 4t-98 -2q-18 -2 -54 -2q-37 0 -57 11.5t-16 39.5z" />
<glyph unicode="&#xb2;" horiz-adv-x="583" d="M111 950q0 51 46 94t130 93q74 47 110.5 78.5t36.5 68.5q0 25 -28.5 40t-83.5 15q-88 0 -140 -45q-16 4 -22 14.5t-6 30.5q0 43 56 70t134 27q197 0 197 -160q0 -63 -38 -100t-114 -80q-49 -27 -75.5 -44.5t-49.5 -41.5l76 6q88 6 147 6q92 0 126 -19.5t34 -68.5 q-188 -25 -383 -25q-55 0 -133 4q-20 8 -20 37z" />
<glyph unicode="&#xb3;" horiz-adv-x="430" d="M129 940q0 23 51 50.5t118 50t103 26.5l-170 43q-33 8 -45 22.5t-12 43.5q37 10 57 14q92 23 149.5 45t57.5 53q0 45 -86 45q-51 0 -86 -20q-10 0 -19 15t-9 28q0 41 32.5 55t98.5 14q53 0 113.5 -32.5t60.5 -92.5q0 -53 -49.5 -83.5t-139.5 -49.5q68 -8 114 -32.5 t44 -53.5q0 -33 -65.5 -75.5t-147.5 -75.5t-117 -33q-23 0 -38 11.5t-15 31.5z" />
<glyph unicode="&#xb4;" d="M247 1237q117 63 182.5 134t131.5 183q51 4 90 -20.5t39 -63.5q0 -59 -71 -122.5t-167 -106.5t-164 -43q-18 0 -29.5 11.5t-11.5 27.5zM248 1198z" />
<glyph unicode="&#xb5;" horiz-adv-x="1103" d="M-66 -430q0 29 13 106q8 47 10 64q47 348 111 639q39 178 97 371.5t111 287.5q113 -6 113 -94q0 -33 -43 -158q-47 -141 -72.5 -244.5t-25.5 -205.5q0 -61 25.5 -103.5t60.5 -42.5q113 0 237.5 206t251.5 487l33 69q16 35 43 62.5t57 25.5q18 0 39 -19.5t34 -45t11 -37.5 q-3 -25 -26 -88q-39 -113 -63.5 -220.5t-30.5 -267.5q-2 -84 12 -145t53 -121q-14 -27 -43 -47t-57 -20q-70 0 -107 60.5t-37 180.5q0 123 35 279q-248 -498 -522 -498q-70 0 -100 68l-33 -301q-14 -137 -22.5 -192.5t-22.5 -82.5q-16 -18 -45 -26.5t-56 -8.5q-41 0 -41 62z M0 0z" />
<glyph unicode="&#xb6;" horiz-adv-x="1216" d="M160 1018q0 141 70.5 244.5t189.5 158t258 54.5q76 0 140.5 -20.5t86.5 -61.5q10 -15 10 -76q0 -121 -34 -318q-39 -274 -263 -1101q-2 -8 -15 -55.5t-43 -66t-81 -18.5q-35 0 -35 41q0 47 45 152q127 319 170 635q-274 12 -386.5 136t-112.5 296zM805 -72q0 51 12 116 t37 167l31 131q72 272 111.5 471t45.5 406q0 12 1 59t16 86q8 31 42 48.5t75 17.5q32 0 32 -80q0 -41 -8 -92.5t-14 -79.5q-37 -164 -56 -324q-10 -100 -34.5 -216t-63.5 -280q-55 -246 -71 -317q-10 -49 -21 -150q-6 -70 -16.5 -94t-46.5 -24q-33 0 -52.5 40t-19.5 115z " />
<glyph unicode="&#xb7;" horiz-adv-x="440" d="M67 532q0 55 32 92.5t95 37.5q49 0 79 -30t30 -79q0 -45 -24.5 -87t-86.5 -42q-57 0 -91 30.5t-34 77.5zM68 424z" />
<glyph unicode="&#xb8;" d="M61 0zM61 -463q0 14 7.5 32.5t23.5 29.5q16 -2 59 -2q86 0 146.5 25.5t60.5 88.5q0 29 -23.5 44.5t-64.5 15.5q-51 0 -106 -15q-18 -6 -26.5 5.5t-8.5 29.5q0 12 4 25l108 260l115 -6l-78 -179q12 2 35 3q78 0 123 -42t45 -112q0 -115 -90 -177.5t-225 -62.5 q-45 0 -75 10.5t-30 26.5z" />
<glyph unicode="&#xb9;" horiz-adv-x="370" d="M78 1268q0 14 14 24q25 18 184.5 100.5t182.5 82.5q14 0 28 -23q19 -23 9 -41q-78 -168 -112 -256t-48 -172q-2 -18 -28.5 -30.5t-53.5 -12.5q-59 0 -51 35q23 94 53.5 172t77.5 160q-61 -29 -137 -61t-88 -32q-10 0 -20.5 19.5t-10.5 34.5z" />
<glyph unicode="&#xba;" horiz-adv-x="622" d="M76 1010q0 109 58.5 213t154.5 168.5t205 64.5q104 0 166.5 -56.5t62.5 -152.5q0 -113 -62.5 -223.5t-166 -180t-220.5 -69.5q-92 0 -145 56.5t-53 179.5zM215 1030q0 -154 92 -153q76 0 141.5 53t105.5 135t40 166q0 53 -26.5 84t-78.5 31q-84 0 -146 -52.5t-95 -127 t-33 -136.5z" />
<glyph unicode="&#xbb;" horiz-adv-x="1290" d="M100 180q0 90 140 193q25 20 62.5 42.5t53.5 33.5q53 31 84 51t49 45q-190 104 -294 309q18 57 79 57q35 0 63 -22.5t69 -71.5q57 -80 98 -112.5t143 -94.5q10 -20 10 -43q0 -57 -47 -99t-135 -85q-127 -68 -203.5 -124t-144.5 -150q-27 33 -27 71zM600 176q0 43 40 93 t105 100q39 31 125 80q57 31 88 51t50 45q-193 104 -310 323q18 59 84 60q35 0 65 -23.5t71 -75.5q59 -80 86.5 -112.5t66.5 -59t98 -43.5q13 -20 13 -45q0 -59 -48.5 -102t-142.5 -90q-129 -68 -200.5 -122t-143.5 -153q-47 29 -47 74z" />
<glyph unicode="&#xbc;" horiz-adv-x="1347" d="M98 1268q0 14 15 24q25 18 184.5 100.5t181.5 82.5q14 0 29 -23q18 -23 8 -41q-78 -168 -111.5 -256t-48.5 -172q-2 -18 -28.5 -30.5t-53.5 -12.5q-59 0 -51 35q23 94 53.5 172t77.5 160q-61 -29 -137 -61t-88 -32q-10 0 -20.5 19.5t-10.5 34.5zM207 -88 q43 223 185.5 554t320.5 621.5t315 403.5q13 4 31 4q41 0 87 -14.5t54 -32.5q-305 -336 -516 -717t-350 -829q-4 -16 -24.5 -24.5t-45.5 -8.5q-27 0 -44 11t-13 32zM711 221q0 63 24.5 132t62.5 115t76 46q23 0 32 -5t14 -17q-31 -33 -58.5 -95.5t-27.5 -93.5q-2 -29 8 -47 t32 -18l78 4q29 90 68 174t74 131q20 14 43 14q14 0 21 -9t7 -26q0 -39 -92 -270q104 16 156 33q10 -8 15 -22.5t5 -26.5q0 -20 -16 -31q-25 -14 -79 -28.5t-105 -20.5l-11 -62q-12 -86 -25.5 -119.5t-47.5 -37.5l-15 -2q-31 0 -43 18q-2 12 -2 37q0 59 21 156 q-37 -6 -86 -7q-70 0 -99.5 17.5t-29.5 60.5z" />
<glyph unicode="&#xbd;" horiz-adv-x="1433" d="M98 0zM98 1268q0 14 14 24q25 18 184.5 100.5t182.5 82.5q14 0 28 -23q19 -23 9 -41q-78 -168 -112 -256t-48 -172q-2 -18 -28.5 -30.5t-53.5 -12.5q-59 0 -51 35q23 94 53.5 172t77.5 160q-61 -29 -137 -61t-88 -32q-10 0 -20.5 19.5t-10.5 34.5zM312 -18 q43 223 185 554t320.5 621.5t315.5 403.5q12 4 31 4q41 0 87 -14.5t54 -32.5q-305 -336 -516 -717t-350 -829q-4 -17 -24.5 -25t-45.5 -8q-27 0 -44 11t-13 32zM865 59q0 51 46 94t130 93q74 47 110.5 78.5t36.5 68.5q0 25 -28.5 40t-83.5 15q-88 0 -140 -45q-16 4 -22 14.5 t-6 30.5q0 43 56 70t134 27q197 0 197 -160q0 -63 -38 -100t-114 -80q-49 -27 -75.5 -44.5t-49.5 -41.5l76 6q88 6 147 6q92 0 126 -19.5t34 -68.5q-188 -25 -383 -25q-55 0 -133 4q-20 8 -20 37z" />
<glyph unicode="&#xbe;" horiz-adv-x="1478" d="M102 940q0 23 51.5 50.5t118 50t103.5 26.5l-170 43q-33 8 -45.5 22.5t-12.5 43.5q37 10 58 14q92 23 149.5 45t57.5 53q0 45 -86 45q-51 0 -86 -20q-10 0 -19.5 15t-9.5 28q0 41 32.5 55t98.5 14q53 0 113.5 -32.5t60.5 -92.5q0 -53 -49 -83.5t-139 -49.5 q68 -8 113.5 -32.5t43.5 -53.5q0 -32 -65.5 -75t-147.5 -76t-116 -33q-23 0 -38.5 11.5t-15.5 31.5zM260 -88q43 223 185.5 554t320.5 621.5t315 403.5q13 4 31 4q41 0 87 -14.5t54 -32.5q-305 -336 -516 -717t-350 -829q-4 -16 -24.5 -24.5t-45.5 -8.5q-27 0 -44 11t-13 32 zM842 221q0 63 24.5 132t62.5 115t77 46q23 0 32 -5t13 -17q-31 -33 -58.5 -95.5t-27.5 -93.5q-2 -29 8 -47t33 -18l77 4q29 90 68 174t74 131q20 14 43 14q14 0 21 -9t7 -26q0 -39 -92 -270q104 16 156 33q10 -8 15 -22.5t5 -26.5q0 -20 -16 -31q-25 -14 -79 -28.5 t-105 -20.5l-11 -62q-12 -86 -25.5 -119.5t-47.5 -37.5l-15 -2q-31 0 -43 18q-2 12 -2 37q0 59 21 156q-37 -6 -86 -7q-70 0 -99.5 17.5t-29.5 60.5z" />
<glyph unicode="&#xbf;" horiz-adv-x="747" d="M-68 -154q0 115 48.5 194t114 126t169.5 102q100 53 147.5 92t47.5 97q0 33 -9.5 55.5t-29.5 52.5q39 39 90 39q45 0 73.5 -34.5t28.5 -90.5q0 -70 -36.5 -125t-88 -93t-143.5 -95q-88 -53 -138 -90t-85 -88t-35 -117q0 -74 49 -114t121 -40q49 0 84 9.5t80 27.5 q25 10 49.5 17.5t46.5 7.5q37 0 58.5 -15.5t21.5 -42.5q0 -72 -100.5 -107.5t-212.5 -35.5q-164 0 -257.5 70.5t-93.5 197.5zM401 934q0 45 40 77.5t87 32.5q60 0 93.5 -33.5t33.5 -68.5q0 -57 -37.5 -86t-97.5 -29q-45 0 -82 30t-37 77z" />
<glyph unicode="&#xc0;" horiz-adv-x="1212" d="M-25 35q0 96 205 457.5t435.5 679t302.5 317.5q35 0 55 -19q-29 -209 -37 -400t-8 -437q53 0 102 -6q53 -6 69.5 -25.5t16.5 -48.5q0 -20 -19.5 -25.5t-58.5 -5.5q-74 0 -110 -2q2 -109 10 -199t29 -221q-18 -39 -63.5 -69.5t-80.5 -30.5q-20 0 -32.5 20.5t-18.5 71.5 q-8 74 -15 192.5t-5 221.5q-258 -31 -484 -133q-104 -217 -182 -434q-74 -2 -92.5 23.5t-18.5 72.5zM0 0zM350 537q193 66 406 88q14 387 30 583q-221 -263 -436 -671zM633 1792q0 39 32.5 66.5t82.5 31.5q59 -98 143 -163t211 -97q2 -23 -25.5 -43.5t-75.5 -20.5 q-65 0 -154 33t-151.5 85t-62.5 108z" />
<glyph unicode="&#xc1;" horiz-adv-x="1212" d="M-25 35q0 96 205 457.5t435.5 679t302.5 317.5q35 0 55 -19q-29 -209 -37 -400t-8 -437q53 0 102 -6q53 -6 69.5 -25.5t16.5 -48.5q0 -20 -19.5 -25.5t-58.5 -5.5q-74 0 -110 -2q2 -109 10 -199t29 -221q-18 -39 -63.5 -69.5t-80.5 -30.5q-20 0 -32.5 20.5t-18.5 71.5 q-8 74 -15 192.5t-5 221.5q-258 -31 -484 -133q-104 -217 -182 -434q-74 -2 -92.5 23.5t-18.5 72.5zM0 0zM350 537q193 66 406 88q14 387 30 583q-221 -263 -436 -671zM766 1624q127 37 206.5 93t165.5 152q45 -8 78 -35.5t33 -60.5q0 -8 -4 -20q-14 -49 -81 -91.5t-154 -66 t-158 -23.5q-39 0 -56 4q-18 5 -26 18t-4 30z" />
<glyph unicode="&#xc2;" horiz-adv-x="1191" d="M-25 35q0 96 205 457.5t435.5 679t302.5 317.5q35 0 55 -19q-29 -209 -37 -400t-8 -437q53 0 102 -6q53 -6 69.5 -25.5t16.5 -48.5q0 -20 -19.5 -25.5t-58.5 -5.5q-74 0 -110 -2q2 -109 10 -199t29 -221q-18 -39 -63.5 -69.5t-80.5 -30.5q-20 0 -32.5 20.5t-18.5 71.5 q-8 74 -15 192.5t-5 221.5q-258 -31 -484 -133q-104 -217 -182 -434q-74 -2 -92.5 23.5t-18.5 72.5zM0 0zM350 537q193 66 406 88q14 387 30 583q-221 -263 -436 -671zM563 1581q0 6 9.5 13t17.5 13t12 8q92 49 186.5 123t143.5 133q12 16 33 17q18 0 28 -17 q35 -61 110 -151t142 -146q-23 -43 -63 -43q-57 -2 -124 52.5t-120 126.5q-49 -47 -114.5 -85t-131.5 -61q-51 -14 -80 -14q-23 0 -30 8q-18 16 -19 23z" />
<glyph unicode="&#xc3;" horiz-adv-x="1212" d="M-25 35q0 96 205 457.5t435.5 679t302.5 317.5q35 0 55 -19q-29 -209 -37 -400t-8 -437q53 0 102 -6q53 -6 69.5 -25.5t16.5 -48.5q0 -20 -19.5 -25.5t-58.5 -5.5q-74 0 -110 -2q2 -109 10 -199t29 -221q-18 -39 -63.5 -69.5t-80.5 -30.5q-20 0 -32.5 20.5t-18.5 71.5 q-8 74 -15 192.5t-5 221.5q-258 -31 -484 -133q-104 -217 -182 -434q-74 -2 -92.5 23.5t-18.5 72.5zM0 0zM350 537q193 66 406 88q14 387 30 583q-221 -263 -436 -671zM625 1638q0 76 55 124t131 48q49 0 89 -20.5t85 -55.5q39 -29 58.5 -40t41.5 -11q53 0 81 36t30 95 q63 -18 63 -90q0 -66 -33.5 -102.5t-75.5 -50t-71 -13.5q-45 0 -77.5 16.5t-75.5 49.5q-41 29 -63.5 41t-51.5 12q-41 0 -72 -33t-47 -92q-67 16 -67 86z" />
<glyph unicode="&#xc4;" horiz-adv-x="1212" d="M-25 35q0 96 205 457.5t435.5 679t302.5 317.5q35 0 55 -19q-29 -209 -37 -400t-8 -437q53 0 102 -6q53 -6 69.5 -25.5t16.5 -48.5q0 -20 -19.5 -25.5t-58.5 -5.5q-74 0 -110 -2q2 -109 10 -199t29 -221q-18 -39 -63.5 -69.5t-80.5 -30.5q-20 0 -32.5 20.5t-18.5 71.5 q-8 74 -15 192.5t-5 221.5q-258 -31 -484 -133q-104 -217 -182 -434q-74 -2 -92.5 23.5t-18.5 72.5zM0 0zM350 537q193 66 406 88q14 387 30 583q-221 -263 -436 -671zM635 1665q0 90 42 120.5t106 30.5q45 0 64.5 -26.5t19.5 -65.5q0 -35 -19.5 -74t-53.5 -66.5t-73 -27.5 q-43 0 -64.5 28.5t-21.5 80.5zM1024 1667q0 88 44 126.5t106 38.5q41 0 61.5 -28.5t20.5 -65.5q0 -55 -43 -108.5t-115 -53.5q-31 0 -52.5 26t-21.5 65z" />
<glyph unicode="&#xc5;" horiz-adv-x="1212" d="M-25 35q0 96 205 457.5t435.5 679t302.5 317.5q35 0 55 -19q-29 -209 -37 -400t-8 -437q53 0 102 -6q53 -6 69.5 -25.5t16.5 -48.5q0 -20 -19.5 -25.5t-58.5 -5.5q-74 0 -110 -2q2 -109 10 -199t29 -221q-18 -39 -63.5 -69.5t-80.5 -30.5q-20 0 -32.5 20.5t-18.5 71.5 q-8 74 -15 192.5t-5 221.5q-258 -31 -484 -133q-104 -217 -182 -434q-74 -2 -92.5 23.5t-18.5 72.5zM0 0zM350 537q193 66 406 88q14 387 30 583q-221 -263 -436 -671zM749 1703q0 76 45.5 147t123 115t171.5 44q68 0 111 -38t43 -104q0 -78 -52 -149.5t-134 -115.5 t-168 -44q-60 0 -100 37t-40 108zM864 1734q0 -33 20.5 -54.5t53.5 -21.5q51 0 95 29t70.5 70t26.5 78q0 39 -22.5 57t-50.5 18q-82 0 -137.5 -54t-55.5 -122z" />
<glyph unicode="&#xc6;" horiz-adv-x="1826" d="M-27 20q0 51 83 205t208 328q223 313 467 536.5t473 282.5q82 20 232 21q66 0 84 -2q176 -15 238.5 -43.5t62.5 -73.5q0 -33 -14.5 -59.5t-39.5 -43.5q-29 33 -86 48.5t-149 23.5q-94 8 -121 8q-74 0 -149 -20q-37 -49 -74 -158.5t-70 -243.5l-24 -94q199 31 393 35 q76 0 76 -51q0 -14 -2 -21q-6 -37 -84 -49l-129 -16q-207 -27 -291 -39l-35 -133q-33 -127 -33 -193q0 -76 40 -107.5t132 -31.5q141 0 375 57q88 20 111 21q41 0 39 -60q-2 -55 -103.5 -94t-232.5 -58.5t-220 -19.5q-209 0 -286 95q-53 51 -53 166t59 319 q-279 -59 -510 -172q-154 -238 -244 -444q-63 -2 -93 22.5t-30 58.5zM461 561q192 82 434 135l37 117q43 125 84 222.5t96 183.5q-57 -12 -154.5 -86t-213 -200t-222.5 -284z" />
<glyph unicode="&#xc7;" horiz-adv-x="1171" d="M68 426q0 227 131 453.5t336.5 371t416.5 144.5q90 0 142.5 -29t52.5 -113q0 -49 -42 -146t-94.5 -174t-84.5 -77q-31 0 -50.5 27.5t-19.5 64.5q0 43 26.5 94.5t88.5 145.5l47 76q-41 12 -76 12q-170 0 -325.5 -124t-251 -310.5t-95.5 -354.5q0 -174 81 -247.5t210 -73.5 q117 0 207 33.5t188 87.5q59 35 76 35t27 -11.5t10 -27.5q0 -55 -78 -116t-198.5 -106t-239.5 -57l-49 -113q12 2 35 3q78 0 123 -42t45 -112q0 -115 -90.5 -177.5t-225.5 -62.5q-45 0 -74.5 10.5t-29.5 26.5q0 14 7 32.5t23 29.5q16 -2 60 -2q86 0 146.5 25.5t60.5 88.5 q0 29 -23.5 44.5t-64.5 15.5q-51 0 -107 -15q-18 -6 -26.5 5.5t-8.5 29.5q0 12 4 25l78 186q-172 14 -270 128t-98 296z" />
<glyph unicode="&#xc8;" horiz-adv-x="1091" d="M31 0zM31 225q0 190 125 588q59 188 134 319.5t206 198.5q74 41 176 60.5t153 19.5q260 0 260 -135q0 -33 -14 -60.5t-39 -44.5q-31 35 -93 53.5t-142 18.5q-150 0 -237 -47t-133 -133t-85 -234l-31 -116q41 4 123 8q154 10 253 23.5t196 46.5q18 -14 25 -30t5 -40 q-2 -70 -98 -90.5t-280 -24.5q-182 -4 -256 -22l-33 -123q-33 -127 -33 -193q0 -76 40 -107.5t132 -31.5q80 0 173 14.5t226 40.5q113 23 127 23q41 0 39 -60q-2 -55 -112.5 -94t-253 -58.5t-230.5 -19.5q-209 0 -286 95q-37 49 -37 155zM506 1772q0 39 32.5 66.5t82.5 31.5 q59 -98 143 -163t211 -97q2 -23 -25.5 -43.5t-75.5 -20.5q-65 0 -154 33t-151.5 85t-62.5 108z" />
<glyph unicode="&#xc9;" horiz-adv-x="1091" d="M31 0zM31 225q0 190 125 588q59 188 134 319.5t206 198.5q74 41 176 60.5t153 19.5q260 0 260 -135q0 -33 -14 -60.5t-39 -44.5q-31 35 -93 53.5t-142 18.5q-150 0 -237 -47t-133 -133t-85 -234l-31 -116q41 4 123 8q154 10 253 23.5t196 46.5q18 -14 25 -30t5 -40 q-2 -70 -98 -90.5t-280 -24.5q-182 -4 -256 -22l-33 -123q-33 -127 -33 -193q0 -76 40 -107.5t132 -31.5q80 0 173 14.5t226 40.5q113 23 127 23q41 0 39 -60q-2 -55 -112.5 -94t-253 -58.5t-230.5 -19.5q-209 0 -286 95q-37 49 -37 155zM639 1604q127 37 206.5 93 t165.5 152q45 -8 78 -35.5t33 -60.5q0 -8 -4 -20q-14 -49 -81 -91.5t-154 -66t-158 -23.5q-39 0 -56 4q-18 5 -26 18t-4 30z" />
<glyph unicode="&#xca;" horiz-adv-x="1091" d="M31 0zM31 225q0 190 125 588q59 188 134 319.5t206 198.5q74 41 176 60.5t153 19.5q260 0 260 -135q0 -33 -14 -60.5t-39 -44.5q-31 35 -93 53.5t-142 18.5q-150 0 -237 -47t-133 -133t-85 -234l-31 -116q41 4 123 8q154 10 253 23.5t196 46.5q18 -14 25 -30t5 -40 q-2 -70 -98 -90.5t-280 -24.5q-182 -4 -256 -22l-33 -123q-33 -127 -33 -193q0 -76 40 -107.5t132 -31.5q80 0 173 14.5t226 40.5q113 23 127 23q41 0 39 -60q-2 -55 -112.5 -94t-253 -58.5t-230.5 -19.5q-209 0 -286 95q-37 49 -37 155zM477 1561q0 6 9.5 13t17.5 13t12 8 q92 49 186.5 123t143.5 133q12 16 33 17q18 0 28 -17q35 -61 110 -151t142 -146q-23 -43 -63 -43q-57 -2 -124 52.5t-120 126.5q-49 -47 -114.5 -85t-131.5 -61q-51 -14 -80 -14q-23 0 -30 8q-18 16 -19 23z" />
<glyph unicode="&#xcb;" horiz-adv-x="1091" d="M31 0zM31 225q0 190 125 588q59 188 134 319.5t206 198.5q74 41 176 60.5t153 19.5q260 0 260 -135q0 -33 -14 -60.5t-39 -44.5q-31 35 -93 53.5t-142 18.5q-150 0 -237 -47t-133 -133t-85 -234l-31 -116q41 4 123 8q154 10 253 23.5t196 46.5q18 -14 25 -30t5 -40 q-2 -70 -98 -90.5t-280 -24.5q-182 -4 -256 -22l-33 -123q-33 -127 -33 -193q0 -76 40 -107.5t132 -31.5q80 0 173 14.5t226 40.5q113 23 127 23q41 0 39 -60q-2 -55 -112.5 -94t-253 -58.5t-230.5 -19.5q-209 0 -286 95q-37 49 -37 155zM508 1645q0 90 42 120.5t106 30.5 q45 0 64.5 -26.5t19.5 -65.5q0 -35 -19.5 -74t-53.5 -66.5t-73 -27.5q-43 0 -64.5 28.5t-21.5 80.5zM897 1647q0 88 44 126.5t106 38.5q41 0 61.5 -28.5t20.5 -65.5q0 -55 -43 -108.5t-115 -53.5q-31 0 -52.5 26t-21.5 65z" />
<glyph unicode="&#xcc;" horiz-adv-x="1085" d="M-16 94q0 35 26 70q78 -10 129 -10q84 0 195 18l49 6q16 250 88 564.5t162 514.5q-188 0 -266 -14q-8 -2 -25 -2q-57 0 -57 66q0 51 25.5 78.5t68.5 27.5q57 0 166 -10q156 -12 233 -12l129 -2q160 0 236 14q2 -11 2 -29q0 -59 -44 -95t-118 -36q-35 0 -74 3t-57 3l-70 6 q-84 -156 -149.5 -472t-75.5 -590l49 2q70 4 99 4q45 0 79 -6q55 -10 89 -42t34 -79q0 -27 -16 -64q-49 23 -102.5 32t-135.5 9q-63 0 -139 -8t-143 -18q-63 -10 -129 -17.5t-121 -7.5q-61 0 -99 26.5t-38 69.5zM0 0zM459 1772q0 39 32.5 66.5t82.5 31.5q59 -98 143 -163 t211 -97q2 -23 -25.5 -43.5t-75.5 -20.5q-65 0 -154 33t-151.5 85t-62.5 108z" />
<glyph unicode="&#xcd;" horiz-adv-x="1085" d="M-16 94q0 35 26 70q78 -10 129 -10q84 0 195 18l49 6q16 250 88 564.5t162 514.5q-188 0 -266 -14q-8 -2 -25 -2q-57 0 -57 66q0 51 25.5 78.5t68.5 27.5q57 0 166 -10q156 -12 233 -12l129 -2q160 0 236 14q2 -11 2 -29q0 -59 -44 -95t-118 -36q-35 0 -74 3t-57 3l-70 6 q-84 -156 -149.5 -472t-75.5 -590l49 2q70 4 99 4q45 0 79 -6q55 -10 89 -42t34 -79q0 -27 -16 -64q-49 23 -102.5 32t-135.5 9q-63 0 -139 -8t-143 -18q-63 -10 -129 -17.5t-121 -7.5q-61 0 -99 26.5t-38 69.5zM0 0zM592 1604q127 37 206.5 93t165.5 152q45 -8 78 -35.5 t33 -60.5q0 -8 -4 -20q-14 -49 -81 -91.5t-154 -66t-158 -23.5q-39 0 -56 4q-18 5 -26 18t-4 30z" />
<glyph unicode="&#xce;" horiz-adv-x="1085" d="M-16 94q0 35 26 70q78 -10 129 -10q84 0 195 18l49 6q16 250 88 564.5t162 514.5q-188 0 -266 -14q-8 -2 -25 -2q-57 0 -57 66q0 51 25.5 78.5t68.5 27.5q57 0 166 -10q156 -12 233 -12l129 -2q160 0 236 14q2 -11 2 -29q0 -59 -44 -95t-118 -36q-35 0 -74 3t-57 3l-70 6 q-84 -156 -149.5 -472t-75.5 -590l49 2q70 4 99 4q45 0 79 -6q55 -10 89 -42t34 -79q0 -27 -16 -64q-49 23 -102.5 32t-135.5 9q-63 0 -139 -8t-143 -18q-63 -10 -129 -17.5t-121 -7.5q-61 0 -99 26.5t-38 69.5zM0 0zM430 1561q0 6 9.5 13t17.5 13t12 8q92 49 186.5 123 t143.5 133q12 16 33 17q18 0 28 -17q35 -61 110 -151t142 -146q-23 -43 -63 -43q-57 -2 -124 52.5t-120 126.5q-49 -47 -114.5 -85t-131.5 -61q-51 -14 -80 -14q-23 0 -30 8q-18 16 -19 23z" />
<glyph unicode="&#xcf;" horiz-adv-x="1085" d="M-16 94q0 35 26 70q78 -10 129 -10q84 0 195 18l49 6q16 250 88 564.5t162 514.5q-188 0 -266 -14q-8 -2 -25 -2q-57 0 -57 66q0 51 25.5 78.5t68.5 27.5q57 0 166 -10q156 -12 233 -12l129 -2q160 0 236 14q2 -11 2 -29q0 -59 -44 -95t-118 -36q-35 0 -74 3t-57 3l-70 6 q-84 -156 -149.5 -472t-75.5 -590l49 2q70 4 99 4q45 0 79 -6q55 -10 89 -42t34 -79q0 -27 -16 -64q-49 23 -102.5 32t-135.5 9q-63 0 -139 -8t-143 -18q-63 -10 -129 -17.5t-121 -7.5q-61 0 -99 26.5t-38 69.5zM0 0zM461 1645q0 90 42 120.5t106 30.5q45 0 64.5 -26.5 t19.5 -65.5q0 -35 -19.5 -74t-53.5 -66.5t-73 -27.5q-43 0 -64.5 28.5t-21.5 80.5zM850 1647q0 88 44 126.5t106 38.5q41 0 61.5 -28.5t20.5 -65.5q0 -55 -43 -108.5t-115 -53.5q-31 0 -52.5 26t-21.5 65z" />
<glyph unicode="&#xd0;" horiz-adv-x="1361" d="M43 684q0 20 2 31q145 18 285 45l24 4q74 272 158 489q-76 -6 -127 -17t-111 -28q-43 -14 -55 -14q-37 0 -37 23q0 53 72 96t179.5 66.5t205.5 23.5q342 0 527.5 -155.5t185.5 -450.5q0 -266 -140.5 -447.5t-397.5 -271.5t-607 -90q-86 0 -121 22.5t-35 79.5 q0 20 31 29.5t106 7.5l43 -2q39 270 88 491q-119 -25 -176 -24q-100 0 -100 92zM401 129q349 27 564 184.5t215 440.5q0 240 -146.5 366.5t-392.5 136.5q-76 -250 -123 -466q164 25 240 24q145 0 145 -96q0 -20 -10 -55l-4 -2q-12 4 -37 8q-47 8 -107 8q-100 0 -256 -27 q-49 -252 -88 -522z" />
<glyph unicode="&#xd1;" horiz-adv-x="1382" d="M-2 41q0 23 19.5 70t45.5 100q43 80 78 166q123 287 189 600q33 156 53 237.5t55 149.5t80 68q63 0 140 -190.5t145.5 -483.5t107.5 -580q61 109 101.5 243t81.5 339q23 109 34 202t29 285l14 154q23 23 54.5 38t54.5 15q47 0 47 -80q0 -135 -33.5 -340t-81 -399.5 t-86.5 -298.5q-119 -324 -288 -324q-45 0 -66 19q-55 412 -104.5 633t-153.5 483q-76 -326 -135.5 -533.5t-128.5 -412.5q-78 -231 -180 -232q-72 0 -72 72zM0 0zM584 1618q0 76 55 124t131 48q49 0 89 -20.5t85 -55.5q39 -29 58.5 -40t41.5 -11q53 0 81 36t30 95 q63 -18 63 -90q0 -66 -33.5 -102.5t-75.5 -50t-71 -13.5q-45 0 -77.5 16.5t-75.5 49.5q-41 29 -63.5 41t-51.5 12q-41 0 -72 -33t-47 -92q-67 16 -67 86z" />
<glyph unicode="&#xd2;" horiz-adv-x="1230" d="M90 2zM90 467q0 256 98.5 489.5t273.5 378t396 144.5q160 0 253 -127t93 -326q0 -215 -103.5 -455.5t-281.5 -404.5t-391 -164q-178 0 -258 140.5t-80 324.5zM276 459q0 -160 43 -237t132 -77q139 0 279 132.5t231.5 335t91.5 397.5q0 131 -53.5 214t-161.5 83 q-170 0 -298 -134.5t-196 -333t-68 -380.5zM555 1833q0 39 32.5 66.5t82.5 31.5q59 -98 143 -163t211 -97q2 -23 -25.5 -43.5t-75.5 -20.5q-65 0 -154 33t-151.5 85t-62.5 108z" />
<glyph unicode="&#xd3;" horiz-adv-x="1230" d="M90 2zM90 467q0 256 98.5 489.5t273.5 378t396 144.5q160 0 253 -127t93 -326q0 -215 -103.5 -455.5t-281.5 -404.5t-391 -164q-178 0 -258 140.5t-80 324.5zM276 459q0 -160 43 -237t132 -77q139 0 279 132.5t231.5 335t91.5 397.5q0 131 -53.5 214t-161.5 83 q-170 0 -298 -134.5t-196 -333t-68 -380.5zM688 1665q127 37 206.5 93t165.5 152q45 -8 78 -35.5t33 -60.5q0 -8 -4 -20q-14 -49 -81 -91.5t-154 -66t-158 -23.5q-39 0 -56 4q-18 5 -26 18t-4 30z" />
<glyph unicode="&#xd4;" horiz-adv-x="1230" d="M90 2zM90 467q0 256 98.5 489.5t273.5 378t396 144.5q160 0 253 -127t93 -326q0 -215 -103.5 -455.5t-281.5 -404.5t-391 -164q-178 0 -258 140.5t-80 324.5zM276 459q0 -160 43 -237t132 -77q139 0 279 132.5t231.5 335t91.5 397.5q0 131 -53.5 214t-161.5 83 q-170 0 -298 -134.5t-196 -333t-68 -380.5zM526 1622q0 6 9.5 13t17.5 13t12 8q92 49 186.5 123t143.5 133q12 16 33 17q18 0 28 -17q35 -61 110 -151t142 -146q-23 -43 -63 -43q-57 -2 -124 52.5t-120 126.5q-49 -47 -114.5 -85t-131.5 -61q-51 -14 -80 -14q-23 0 -30 8 q-18 16 -19 23z" />
<glyph unicode="&#xd5;" horiz-adv-x="1230" d="M90 2zM90 467q0 256 98.5 489.5t273.5 378t396 144.5q160 0 253 -127t93 -326q0 -215 -103.5 -455.5t-281.5 -404.5t-391 -164q-178 0 -258 140.5t-80 324.5zM276 459q0 -160 43 -237t132 -77q139 0 279 132.5t231.5 335t91.5 397.5q0 131 -53.5 214t-161.5 83 q-170 0 -298 -134.5t-196 -333t-68 -380.5zM547 1679q0 76 55 124t131 48q49 0 89 -20.5t85 -55.5q39 -29 58.5 -40t41.5 -11q53 0 81 36t30 95q63 -18 63 -90q0 -66 -33.5 -102.5t-75.5 -50t-71 -13.5q-45 0 -77.5 16.5t-75.5 49.5q-41 29 -63.5 41t-51.5 12q-41 0 -72 -33 t-47 -92q-67 16 -67 86z" />
<glyph unicode="&#xd6;" horiz-adv-x="1230" d="M90 2zM90 467q0 256 98.5 489.5t273.5 378t396 144.5q160 0 253 -127t93 -326q0 -215 -103.5 -455.5t-281.5 -404.5t-391 -164q-178 0 -258 140.5t-80 324.5zM276 459q0 -160 43 -237t132 -77q139 0 279 132.5t231.5 335t91.5 397.5q0 131 -53.5 214t-161.5 83 q-170 0 -298 -134.5t-196 -333t-68 -380.5zM557 1706q0 90 42 120.5t106 30.5q45 0 64.5 -26.5t19.5 -65.5q0 -35 -19.5 -74t-53.5 -66.5t-73 -27.5q-43 0 -64.5 28.5t-21.5 80.5zM946 1708q0 88 44 126.5t106 38.5q41 0 61.5 -28.5t20.5 -65.5q0 -55 -43 -108.5t-115 -53.5 q-31 0 -52.5 26t-21.5 65z" />
<glyph unicode="&#xd7;" d="M217 354q0 35 68 95l57 47q74 61 107 90q10 10 43.5 43t45 54.5t11.5 41.5q0 49 -53.5 103.5t-135.5 91.5q-53 25 -70.5 44t-17.5 52q0 23 22.5 50.5t63.5 33.5q61 -23 112.5 -71t117.5 -128q43 -53 63.5 -74.5t38.5 -21.5t47 27.5t84 91.5q78 90 134.5 140t103.5 50 q27 0 53.5 -24.5t26.5 -57.5q-106 -63 -224 -162q-70 -57 -94 -94t-24 -69q0 -29 24.5 -57.5t85.5 -80.5q43 -35 92 -80q10 -8 30 -25.5t27 -28.5t7 -23q0 -33 -35 -65t-72 -32q-31 0 -53 25t-57 80q-31 49 -58 86q-70 92 -110 92q-31 0 -67 -29.5t-91 -89.5 q-72 -78 -127 -121t-114 -43q-27 0 -44.5 12.5t-17.5 26.5z" />
<glyph unicode="&#xd8;" horiz-adv-x="1183" d="M-70 -121q0 10 4 17q33 61 189 282q-59 121 -60 289q0 256 98.5 489.5t273.5 378t396 144.5q141 0 236 -101q117 133 174 174q27 6 56.5 -14t33.5 -49q-94 -82 -203 -203q49 -100 50 -239q0 -219 -103.5 -465t-282 -413t-391.5 -167q-129 0 -211 82q-37 -47 -100 -139 l-59 -80q-14 -20 -49 -21q-20 0 -36 9.5t-16 25.5zM240 459q0 -68 8 -111q172 231 365.5 479t347.5 430q-57 70 -150 70q-172 0 -302 -128t-199.5 -329.5t-69.5 -410.5zM287 219q49 -78 137 -78q139 0 279.5 136.5t231.5 344t91 408.5q0 68 -14 123q-285 -332 -725 -934z " />
<glyph unicode="&#xd9;" horiz-adv-x="1269" d="M141 0zM141 406q0 127 37 315t96.5 372.5t122.5 299.5q23 10 49 10q78 0 78 -105q2 -35 -9 -75.5t-40 -124.5l-35 -105q-39 -106 -73.5 -268t-34.5 -285q0 -145 51 -225t149 -80q164 0 269.5 149.5t166 378t117.5 572.5q4 20 15.5 97t41 100.5t87.5 25.5q35 0 51 -16 q-70 -475 -157 -787.5t-237.5 -499t-385.5 -186.5q-174 0 -266.5 112t-92.5 325zM535 1772q0 39 32.5 66.5t82.5 31.5q59 -98 143 -163t211 -97q2 -23 -25.5 -43.5t-75.5 -20.5q-65 0 -154 33t-151.5 85t-62.5 108z" />
<glyph unicode="&#xda;" horiz-adv-x="1269" d="M141 0zM141 406q0 127 37 315t96.5 372.5t122.5 299.5q23 10 49 10q78 0 78 -105q2 -35 -9 -75.5t-40 -124.5l-35 -105q-39 -106 -73.5 -268t-34.5 -285q0 -145 51 -225t149 -80q164 0 269.5 149.5t166 378t117.5 572.5q4 20 15.5 97t41 100.5t87.5 25.5q35 0 51 -16 q-70 -475 -157 -787.5t-237.5 -499t-385.5 -186.5q-174 0 -266.5 112t-92.5 325zM668 1604q127 37 206.5 93t165.5 152q45 -8 78 -35.5t33 -60.5q0 -8 -4 -20q-14 -49 -81 -91.5t-154 -66t-158 -23.5q-39 0 -56 4q-18 5 -26 18t-4 30z" />
<glyph unicode="&#xdb;" horiz-adv-x="1269" d="M141 0zM141 406q0 127 37 315t96.5 372.5t122.5 299.5q23 10 49 10q78 0 78 -105q2 -35 -9 -75.5t-40 -124.5l-35 -105q-39 -106 -73.5 -268t-34.5 -285q0 -145 51 -225t149 -80q164 0 269.5 149.5t166 378t117.5 572.5q4 20 15.5 97t41 100.5t87.5 25.5q35 0 51 -16 q-70 -475 -157 -787.5t-237.5 -499t-385.5 -186.5q-174 0 -266.5 112t-92.5 325zM506 1561q0 6 9.5 13t17.5 13t12 8q92 49 186.5 123t143.5 133q12 16 33 17q18 0 28 -17q35 -61 110 -151t142 -146q-23 -43 -63 -43q-57 -2 -124 52.5t-120 126.5q-49 -47 -114.5 -85 t-131.5 -61q-51 -14 -80 -14q-23 0 -30 8q-18 16 -19 23z" />
<glyph unicode="&#xdc;" horiz-adv-x="1269" d="M141 0zM141 406q0 127 37 315t96.5 372.5t122.5 299.5q23 10 49 10q78 0 78 -105q2 -35 -9 -75.5t-40 -124.5l-35 -105q-39 -106 -73.5 -268t-34.5 -285q0 -145 51 -225t149 -80q164 0 269.5 149.5t166 378t117.5 572.5q4 20 15.5 97t41 100.5t87.5 25.5q35 0 51 -16 q-70 -475 -157 -787.5t-237.5 -499t-385.5 -186.5q-174 0 -266.5 112t-92.5 325zM536 1645q0 90 42 120.5t106 30.5q45 0 64.5 -26.5t19.5 -65.5q0 -35 -19.5 -74t-53.5 -66.5t-73 -27.5q-43 0 -64.5 28.5t-21.5 80.5zM925 1647q0 88 44 126.5t106 38.5q41 0 61.5 -28.5 t20.5 -65.5q0 -55 -43 -108.5t-115 -53.5q-31 0 -52.5 26t-21.5 65z" />
<glyph unicode="&#xdd;" horiz-adv-x="1198" d="M94 0zM94 139q0 47 25.5 69.5t66.5 22.5q23 0 43.5 -12t49.5 -37q49 -41 96 -63.5t123 -22.5q133 0 229 132t156.5 322.5t113.5 442.5q-133 -276 -257 -377.5t-248 -101.5q-125 0 -199 103.5t-74 285.5q0 125 32 253t81 226q33 68 75 96.5t78 28.5q53 0 76 -34 q-80 -115 -119 -264.5t-39 -278.5q0 -279 129 -279q94 0 192.5 111.5t179.5 264.5t128 284l35 98q10 29 31.5 43t48.5 14q41 0 65.5 -25.5t16.5 -62.5l-127 -567q-61 -274 -128 -449.5t-196 -289t-344 -113.5q-82 0 -160.5 25.5t-129 67.5t-50.5 87zM688 1686 q127 37 206.5 93t165.5 152q45 -8 78 -35.5t33 -60.5q0 -8 -4 -20q-14 -49 -81 -91.5t-154 -66t-158 -23.5q-39 0 -56 4q-18 5 -26 18t-4 30z" />
<glyph unicode="&#xde;" horiz-adv-x="1083" d="M66 -8q0 104 109.5 604t186.5 811q25 25 59 39t71 14q41 0 65 -16q-43 -131 -78 -256q25 2 68 2q221 0 376.5 -95.5t155.5 -306.5q0 -145 -88 -259.5t-233.5 -178t-304.5 -63.5q-92 0 -168 20l-64 -334q-6 -33 -16 -47t-43 -14q-35 0 -65.5 21.5t-30.5 58.5zM309 436 q63 -20 144 -20q112 0 215.5 39t170 114.5t66.5 180.5q0 147 -103.5 226t-264.5 79q-25 0 -95 -4q-63 -260 -133 -615z" />
<glyph unicode="&#xdf;" horiz-adv-x="1071" d="M-43 -213q0 53 19.5 178t43.5 248q158 719 297 1020q61 121 149.5 199.5t229.5 78.5q119 0 194 -56t75 -179q0 -104 -54.5 -191.5t-146.5 -185.5q-47 -51 -68.5 -79.5t-21.5 -51.5q0 -41 28.5 -68.5t90.5 -68.5q57 -39 94 -70t63.5 -81t26.5 -120q0 -94 -45 -172.5 t-131 -126t-205 -47.5q-80 0 -146.5 28t-103.5 68t-37 72q0 31 21.5 50.5t42.5 19.5q18 0 35.5 -9.5t46.5 -29.5q41 -29 72.5 -44t80.5 -15q96 0 156.5 55t60.5 135q0 66 -37.5 104.5t-113.5 83.5t-115 84t-39 103q0 61 32 110.5t97 120.5q76 82 114 143.5t38 143.5 q0 59 -37 96t-92 37q-72 0 -123 -44t-74.5 -87t-48.5 -98q-104 -238 -240 -897q-45 -250 -73 -547q-41 -21 -74 -21q-43 0 -62.5 33t-19.5 78z" />
<glyph unicode="&#xe0;" horiz-adv-x="1130" d="M-2 225q0 188 106.5 374.5t265 305.5t302.5 119q121 0 108 -111q-35 6 -59 7q-23 0 -64 -9q-121 -25 -228 -126t-171.5 -234t-64.5 -246q0 -160 98 -160q145 0 276 185.5t219 414.5q45 115 81 183.5t77 68.5q31 0 51.5 -21.5t20.5 -51.5q0 -23 -8 -39q-70 -156 -120 -332 t-50 -277q-4 -90 43 -90q18 0 46.5 14.5t39.5 14.5q25 0 24 -45q0 -37 -27.5 -74t-72.5 -60.5t-96 -23.5q-59 0 -92 45t-33 138q0 41 14 131q-84 -145 -206 -233.5t-263 -88.5q-98 0 -157.5 62.5t-59.5 158.5zM0 4zM409 1464q0 41 38 68t91 22q45 -106 119 -181t195 -126 q0 -18 -22.5 -33.5t-59.5 -15.5q-60 0 -147 42t-150.5 103.5t-63.5 120.5z" />
<glyph unicode="&#xe1;" horiz-adv-x="1130" d="M-2 225q0 188 106.5 374.5t265 305.5t302.5 119q121 0 108 -111q-35 6 -59 7q-23 0 -64 -9q-121 -25 -228 -126t-171.5 -234t-64.5 -246q0 -160 98 -160q145 0 276 185.5t219 414.5q45 115 81 183.5t77 68.5q31 0 51.5 -21.5t20.5 -51.5q0 -23 -8 -39q-70 -156 -120 -332 t-50 -277q-4 -90 43 -90q18 0 46.5 14.5t39.5 14.5q25 0 24 -45q0 -37 -27.5 -74t-72.5 -60.5t-96 -23.5q-59 0 -92 45t-33 138q0 41 14 131q-84 -145 -206 -233.5t-263 -88.5q-98 0 -157.5 62.5t-59.5 158.5zM0 4zM569 1237q117 63 182.5 134t131.5 183q51 4 90 -20.5 t39 -63.5q0 -59 -71 -122.5t-167 -106.5t-164 -43q-18 0 -29.5 11.5t-11.5 27.5z" />
<glyph unicode="&#xe2;" horiz-adv-x="1130" d="M-2 225q0 188 106.5 374.5t265 305.5t302.5 119q121 0 108 -111q-35 6 -59 7q-23 0 -64 -9q-121 -25 -228 -126t-171.5 -234t-64.5 -246q0 -160 98 -160q145 0 276 185.5t219 414.5q45 115 81 183.5t77 68.5q31 0 51.5 -21.5t20.5 -51.5q0 -23 -8 -39q-70 -156 -120 -332 t-50 -277q-4 -90 43 -90q18 0 46.5 14.5t39.5 14.5q25 0 24 -45q0 -37 -27.5 -74t-72.5 -60.5t-96 -23.5q-59 0 -92 45t-33 138q0 41 14 131q-84 -145 -206 -233.5t-263 -88.5q-98 0 -157.5 62.5t-59.5 158.5zM0 4zM412 1217q0 14 39 40q88 47 179 124t144 143q12 16 35 16 q8 0 16.5 -4t10.5 -12q47 -72 120.5 -169.5t124.5 -146.5q-23 -43 -63 -43q-57 -2 -120.5 58.5t-117.5 140.5q-55 -55 -118.5 -100t-120.5 -66q-57 -16 -82 -16q-18 0 -29 10q-18 12 -18 25z" />
<glyph unicode="&#xe3;" horiz-adv-x="1130" d="M-2 225q0 188 106.5 374.5t265 305.5t302.5 119q121 0 108 -111q-35 6 -59 7q-23 0 -64 -9q-121 -25 -228 -126t-171.5 -234t-64.5 -246q0 -160 98 -160q145 0 276 185.5t219 414.5q45 115 81 183.5t77 68.5q31 0 51.5 -21.5t20.5 -51.5q0 -23 -8 -39q-70 -156 -120 -332 t-50 -277q-4 -90 43 -90q18 0 46.5 14.5t39.5 14.5q25 0 24 -45q0 -37 -27.5 -74t-72.5 -60.5t-96 -23.5q-59 0 -92 45t-33 138q0 41 14 131q-84 -145 -206 -233.5t-263 -88.5q-98 0 -157.5 62.5t-59.5 158.5zM0 4zM392 1292q0 76 55 124t131 48q49 0 89 -20.5t85 -54.5 q39 -29 58.5 -40.5t41.5 -11.5q53 0 81 36t30 95q63 -18 63 -90q0 -66 -33.5 -102.5t-75.5 -50t-71 -13.5q-45 0 -77.5 16.5t-75.5 49.5q-39 29 -62.5 41t-52.5 12q-41 0 -71.5 -32.5t-47.5 -92.5q-67 16 -67 86z" />
<glyph unicode="&#xe4;" horiz-adv-x="1130" d="M-2 225q0 188 106.5 374.5t265 305.5t302.5 119q121 0 108 -111q-35 6 -59 7q-23 0 -64 -9q-121 -25 -228 -126t-171.5 -234t-64.5 -246q0 -160 98 -160q145 0 276 185.5t219 414.5q45 115 81 183.5t77 68.5q31 0 51.5 -21.5t20.5 -51.5q0 -23 -8 -39q-70 -156 -120 -332 t-50 -277q-4 -90 43 -90q18 0 46.5 14.5t39.5 14.5q25 0 24 -45q0 -37 -27.5 -74t-72.5 -60.5t-96 -23.5q-59 0 -92 45t-33 138q0 41 14 131q-84 -145 -206 -233.5t-263 -88.5q-98 0 -157.5 62.5t-59.5 158.5zM0 4zM457 1307q0 90 42 120.5t105 30.5q45 0 64.5 -26.5 t19.5 -65.5q0 -35 -19.5 -74t-53 -66.5t-72.5 -27.5q-43 0 -64.5 28.5t-21.5 80.5zM846 1309q0 88 44 127t105 39q41 0 61.5 -29t20.5 -66q0 -55 -43 -108t-115 -53q-30 0 -51.5 25.5t-21.5 64.5z" />
<glyph unicode="&#xe5;" horiz-adv-x="1130" d="M-2 225q0 188 106.5 374.5t265 305.5t302.5 119q121 0 108 -111q-35 6 -59 7q-23 0 -64 -9q-121 -25 -228 -126t-171.5 -234t-64.5 -246q0 -160 98 -160q145 0 276 185.5t219 414.5q45 115 81 183.5t77 68.5q31 0 51.5 -21.5t20.5 -51.5q0 -23 -8 -39q-70 -156 -120 -332 t-50 -277q-4 -90 43 -90q18 0 46.5 14.5t39.5 14.5q25 0 24 -45q0 -37 -27.5 -74t-72.5 -60.5t-96 -23.5q-59 0 -92 45t-33 138q0 41 14 131q-84 -145 -206 -233.5t-263 -88.5q-98 0 -157.5 62.5t-59.5 158.5zM0 4zM504 1315q0 76 45 146.5t123 114.5t172 44q68 0 111 -38 t43 -103q0 -78 -52.5 -150t-134.5 -116t-168 -44q-59 0 -99 37t-40 109zM619 1346q0 -33 20.5 -54.5t52.5 -21.5q52 0 96 28.5t70.5 69.5t26.5 78q0 39 -22.5 57.5t-51.5 18.5q-82 0 -137 -54.5t-55 -121.5z" />
<glyph unicode="&#xe6;" horiz-adv-x="1660" d="M-2 225q0 188 106.5 374.5t265 305.5t302.5 119q121 0 108 -111q-35 6 -59 7q-23 0 -64 -9q-121 -25 -228 -126t-171.5 -234t-64.5 -246q0 -82 26.5 -121t71.5 -39q133 0 271 189.5t235 410.5q25 57 32 84q41 104 73 162t63 58q29 0 46 -18.5t17 -53.5q0 -20 -6 -45 q158 102 326 102q106 0 168.5 -55t62.5 -141q0 -123 -92 -223.5t-242.5 -159t-314.5 -58.5q-39 0 -60 2v-37q0 -100 67 -160.5t155 -60.5q117 0 213 52.5t192 168.5q19 -4 28 -20t5 -41q-12 -68 -83 -138.5t-185.5 -116.5t-249.5 -46q-70 0 -142.5 30.5t-124 106.5 t-51.5 203v4q-84 -150 -214 -245t-265 -95q-98 0 -157.5 62.5t-59.5 158.5zM883 494q141 -6 261 44t189.5 127.5t69.5 149.5q0 98 -96 98q-95 0 -183 -53t-152.5 -148.5t-88.5 -217.5z" />
<glyph unicode="&#xe7;" horiz-adv-x="897" d="M-6 313q0 199 109.5 361t269 254t301.5 92q98 0 143 -36t45 -95q0 -78 -80 -111q-47 78 -161 78q-105 0 -212.5 -63.5t-179 -178t-71.5 -262.5q0 -109 50 -166t140 -57q104 0 217 62.5t183 185.5q43 -2 43 -60q0 -86 -56.5 -154.5t-149.5 -111.5t-200 -55l-45 -105 q12 2 35 3q78 0 123 -42t45 -112q0 -115 -90.5 -177.5t-225.5 -62.5q-45 0 -74.5 10.5t-29.5 26.5q0 14 7 32.5t24 29.5q16 -2 59 -2q86 0 146.5 25.5t60.5 88.5q0 29 -23.5 44.5t-64.5 15.5q-51 0 -107 -15q-18 -6 -26.5 5.5t-8.5 29.5q0 12 5 25l73 178q-143 12 -208.5 98 t-65.5 221z" />
<glyph unicode="&#xe8;" horiz-adv-x="991" d="M4 0zM4 340q0 190 98.5 350t255 252t320.5 92q106 0 168.5 -55t62.5 -141q0 -123 -92 -223.5t-242.5 -159t-314.5 -58.5q-39 0 -59 2v-37q0 -100 66.5 -160.5t154.5 -60.5q117 0 213 52.5t192 168.5q19 -4 28 -20t5 -41q-12 -68 -82.5 -138.5t-185.5 -116.5t-250 -46 q-76 0 -152.5 30.5t-131 106.5t-54.5 203zM213 494q141 -6 261 44t189.5 127.5t69.5 149.5q0 98 -96 98q-94 0 -182 -53t-152.5 -148.5t-89.5 -217.5zM297 1464q0 41 38 68t91 22q45 -106 119 -181t195 -126q0 -18 -22.5 -33.5t-59.5 -15.5q-60 0 -147 42t-150.5 103.5 t-63.5 120.5z" />
<glyph unicode="&#xe9;" horiz-adv-x="991" d="M4 0zM4 340q0 190 98.5 350t255 252t320.5 92q106 0 168.5 -55t62.5 -141q0 -123 -92 -223.5t-242.5 -159t-314.5 -58.5q-39 0 -59 2v-37q0 -100 66.5 -160.5t154.5 -60.5q117 0 213 52.5t192 168.5q19 -4 28 -20t5 -41q-12 -68 -82.5 -138.5t-185.5 -116.5t-250 -46 q-76 0 -152.5 30.5t-131 106.5t-54.5 203zM213 494q141 -6 261 44t189.5 127.5t69.5 149.5q0 98 -96 98q-94 0 -182 -53t-152.5 -148.5t-89.5 -217.5zM456 1237q117 63 182.5 134t131.5 183q51 4 90 -20.5t39 -63.5q0 -59 -71 -122.5t-167 -106.5t-164 -43q-18 0 -29.5 11.5 t-11.5 27.5z" />
<glyph unicode="&#xea;" horiz-adv-x="991" d="M4 0zM4 340q0 190 98.5 350t255 252t320.5 92q106 0 168.5 -55t62.5 -141q0 -123 -92 -223.5t-242.5 -159t-314.5 -58.5q-39 0 -59 2v-37q0 -100 66.5 -160.5t154.5 -60.5q117 0 213 52.5t192 168.5q19 -4 28 -20t5 -41q-12 -68 -82.5 -138.5t-185.5 -116.5t-250 -46 q-76 0 -152.5 30.5t-131 106.5t-54.5 203zM213 494q141 -6 261 44t189.5 127.5t69.5 149.5q0 98 -96 98q-94 0 -182 -53t-152.5 -148.5t-89.5 -217.5zM299 1217q0 14 39 40q88 47 179 124t144 143q12 16 35 16q8 0 16.5 -4t10.5 -12q47 -72 120.5 -169.5t124.5 -146.5 q-23 -43 -63 -43q-57 -2 -120.5 58.5t-117.5 140.5q-55 -55 -118.5 -100t-120.5 -66q-57 -16 -82 -16q-18 0 -29 10q-18 12 -18 25z" />
<glyph unicode="&#xeb;" horiz-adv-x="991" d="M4 0zM4 340q0 190 98.5 350t255 252t320.5 92q106 0 168.5 -55t62.5 -141q0 -123 -92 -223.5t-242.5 -159t-314.5 -58.5q-39 0 -59 2v-37q0 -100 66.5 -160.5t154.5 -60.5q117 0 213 52.5t192 168.5q19 -4 28 -20t5 -41q-12 -68 -82.5 -138.5t-185.5 -116.5t-250 -46 q-76 0 -152.5 30.5t-131 106.5t-54.5 203zM213 494q141 -6 261 44t189.5 127.5t69.5 149.5q0 98 -96 98q-94 0 -182 -53t-152.5 -148.5t-89.5 -217.5zM344 1307q0 90 42 120.5t105 30.5q45 0 64.5 -26.5t19.5 -65.5q0 -35 -19.5 -74t-53 -66.5t-72.5 -27.5q-43 0 -64.5 28.5 t-21.5 80.5zM733 1309q0 88 44 127t105 39q41 0 61.5 -29t20.5 -66q0 -55 -43 -108t-115 -53q-30 0 -51.5 25.5t-21.5 64.5z" />
<glyph unicode="&#xec;" horiz-adv-x="487" d="M51 31zM51 121q0 70 78 402.5t107 404.5q14 37 40.5 58.5t59.5 21.5t45 -16.5t12 -47.5q0 -43 -13 -100.5t-40 -143.5q-29 -104 -45 -168.5t-23 -130.5q-14 -123 -18 -196l-8 -80q-4 -45 -36 -69.5t-85 -24.5q-74 0 -74 90zM63 1464q0 41 38 68t91 22q45 -106 119 -181 t195 -126q0 -18 -22.5 -33.5t-59.5 -15.5q-60 0 -147 42t-150.5 103.5t-63.5 120.5z" />
<glyph unicode="&#xed;" horiz-adv-x="487" d="M51 31zM51 121q0 70 78 402.5t107 404.5q14 37 40.5 58.5t59.5 21.5t45 -16.5t12 -47.5q0 -43 -13 -100.5t-40 -143.5q-29 -104 -45 -168.5t-23 -130.5q-14 -123 -18 -196l-8 -80q-4 -45 -36 -69.5t-85 -24.5q-74 0 -74 90zM223 1237q117 63 182.5 134t131.5 183 q51 4 90 -20.5t39 -63.5q0 -59 -71 -122.5t-167 -106.5t-164 -43q-18 0 -29.5 11.5t-11.5 27.5z" />
<glyph unicode="&#xee;" horiz-adv-x="487" d="M51 31zM51 121q0 70 78 402.5t107 404.5q14 37 40.5 58.5t59.5 21.5t45 -16.5t12 -47.5q0 -43 -13 -100.5t-40 -143.5q-29 -104 -45 -168.5t-23 -130.5q-14 -123 -18 -196l-8 -80q-4 -45 -36 -69.5t-85 -24.5q-74 0 -74 90zM66 1217q0 14 39 40q88 47 179 124t144 143 q12 16 35 16q8 0 16.5 -4t10.5 -12q47 -72 120.5 -169.5t124.5 -146.5q-23 -43 -63 -43q-57 -2 -120.5 58.5t-117.5 140.5q-55 -55 -118.5 -100t-120.5 -66q-57 -16 -82 -16q-18 0 -29 10q-18 12 -18 25z" />
<glyph unicode="&#xef;" horiz-adv-x="487" d="M51 31zM51 121q0 70 78 402.5t107 404.5q14 37 40.5 58.5t59.5 21.5t45 -16.5t12 -47.5q0 -43 -13 -100.5t-40 -143.5q-29 -104 -45 -168.5t-23 -130.5q-14 -123 -18 -196l-8 -80q-4 -45 -36 -69.5t-85 -24.5q-74 0 -74 90zM111 1307q0 90 42 120.5t105 30.5 q45 0 64.5 -26.5t19.5 -65.5q0 -35 -19.5 -74t-53 -66.5t-72.5 -27.5q-43 0 -64.5 28.5t-21.5 80.5zM500 1309q0 88 44 127t105 39q41 0 61.5 -29t20.5 -66q0 -55 -43 -108t-115 -53q-30 0 -51.5 25.5t-21.5 64.5z" />
<glyph unicode="&#xf0;" horiz-adv-x="1038" d="M2 324q0 166 80 318.5t215 245.5t293 93q74 0 129 -28.5t86 -82.5q2 31 2 88q0 215 -80 326l-22 -10q-66 -27 -170 -88q-104 -55 -123 -62q-27 -4 -38.5 5.5t-27.5 35.5q-14 25 81 83.5t216 115.5q-86 51 -215 51q-82 0 -156 -18q-18 -4 -27 7t-9 30q0 18 6 26 q35 76 200 76q213 0 340 -121q160 49 234 49q88 0 86 -75q-113 -10 -254 -58q100 -164 100 -432q0 -33 -4 -106q-16 -225 -98 -400.5t-225.5 -276t-337.5 -100.5q-131 0 -206 83t-75 225zM168 332q0 -88 41 -136.5t110 -48.5q115 0 221.5 82t172 204t67.5 229q0 98 -47 143 t-127 45q-127 0 -227 -87t-155.5 -210t-55.5 -221z" />
<glyph unicode="&#xf1;" horiz-adv-x="1148" d="M61 0zM61 176q0 96 23 266q16 106 56 241.5t104.5 238t144.5 102.5q12 0 26.5 -5t18.5 -13q-78 -180 -116.5 -313.5t-65.5 -291.5q84 135 215 289t256 257.5t197 103.5q41 0 54 -29t13 -80q0 -39 -33 -194q-39 -201 -51 -289q-18 -125 -18 -199q0 -102 41 -102q8 0 20 2 t29 2q29 0 29 -31q0 -39 -27 -77t-66 -58q-33 -14 -53 -14q-76 0 -110.5 63.5t-34.5 185.5q0 68 14 193q12 109 28.5 187.5t18.5 90.5q14 68 14 84q0 10 -2 14.5t-10 4.5q-45 0 -148.5 -99.5t-197.5 -230.5q-100 -141 -150.5 -240.5t-107.5 -244.5q-59 -4 -85 41t-26 145z M326 1292q0 76 55 124t131 48q49 0 89 -20.5t85 -54.5q39 -29 58.5 -40.5t41.5 -11.5q53 0 81 36t30 95q63 -18 63 -90q0 -66 -33.5 -102.5t-75.5 -50t-71 -13.5q-45 0 -77.5 16.5t-75.5 49.5q-39 29 -62.5 41t-52.5 12q-41 0 -71.5 -32.5t-47.5 -92.5q-67 16 -67 86z" />
<glyph unicode="&#xf2;" horiz-adv-x="997" d="M12 16zM12 324q0 176 83 344t223.5 272t302.5 104q143 0 226 -89t83 -244q0 -164 -88 -326t-235.5 -265.5t-313.5 -103.5q-131 0 -206 83t-75 225zM193 332q0 -184 137 -185q116 0 222.5 87.5t172.5 215.5t66 238q0 88 -44.5 145.5t-130.5 57.5q-127 0 -223 -93 t-148 -225.5t-52 -240.5zM327 1464q0 41 38 68t91 22q45 -106 119 -181t195 -126q0 -18 -22.5 -33.5t-59.5 -15.5q-60 0 -147 42t-150.5 103.5t-63.5 120.5z" />
<glyph unicode="&#xf3;" horiz-adv-x="997" d="M12 16zM12 324q0 176 83 344t223.5 272t302.5 104q143 0 226 -89t83 -244q0 -164 -88 -326t-235.5 -265.5t-313.5 -103.5q-131 0 -206 83t-75 225zM193 332q0 -184 137 -185q116 0 222.5 87.5t172.5 215.5t66 238q0 88 -44.5 145.5t-130.5 57.5q-127 0 -223 -93 t-148 -225.5t-52 -240.5zM487 1237q117 63 182.5 134t131.5 183q51 4 90 -20.5t39 -63.5q0 -59 -71 -122.5t-167 -106.5t-164 -43q-18 0 -29.5 11.5t-11.5 27.5z" />
<glyph unicode="&#xf4;" horiz-adv-x="997" d="M12 16zM12 324q0 176 83 344t223.5 272t302.5 104q143 0 226 -89t83 -244q0 -164 -88 -326t-235.5 -265.5t-313.5 -103.5q-131 0 -206 83t-75 225zM193 332q0 -184 137 -185q116 0 222.5 87.5t172.5 215.5t66 238q0 88 -44.5 145.5t-130.5 57.5q-127 0 -223 -93 t-148 -225.5t-52 -240.5zM330 1217q0 14 39 40q88 47 179 124t144 143q12 16 35 16q8 0 16.5 -4t10.5 -12q47 -72 120.5 -169.5t124.5 -146.5q-23 -43 -63 -43q-57 -2 -120.5 58.5t-117.5 140.5q-55 -55 -118.5 -100t-120.5 -66q-57 -16 -82 -16q-18 0 -29 10q-18 12 -18 25 z" />
<glyph unicode="&#xf5;" horiz-adv-x="997" d="M12 16zM12 324q0 176 83 344t223.5 272t302.5 104q143 0 226 -89t83 -244q0 -164 -88 -326t-235.5 -265.5t-313.5 -103.5q-131 0 -206 83t-75 225zM193 332q0 -184 137 -185q116 0 222.5 87.5t172.5 215.5t66 238q0 88 -44.5 145.5t-130.5 57.5q-127 0 -223 -93 t-148 -225.5t-52 -240.5zM310 1292q0 76 55 124t131 48q49 0 89 -20.5t85 -54.5q39 -29 58.5 -40.5t41.5 -11.5q53 0 81 36t30 95q63 -18 63 -90q0 -66 -33.5 -102.5t-75.5 -50t-71 -13.5q-45 0 -77.5 16.5t-75.5 49.5q-39 29 -62.5 41t-52.5 12q-41 0 -71.5 -32.5 t-47.5 -92.5q-67 16 -67 86z" />
<glyph unicode="&#xf6;" horiz-adv-x="997" d="M12 16zM12 324q0 176 83 344t223.5 272t302.5 104q143 0 226 -89t83 -244q0 -164 -88 -326t-235.5 -265.5t-313.5 -103.5q-131 0 -206 83t-75 225zM193 332q0 -184 137 -185q116 0 222.5 87.5t172.5 215.5t66 238q0 88 -44.5 145.5t-130.5 57.5q-127 0 -223 -93 t-148 -225.5t-52 -240.5zM375 1307q0 90 42 120.5t105 30.5q45 0 64.5 -26.5t19.5 -65.5q0 -35 -19.5 -74t-53 -66.5t-72.5 -27.5q-43 0 -64.5 28.5t-21.5 80.5zM764 1309q0 88 44 127t105 39q41 0 61.5 -29t20.5 -66q0 -55 -43 -108t-115 -53q-30 0 -51.5 25.5t-21.5 64.5z " />
<glyph unicode="&#xf7;" d="M188 659q0 53 22.5 68.5t44 18t28.5 2.5q72 8 168 8q61 0 155 -4q47 -2 115 -2q94 -8 125 -9q31 0 133 9q74 2 93.5 -13.5t19.5 -48.5q0 -37 -25 -55.5t-68 -18.5q-12 0 -45 4q-88 14 -190 15h-70q-242 0 -415 -31q-25 -4 -33 -4q-57 0 -58 61zM438 289q0 55 32 92t95 37 q49 0 79 -30t30 -79q0 -45 -24.5 -87t-86.5 -42q-57 0 -91 31t-34 78zM565 1065q0 55 32 92t95 37q49 0 79 -29.5t30 -79.5q0 -45 -24.5 -87t-86.5 -42q-57 0 -91 31t-34 78z" />
<glyph unicode="&#xf8;" horiz-adv-x="970" d="M-45 -117q0 8 6 21q35 66 131 200q-70 82 -69 220q0 176 82.5 344t223 272t302.5 104q109 0 184 -53q104 115 174 166q27 6 56.5 -14.5t33.5 -48.5q-79 -70 -190 -181q51 -84 51 -202q0 -164 -88 -326t-235.5 -265.5t-313.5 -103.5q-76 0 -135 31l-127 -174 q-14 -20 -43 -20q-18 0 -30.5 8t-12.5 22zM182 332q1 -49 13 -90q254 338 524 645q-37 25 -92 24q-133 0 -234.5 -93t-156 -229t-54.5 -257zM252 160q39 -23 88 -23q119 0 226.5 88t174 219t66.5 244q-1 68 -21 117q-236 -256 -534 -645z" />
<glyph unicode="&#xf9;" horiz-adv-x="1122" d="M66 23zM66 260q0 117 38.5 270.5t93 294t97.5 213.5q113 -6 113 -94q0 -35 -50 -158q-53 -139 -82.5 -243.5t-29.5 -206.5q0 -66 16.5 -106t48.5 -40q113 0 238 206t252 487l33 69q16 35 42.5 62.5t57.5 25.5q18 0 38.5 -19.5t34 -45t11.5 -37.5q-4 -25 -27 -88 q-39 -113 -63.5 -220.5t-30.5 -267.5q-2 -84 12.5 -145t53.5 -121q-14 -27 -43 -47t-58 -20q-70 0 -107.5 61.5t-37.5 181.5q0 106 35 275q-256 -524 -521 -524q-80 0 -122.5 60t-42.5 177zM352 1464q0 41 38 68t91 22q45 -106 119 -181t195 -126q0 -18 -22.5 -33.5 t-59.5 -15.5q-60 0 -147 42t-150.5 103.5t-63.5 120.5z" />
<glyph unicode="&#xfa;" horiz-adv-x="1122" d="M66 23zM66 260q0 117 38.5 270.5t93 294t97.5 213.5q113 -6 113 -94q0 -35 -50 -158q-53 -139 -82.5 -243.5t-29.5 -206.5q0 -66 16.5 -106t48.5 -40q113 0 238 206t252 487l33 69q16 35 42.5 62.5t57.5 25.5q18 0 38.5 -19.5t34 -45t11.5 -37.5q-4 -25 -27 -88 q-39 -113 -63.5 -220.5t-30.5 -267.5q-2 -84 12.5 -145t53.5 -121q-14 -27 -43 -47t-58 -20q-70 0 -107.5 61.5t-37.5 181.5q0 106 35 275q-256 -524 -521 -524q-80 0 -122.5 60t-42.5 177zM512 1237q117 63 182.5 134t131.5 183q51 4 90 -20.5t39 -63.5q0 -59 -71 -122.5 t-167 -106.5t-164 -43q-18 0 -29.5 11.5t-11.5 27.5z" />
<glyph unicode="&#xfb;" horiz-adv-x="1122" d="M66 23zM66 260q0 117 38.5 270.5t93 294t97.5 213.5q113 -6 113 -94q0 -35 -50 -158q-53 -139 -82.5 -243.5t-29.5 -206.5q0 -66 16.5 -106t48.5 -40q113 0 238 206t252 487l33 69q16 35 42.5 62.5t57.5 25.5q18 0 38.5 -19.5t34 -45t11.5 -37.5q-4 -25 -27 -88 q-39 -113 -63.5 -220.5t-30.5 -267.5q-2 -84 12.5 -145t53.5 -121q-14 -27 -43 -47t-58 -20q-70 0 -107.5 61.5t-37.5 181.5q0 106 35 275q-256 -524 -521 -524q-80 0 -122.5 60t-42.5 177zM355 1217q0 14 39 40q88 47 179 124t144 143q12 16 35 16q8 0 16.5 -4t10.5 -12 q47 -72 120.5 -169.5t124.5 -146.5q-23 -43 -63 -43q-57 -2 -120.5 58.5t-117.5 140.5q-55 -55 -118.5 -100t-120.5 -66q-57 -16 -82 -16q-18 0 -29 10q-18 12 -18 25z" />
<glyph unicode="&#xfc;" horiz-adv-x="1122" d="M66 23zM66 260q0 117 38.5 270.5t93 294t97.5 213.5q113 -6 113 -94q0 -35 -50 -158q-53 -139 -82.5 -243.5t-29.5 -206.5q0 -66 16.5 -106t48.5 -40q113 0 238 206t252 487l33 69q16 35 42.5 62.5t57.5 25.5q18 0 38.5 -19.5t34 -45t11.5 -37.5q-4 -25 -27 -88 q-39 -113 -63.5 -220.5t-30.5 -267.5q-2 -84 12.5 -145t53.5 -121q-14 -27 -43 -47t-58 -20q-70 0 -107.5 61.5t-37.5 181.5q0 106 35 275q-256 -524 -521 -524q-80 0 -122.5 60t-42.5 177zM400 1307q0 90 42 120.5t105 30.5q45 0 64.5 -26.5t19.5 -65.5q0 -35 -19.5 -74 t-53 -66.5t-72.5 -27.5q-43 0 -64.5 28.5t-21.5 80.5zM789 1309q0 88 44 127t105 39q41 0 61.5 -29t20.5 -66q0 -55 -43 -108t-115 -53q-30 0 -51.5 25.5t-21.5 64.5z" />
<glyph unicode="&#xfd;" horiz-adv-x="1163" d="M-111 -289q0 29 18.5 49.5t47.5 20.5q27 0 56.5 -10.5t76.5 -32.5q61 -29 112.5 -46.5t104.5 -17.5q152 0 250 102.5t154.5 266.5t101.5 403q-68 -121 -164 -225t-195.5 -165.5t-179.5 -61.5q-88 0 -132 84t-44 223q0 141 41 318.5t106.5 300t135.5 122.5q78 0 74 -65 q-2 -27 -25 -78q-70 -158 -119 -339t-49 -314q0 -102 49 -103q94 0 212 118t222.5 309.5t163.5 400.5q12 47 49 47q33 0 55.5 -49t22.5 -97q0 -74 -25.5 -232.5t-72.5 -360.5q-53 -233 -124 -392t-199 -257.5t-330 -98.5q-84 0 -176.5 23.5t-155 64.5t-62.5 92zM0 0z M542 1237q117 63 182.5 134t131.5 183q51 4 90 -20.5t39 -63.5q0 -59 -71 -122.5t-167 -106.5t-164 -43q-18 0 -29.5 11.5t-11.5 27.5z" />
<glyph unicode="&#xfe;" horiz-adv-x="1019" d="M-45 -428q0 45 20 168q39 233 138.5 746t132.5 661q27 121 59.5 224.5t79.5 133.5q33 20 59 21q51 0 52 -53q0 -72 -74 -345l-78 -292q70 74 173.5 121t203.5 47q235 0 235 -299q0 -197 -88 -358t-220 -252t-253 -91q-131 0 -200 82l-9 -51l-53 -330q-8 -51 -15 -92 t-14 -70q-6 -18 -37.5 -26.5t-60.5 -8.5q-51 0 -51 64zM229 279q25 -70 74 -112t115 -42q69 0 156.5 73.5t147.5 199.5t60 278q0 90 -25.5 142t-97.5 52q-90 0 -202.5 -71.5t-165.5 -167.5l-2 -4v2z" />
<glyph unicode="&#xff;" horiz-adv-x="1163" d="M-111 -289q0 29 18.5 49.5t47.5 20.5q27 0 56.5 -10.5t76.5 -32.5q61 -29 112.5 -46.5t104.5 -17.5q152 0 250 102.5t154.5 266.5t101.5 403q-68 -121 -164 -225t-195.5 -165.5t-179.5 -61.5q-88 0 -132 84t-44 223q0 141 41 318.5t106.5 300t135.5 122.5q78 0 74 -65 q-2 -27 -25 -78q-70 -158 -119 -339t-49 -314q0 -102 49 -103q94 0 212 118t222.5 309.5t163.5 400.5q12 47 49 47q33 0 55.5 -49t22.5 -97q0 -74 -25.5 -232.5t-72.5 -360.5q-53 -233 -124 -392t-199 -257.5t-330 -98.5q-84 0 -176.5 23.5t-155 64.5t-62.5 92zM0 0z M430 1307q0 90 42 120.5t105 30.5q45 0 64.5 -26.5t19.5 -65.5q0 -35 -19.5 -74t-53 -66.5t-72.5 -27.5q-43 0 -64.5 28.5t-21.5 80.5zM819 1309q0 88 44 127t105 39q41 0 61.5 -29t20.5 -66q0 -55 -43 -108t-115 -53q-30 0 -51.5 25.5t-21.5 64.5z" />
<glyph unicode="&#x152;" horiz-adv-x="1927" d="M88 467q0 246 95.5 470t266.5 362.5t386 138.5q127 0 210.5 -62.5t120.5 -173.5q72 92 164 139q74 41 176.5 60.5t153.5 19.5q260 0 260 -135q0 -33 -14.5 -60.5t-38.5 -43.5q-31 35 -93.5 53t-142.5 18q-150 0 -237.5 -47t-134 -135t-82.5 -242l-31 -116q41 4 123 8 q154 10 253 23.5t195 46.5q18 -14 25.5 -30t5.5 -40q-2 -70 -98.5 -90.5t-280.5 -24.5q-182 -4 -256 -22l-33 -123q-33 -127 -32 -193q0 -76 39.5 -107.5t132.5 -31.5q80 0 173 14.5t226 40.5q113 23 127 23q41 0 39 -60q-2 -55 -112.5 -94t-253 -58.5t-230.5 -19.5 q-211 0 -287 74q-43 43 -39 162q-203 -209 -438 -209q-178 0 -258 140.5t-80 324.5zM274 459q0 -160 43 -237t132 -77q139 0 274 133.5t221 338t86 403.5q0 117 -43 181.5t-151 64.5q-170 0 -298 -128t-196 -316.5t-68 -362.5z" />
<glyph unicode="&#x153;" horiz-adv-x="1654" d="M12 324q0 178 80 345t216 271t292 104q111 0 185.5 -52t105.5 -148q94 90 213 140t237 50q106 0 169 -55t63 -141q0 -123 -92 -223.5t-243 -159t-314 -58.5q-39 0 -60 2v-37q0 -100 66.5 -160.5t154.5 -60.5q117 0 213.5 52.5t192.5 168.5q18 -4 27.5 -20t5.5 -41 q-12 -68 -83 -138.5t-185.5 -116.5t-249.5 -46q-94 0 -184.5 49t-127.5 160q-84 -90 -187.5 -141.5t-213.5 -51.5q-131 0 -206 83t-75 225zM193 332q0 -184 137 -185q121 0 231.5 104.5t167.5 250.5q41 98 41 186t-44 145.5t-130 57.5q-121 0 -213 -93t-141 -225.5 t-49 -240.5zM877 494q141 -6 260.5 44t189.5 127.5t70 149.5q0 98 -97 98q-94 0 -182 -53t-152.5 -148.5t-88.5 -217.5z" />
<glyph unicode="&#x178;" horiz-adv-x="1198" d="M94 0zM94 139q0 47 25.5 69.5t66.5 22.5q23 0 43.5 -12t49.5 -37q49 -41 96 -63.5t123 -22.5q133 0 229 132t156.5 322.5t113.5 442.5q-133 -276 -257 -377.5t-248 -101.5q-125 0 -199 103.5t-74 285.5q0 125 32 253t81 226q33 68 75 96.5t78 28.5q53 0 76 -34 q-80 -115 -119 -264.5t-39 -278.5q0 -279 129 -279q94 0 192.5 111.5t179.5 264.5t128 284l35 98q10 29 31.5 43t48.5 14q41 0 65.5 -25.5t16.5 -62.5l-127 -567q-61 -274 -128 -449.5t-196 -289t-344 -113.5q-82 0 -160.5 25.5t-129 67.5t-50.5 87zM557 1727q0 90 42 120.5 t106 30.5q45 0 64.5 -26.5t19.5 -65.5q0 -35 -19.5 -74t-53.5 -66.5t-73 -27.5q-43 0 -64.5 28.5t-21.5 80.5zM946 1729q0 88 44 126.5t106 38.5q41 0 61.5 -28.5t20.5 -65.5q0 -55 -43 -108.5t-115 -53.5q-31 0 -52.5 26t-21.5 65z" />
<glyph unicode="&#x2c6;" d="M137 1163zM137 1217q0 14 39 40q88 47 179 124t144 143q12 16 35 16q8 0 16.5 -4t10.5 -12q47 -72 120.5 -169.5t124.5 -146.5q-23 -43 -63 -43q-57 -2 -120.5 58.5t-117.5 140.5q-55 -55 -118.5 -100t-120.5 -66q-57 -16 -82 -16q-18 0 -29 10q-18 12 -18 25z" />
<glyph unicode="&#x2dc;" d="M207 1206zM207 1292q0 76 55 124t131 48q49 0 89 -20.5t85 -54.5q39 -29 58.5 -40.5t41.5 -11.5q53 0 81 36t30 95q63 -18 63 -90q0 -66 -33.5 -102.5t-75.5 -50t-71 -13.5q-45 0 -77.5 16.5t-75.5 49.5q-39 29 -62.5 41t-52.5 12q-41 0 -71.5 -32.5t-47.5 -92.5 q-67 16 -67 86z" />
<glyph unicode="&#x2000;" horiz-adv-x="1004" />
<glyph unicode="&#x2001;" horiz-adv-x="2009" />
<glyph unicode="&#x2002;" horiz-adv-x="1004" />
<glyph unicode="&#x2003;" horiz-adv-x="2009" />
<glyph unicode="&#x2004;" horiz-adv-x="669" />
<glyph unicode="&#x2005;" horiz-adv-x="502" />
<glyph unicode="&#x2006;" horiz-adv-x="334" />
<glyph unicode="&#x2007;" horiz-adv-x="334" />
<glyph unicode="&#x2008;" horiz-adv-x="251" />
<glyph unicode="&#x2009;" horiz-adv-x="401" />
<glyph unicode="&#x200a;" horiz-adv-x="111" />
<glyph unicode="&#x2010;" horiz-adv-x="714" d="M61 496q0 90 160 90q41 0 123 -8l59 -5q18 -2 60 -2q74 0 172 15q25 -8 24 -41q0 -47 -73 -72q-49 -16 -165 -25.5t-204 -9.5q-67 0 -111.5 10.5t-44.5 47.5z" />
<glyph unicode="&#x2011;" horiz-adv-x="714" d="M61 496q0 90 160 90q41 0 123 -8l59 -5q18 -2 60 -2q74 0 172 15q25 -8 24 -41q0 -47 -73 -72q-49 -16 -165 -25.5t-204 -9.5q-67 0 -111.5 10.5t-44.5 47.5z" />
<glyph unicode="&#x2012;" horiz-adv-x="714" d="M61 496q0 90 160 90q41 0 123 -8l59 -5q18 -2 60 -2q74 0 172 15q25 -8 24 -41q0 -47 -73 -72q-49 -16 -165 -25.5t-204 -9.5q-67 0 -111.5 10.5t-44.5 47.5z" />
<glyph unicode="&#x2013;" horiz-adv-x="1144" d="M61 487q0 53 22.5 68.5t44.5 17.5t28 2q96 12 250 13q176 0 268 -10q106 -8 149 -9q47 0 150 9q74 2 93 -13.5t19 -48.5q0 -37 -24.5 -55.5t-67.5 -18.5q-12 0 -45 4q-66 10 -140.5 12.5t-90.5 2.5l-209 6q-184 6 -356 -37q-12 -4 -35 -4q-55 0 -56 61z" />
<glyph unicode="&#x2014;" horiz-adv-x="1761" d="M20 498q0 59 46.5 76.5t109.5 17.5q104 0 182 -4q174 -4 345 -8.5t346 -6.5h43q242 -4 338 -4q145 0 225 4q55 2 70.5 -15t15.5 -52q0 -37 -41 -55.5t-113 -18.5q-23 0 -76 4q-154 14 -391 15h-350q-115 0 -336 -17q-172 -12 -262 -14q-152 -4 -152 78z" />
<glyph unicode="&#x2018;" horiz-adv-x="389" d="M176 1122q0 92 35 170t92 129.5t121 65.5q17 4 27 4q35 0 59.5 -17.5t21.5 -46.5q-188 -47 -188 -186q0 -78 62 -156q8 -8 8 -16q0 -6 -4 -18q-10 -33 -41 -59.5t-74 -26.5q-55 0 -87 44t-32 113z" />
<glyph unicode="&#x2019;" horiz-adv-x="389" d="M53 1028q188 47 189 186q0 78 -62 156q-8 8 -8 16q0 6 4 19q10 33 41 59.5t74 26.5q55 0 87 -44t32 -114q0 -92 -35 -170t-92.5 -129t-120.5 -65q-17 -4 -27 -4q-35 0 -59.5 17t-22.5 46z" />
<glyph unicode="&#x201a;" horiz-adv-x="407" d="M-23 -236q100 33 132 80t32 101q0 88 -73 170q-6 6 -7.5 15t0.5 20q10 35 40 64.5t75 29.5q59 0 91 -50.5t32 -130.5q0 -127 -61.5 -225t-147.5 -125q-19 -6 -35 -6q-33 0 -54 15.5t-24 41.5z" />
<glyph unicode="&#x201c;" horiz-adv-x="618" d="M137 1176q0 123 60.5 215t150.5 120q31 10 62 11q29 0 47 -10.5t16 -30.5q-168 -53 -168 -205q0 -76 41 -137q10 -14 4 -35q-10 -33 -40.5 -59.5t-73.5 -26.5q-48 0 -73.5 44t-25.5 114zM424 1176q0 129 61.5 220t145.5 111q29 4 45 4q66 0 63 -30q-137 -45 -147 -168 q-4 -82 41 -174q4 -10 5 -17.5t-1 -17.5q-10 -33 -41 -59.5t-74 -26.5q-47 0 -72.5 44t-25.5 114z" />
<glyph unicode="&#x201d;" horiz-adv-x="659" d="M115 1028q137 45 147 168q4 82 -41 174q-4 10 -5 17.5t1 17.5q10 33 41 59.5t74 26.5q47 0 72.5 -44t25.5 -114q0 -129 -61.5 -220t-145.5 -112q-29 -4 -45 -4q-66 0 -63 31zM401 1069q168 53 168 205q0 76 -41 137q-10 14 -4 35q10 33 41 59.5t74 26.5q47 0 72.5 -44 t25.5 -114q0 -123 -60.5 -215t-150.5 -121q-30 -10 -61 -10q-29 0 -47.5 10.5t-16.5 30.5z" />
<glyph unicode="&#x201e;" horiz-adv-x="638" d="M-20 -227q117 45 126 168q4 82 -40 174q-4 10 -5.5 17t0.5 18q10 33 41 59.5t74 26.5q59 0 78.5 -39t19.5 -119q0 -129 -55 -220t-131 -112q-29 -4 -45 -4q-66 0 -63 31zM246 -248q160 53 160 203q0 80 -33 139q-10 14 -4 35q10 33 40.5 59.5t73.5 26.5t66.5 -44 t23.5 -114q0 -125 -57 -216t-145 -120q-31 -10 -62 -10q-29 0 -47 10.5t-16 30.5z" />
<glyph unicode="&#x2022;" horiz-adv-x="518" d="M45 520q0 86 53.5 151.5t161.5 65.5q72 0 126 -51t54 -143q0 -51 -24.5 -101.5t-69.5 -83t-104 -32.5q-88 0 -142.5 53t-54.5 141z" />
<glyph unicode="&#x2026;" horiz-adv-x="1349" d="M-2 96q0 51 31.5 85t95.5 34q49 0 78.5 -26.5t29.5 -71.5t-28.5 -87t-102.5 -42q-45 0 -74.5 36.5t-29.5 71.5zM508 104q0 49 30.5 82t92.5 33q47 0 75.5 -26.5t28.5 -71.5t-21.5 -87t-74.5 -42q-59 0 -95 31.5t-36 80.5zM1004 117q0 55 29.5 92t86.5 37q45 0 73 -30 t28 -77q0 -49 -22.5 -94t-80.5 -45q-53 0 -83.5 33t-30.5 84z" />
<glyph unicode="&#x202f;" horiz-adv-x="401" />
<glyph unicode="&#x2039;" horiz-adv-x="860" d="M104 520q0 61 47.5 102.5t139.5 82.5q94 41 117 49q125 49 194.5 91t134.5 126q49 -33 49 -80q0 -51 -49 -104.5t-129 -88.5q-41 -18 -131 -51q-88 -33 -133 -51t-86 -47q70 -27 117 -53.5t121 -75.5q111 -76 147.5 -111t36.5 -82q0 -31 -22.5 -52t-57.5 -21 q-31 0 -68.5 22.5t-68.5 59.5q-53 63 -100.5 101t-91.5 62.5t-154 75.5q-12 20 -13 45z" />
<glyph unicode="&#x203a;" horiz-adv-x="901" d="M109 190q0 57 50 117t128 96q29 14 121 52q76 29 126 53t82 57q-76 20 -130 50t-136 100q-49 41 -85 81t-64 93q8 27 32.5 43t59.5 16q70 0 139 -82q92 -113 161 -158.5t189 -72.5q13 -20 13 -45q0 -61 -52.5 -110.5t-138.5 -82.5q-162 -63 -267.5 -123.5t-197.5 -160.5 q-31 35 -30 77z" />
<glyph unicode="&#x205f;" horiz-adv-x="502" />
<glyph unicode="&#x20ac;" horiz-adv-x="1384" d="M41 793q2 25 19.5 41t45.5 16q18 0 29 -4q125 -33 221 -45q63 178 187.5 318.5t281 218t312.5 77.5q213 0 213 -155q0 -41 -29 -110t-72 -120t-88 -51q-59 0 -59 82q2 49 28.5 89t88.5 110q-41 8 -103 8q-121 0 -238.5 -61.5t-213 -171t-148.5 -249.5l64 -2 q98 0 178 16.5t174 59.5q6 -18 6 -35q0 -84 -123 -118.5t-334 -30.5q-20 -88 -22 -174q193 -6 387 41q41 8 51 8q53 0 53 -45q0 -59 -155 -80q-141 -23 -332 -25q14 -139 87 -210.5t218 -71.5q137 0 244.5 56t173.5 159q72 2 71 -70q0 -57 -64.5 -118.5t-178 -102.5 t-250.5 -41q-219 0 -332 99.5t-129 310.5q-111 14 -223 49q-4 14 -4 41q2 27 14 43t33 16q12 0 18 -2q111 -33 160 -41q2 84 23 172q-168 25 -275 70q-8 14 -8 33z" />
<glyph unicode="&#x2122;" horiz-adv-x="1241" d="M141 1362q0 53 99.5 91t232.5 57.5t227 19.5q57 0 86 -11.5t29 -37.5q0 -23 -46 -34t-132 -22l-90 -12q-35 -94 -51 -182q-25 -117 -37.5 -200t-12.5 -179q-12 -14 -32.5 -22.5t-36.5 -8.5q-57 0 -51 68q2 27 14 89t16 85q51 229 54 330q-47 -10 -115 -35 q-55 -20 -109 -35q-6 -2 -14 -2q-31 0 -31 41zM547 922q0 20 24.5 55t77.5 100q57 72 80 103q98 133 129 190q49 86 70.5 109.5t56.5 23.5q10 0 20.5 -7t10.5 -21q0 -35 -29 -144q-25 -90 -40 -161.5t-23 -157.5q37 57 53 86q90 137 104 157q37 57 71 94t67 37q18 0 26 -14 t8 -29q0 -18 -8 -88q-14 -76 -14 -145q0 -59 7 -118.5t32 -139.5q-14 -10 -43 -10q-41 -2 -66.5 48t-30.5 130l-2 51q0 23 5 92q-29 -39 -80 -121l-39 -61q-80 -129 -119 -129q-33 0 -53.5 27.5t-20.5 91.5q0 113 39 252q-70 -123 -148.5 -242t-103.5 -119t-43 17.5 t-18 42.5z" />
<glyph unicode="&#x25fc;" horiz-adv-x="1044" d="M0 0v1044h1044v-1044h-1044z" />
</font>
</defs>
</svg>
