<?xml version="1.0" standalone="no"?>
<!DOCTYPE svg PUBLIC "-//W3C//DTD SVG 1.1//EN" "http://www.w3.org/Graphics/SVG/1.1/DTD/svg11.dtd" >
<svg xmlns="http://www.w3.org/2000/svg">
<metadata></metadata>
<defs>
<font id="telefonica_capregular" horiz-adv-x="1529" >
<font-face units-per-em="2048" ascent="1741" descent="-307" />
<missing-glyph horiz-adv-x="491" />
<glyph horiz-adv-x="0" />
<glyph unicode="&#xd;" horiz-adv-x="491" />
<glyph unicode=" "  horiz-adv-x="491" />
<glyph unicode="&#x09;" horiz-adv-x="491" />
<glyph unicode="&#xa0;" horiz-adv-x="491" />
<glyph unicode="!" horiz-adv-x="690" d="M59 94q0 33 11 68q35 145 194 145q154 0 154 -127q0 -29 -8 -67q-35 -143 -197 -144q-76 0 -115 32t-39 93zM176 481l139 1059h338l-237 -1059h-240z" />
<glyph unicode="&#x22;" horiz-adv-x="1150" d="M272 946l66 594h311l-139 -594h-238zM272 946zM756 946l66 594h311l-139 -594h-238z" />
<glyph unicode="#" horiz-adv-x="1382" d="M55 0l170 459h-145l37 205h186l80 213h-223l35 204h264l172 459h239l-170 -459h209l172 459h240l-170 -459h145l-34 -204h-189l-78 -213h224l-37 -205h-267l-167 -459h-242l170 459h-211l-168 -459h-242zM545 664h209l80 213h-211z" />
<glyph unicode="$" horiz-adv-x="1398" d="M29 61l69 261q98 -37 219 -59.5t230 -22.5q133 0 224 41t91 145q0 66 -44 111t-150 88l-131 53q-176 72 -258 171t-82 243q0 115 49 209t139 155q135 92 348 111l43 235h205l-41 -239q154 -14 328 -74l-88 -248q-195 59 -355 59q-129 0 -208.5 -41.5t-79.5 -123.5 q0 -57 50 -101.5t175 -95.5l133 -55q164 -68 238.5 -169.5t74.5 -246.5q0 -242 -178 -371q-143 -104 -373 -123l-45 -262h-204l45 260q-219 12 -424 90z" />
<glyph unicode="%" horiz-adv-x="2338" d="M197 995q0 109 34.5 224.5t108.5 199.5q131 152 350 152q160 0 246 -97.5t86 -271.5q0 -111 -35 -222.5t-106 -195.5q-133 -154 -344 -153q-164 0 -252 95t-88 269zM459 993q0 -72 24.5 -109.5t81.5 -37.5q86 0 135 98q27 53 43.5 127t16.5 137q0 72 -23.5 110t-81.5 38 q-47 0 -78.5 -25.5t-56.5 -70.5q-29 -55 -45 -128t-16 -139zM475 -31l1104 1602h268l-1106 -1602h-266zM1300 336q0 109 34 220.5t110 199.5q131 152 340 151q168 0 255 -95t87 -269q0 -111 -35 -224.5t-106 -197.5q-59 -70 -146.5 -111t-196.5 -41q-165 0 -253.5 95.5 t-88.5 271.5zM1563 332q0 -150 106 -150q84 1 135 99q27 51 43.5 124.5t16.5 139.5q0 74 -24.5 111.5t-80.5 37.5q-47 0 -78.5 -25.5t-56.5 -72.5q-29 -55 -45 -128t-16 -136z" />
<glyph unicode="&#x26;" horiz-adv-x="1564" d="M55 383q0 326 402 469q-57 80 -88 155.5t-31 166.5q0 117 56.5 208t156.5 140t227 49q174 0 267.5 -92.5t93.5 -233.5q0 -133 -85 -231.5t-257 -179.5l264 -359q90 133 133 309h240q-66 -305 -232 -503l162 -218l-213 -153l-145 196q-100 -66 -217 -101.5t-242 -35.5 q-217 0 -354.5 108.5t-137.5 305.5zM373 434q0 -92 63.5 -152.5t181.5 -60.5q133 0 246 76l-309 420q-182 -129 -182 -283zM616 1176q0 -49 18.5 -99.5t63.5 -109.5q99 59 146 118.5t47 131.5q0 59 -32 95t-91 36q-70 0 -111 -46.5t-41 -125.5z" />
<glyph unicode="'" horiz-adv-x="669" d="M262 946l66 594h311l-139 -594h-238z" />
<glyph unicode="(" horiz-adv-x="876" d="M129 526q0 367 161 711t505 633l196 -137q-260 -297 -386 -602.5t-126 -626.5q0 -184 42 -354t126 -345l-217 -137q-149 180 -225 391t-76 467z" />
<glyph unicode=")" horiz-adv-x="870" d="M-102 -195q260 297 386 602.5t126 626.5q0 186 -41 356.5t-125 342.5l215 137q150 -178 226.5 -390t76.5 -468q0 -365 -162 -709t-506 -635z" />
<glyph unicode="*" horiz-adv-x="1093" d="M186 1137l111 217l260 -142l23 328h229l-84 -328l311 134l29 -211l-317 -84l186 -256l-205 -144l-127 307l-223 -307l-166 160l268 240z" />
<glyph unicode="+" horiz-adv-x="1472" d="M287 625l37 211h307l55 315h232l-58 -315h307l-39 -211h-307l-53 -316h-229l53 316h-305z" />
<glyph unicode="," horiz-adv-x="614" d="M-18 94q0 51 20.5 103.5t60.5 76.5q47 33 123 33t121 -41q33 -33 33 -108q0 -94 -46 -247t-101 -269h-160l61 329q-113 16 -112 123z" />
<glyph unicode="-" horiz-adv-x="806" d="M106 633l48 264h544l-47 -264h-545z" />
<glyph unicode="." horiz-adv-x="604" d="M-6 94q0 29 8 68q35 145 197 145q76 0 114.5 -32.5t38.5 -94.5q0 -20 -10 -67q-35 -143 -197 -144q-151 0 -151 125z" />
<glyph unicode="/" horiz-adv-x="1132" d="M-72 -31l961 1602h313l-960 -1602h-314z" />
<glyph unicode="0" horiz-adv-x="1400" d="M74 584q0 195 51 377t143 317q109 160 251.5 226.5t293.5 66.5q250 0 374 -161t124 -454q0 -195 -52.5 -376t-144.5 -318q-109 -160 -249 -226.5t-292 -66.5q-251 0 -375 160t-124 455zM401 580q0 -352 187 -353q67 0 132.5 46t121.5 137q61 102 100 243.5t39 307.5 q0 350 -186 350q-66 0 -131.5 -44t-122.5 -139q-61 -100 -100.5 -241.5t-39.5 -306.5z" />
<glyph unicode="1" horiz-adv-x="1482" d="M186 0l39 225h264l193 1092h-254l37 219q82 12 186.5 19.5t165.5 7.5q106 0 154.5 -31t48.5 -100q0 -31 -16 -115l-191 -1092h215l-37 -225h-805z" />
<glyph unicode="2" horiz-adv-x="1411" d="M37 41q0 131 106 235l469 469q152 152 210.5 241t58.5 167q0 92 -60.5 128t-171.5 36q-145 0 -356 -51l43 250q78 25 182.5 40t198.5 15q131 0 237.5 -33t171.5 -104q88 -94 88 -248q0 -131 -75.5 -256t-266.5 -305l-411 -392h602l-41 -233h-979q-6 16 -6 41z" />
<glyph unicode="3" horiz-adv-x="1421" d="M80 18l43 244q150 -41 317 -41q172 0 267 62q102 68 102 186q0 102 -70 154q-74 51 -252 51h-63l41 225h55q82 0 173 22.5t147 84.5q51 57 51 135q0 80 -51 125q-61 51 -203 51q-125 0 -315 -45l45 254q207 45 344 45q279 0 409 -137q51 -53 74 -121t23 -137 q0 -127 -74 -227.5t-201 -151.5q96 -43 148.5 -128t52.5 -202q0 -98 -38 -188.5t-120 -157.5q-92 -76 -227 -114t-299 -38q-182 0 -379 49z" />
<glyph unicode="4" horiz-adv-x="1402" d="M45 387q0 45 6 76q14 78 84 205l473 872h318l-514 -946h350l63 369h324l-66 -369h181l-43 -240h-181l-61 -354h-322l62 354h-670q-4 14 -4 33z" />
<glyph unicode="5" horiz-adv-x="1413" d="M92 18l43 244q66 -18 152 -29.5t162 -11.5q193 0 291 76t98 223q0 90 -56.5 142.5t-224.5 52.5h-297q-4 18 -4 37q0 45 20 139l142 649h842l-41 -229h-566l-73 -346h98q236 0 366 -110t130 -316q0 -158 -79 -287t-238 -206t-392 -77q-193 0 -373 49z" />
<glyph unicode="6" horiz-adv-x="1417" d="M127 551q0 242 92 476.5t264 377.5q197 166 488 166q141 0 309 -41l-43 -246q-117 33 -227 33q-104 0 -193.5 -33t-163.5 -119q-88 -102 -137 -245q150 68 299 67q188 0 303 -106.5t115 -319.5q0 -133 -47 -249.5t-137 -196.5q-78 -70 -186.5 -108t-233.5 -38 q-242 0 -372 149.5t-130 432.5zM451 543q0 -328 200 -328q104 0 180 84q82 90 82 229q0 111 -54 163t-163 52q-100 0 -233 -38q-12 -76 -12 -162z" />
<glyph unicode="7" horiz-adv-x="1437" d="M289 1311l39 229h1005q6 -12 6 -41q0 -96 -88 -272l-612 -1227h-338l694 1311h-706z" />
<glyph unicode="8" horiz-adv-x="1404" d="M68 379q0 276 376 432q-74 55 -116.5 138t-42.5 186q0 123 64.5 222t183 156.5t274.5 57.5q209 0 341 -99.5t132 -271.5q0 -133 -82 -228t-242 -175q123 -82 182.5 -170t59.5 -213q0 -139 -72.5 -239.5t-202.5 -153t-298 -52.5t-294 51.5t-194.5 144.5t-68.5 214z M395 406q0 -84 62.5 -135.5t167.5 -51.5q106 0 173.5 53.5t67.5 137.5q0 119 -157 219l-82 51q-231 -123 -232 -274zM594 1155q0 -123 176 -237q104 61 158.5 119.5t54.5 129.5q0 70 -50 115t-134 45q-88 0 -146.5 -46t-58.5 -126z" />
<glyph unicode="9" horiz-adv-x="1417" d="M137 8l43 246q109 -33 219 -33q117 0 196 31t146 100q94 96 156 252q-131 -53 -274 -53q-207 0 -323 112.5t-116 325.5q0 139 48.5 249t127.5 183q76 70 178.5 110t229.5 40q266 0 394 -170t128 -443q0 -231 -87 -450t-245 -358q-205 -180 -530 -181q-76 0 -153.5 10.5 t-137.5 28.5zM504 1008q0 -106 53 -159.5t174 -53.5q112 0 223 41q12 74 13 155q0 334 -205 334q-68 0 -118 -32.5t-83 -84.5q-57 -90 -57 -200z" />
<glyph unicode=":" horiz-adv-x="579" d="M-12 94q0 29 8 68q35 145 197 145q76 0 114.5 -32.5t38.5 -94.5q0 -20 -10 -67q-35 -143 -197 -144q-151 0 -151 125zM0 0zM103 725q0 29 8 68q35 145 197 145q76 0 114.5 -32.5t38.5 -94.5q0 -20 -10 -67q-35 -143 -197 -144q-151 0 -151 125z" />
<glyph unicode=";" horiz-adv-x="587" d="M-8 94q0 51 20.5 103.5t60.5 76.5q47 33 123 33t121 -41q33 -33 33 -108q0 -94 -46 -247t-101 -269h-160l61 329q-113 16 -112 123zM0 0zM107 725q0 29 8 68q35 145 197 145q76 0 114.5 -32.5t38.5 -94.5q0 -20 -10 -67q-35 -143 -197 -144q-151 0 -151 125z" />
<glyph unicode="&#x3c;" horiz-adv-x="1460" d="M262 627l35 207l915 415l-45 -250l-655 -284l559 -264l-41 -242z" />
<glyph unicode="=" horiz-adv-x="1456" d="M240 408l39 210h841l-39 -210h-841zM315 840l39 213h842l-37 -213h-844z" />
<glyph unicode="&#x3e;" horiz-adv-x="1460" d="M258 209l45 250l655 286l-559 265l41 239l768 -415l-37 -207z" />
<glyph unicode="?" horiz-adv-x="1034" d="M168 94q0 33 10 68q35 145 195 145q154 0 153 -127q0 -29 -8 -67q-35 -143 -196 -144q-76 0 -115 32t-39 93zM211 1509q168 61 356 62q217 0 330 -89t113 -259q0 -129 -59.5 -227.5t-157.5 -186.5q-106 -94 -151.5 -139t-70 -84t-49.5 -101h-235q8 86 33.5 147.5 t60.5 106.5t100 115q96 100 134 158.5t38 132.5q0 164 -196 164q-90 0 -228 -41z" />
<glyph unicode="@" horiz-adv-x="1828" d="M92 672q0 256 121 460.5t335 321.5t480 117q223 0 385 -84t247 -231.5t85 -335.5q0 -156 -56.5 -285t-164 -206t-256.5 -77q-78 0 -139.5 19.5t-92.5 54.5q-115 -74 -235 -74q-133 0 -213 87t-80 253q0 135 53 245t151.5 173.5t227.5 63.5q113 0 186 -54l17 35l164 -12 l-88 -436q-14 -78 -15 -111q0 -74 76 -74q100 0 161.5 118t61.5 275q0 217 -125 330t-342 113q-188 0 -348 -84t-254 -240.5t-94 -365.5q0 -258 147.5 -379t413.5 -121q178 0 426 59l-24 -198q-90 -27 -209 -43.5t-228 -16.5q-237 0 -411 82t-268.5 240t-94.5 381zM731 694 q0 -166 125 -166q61 0 129 37v17q0 57 16 133l56 278q-37 14 -80 15q-113 0 -179.5 -92.5t-66.5 -221.5z" />
<glyph unicode="A" d="M-104 0l786 1540h387l287 -1540h-361l-61 387h-500l-186 -387h-352zM559 641h334l-76 537h-4z" />
<glyph unicode="B" horiz-adv-x="1439" d="M47 0l270 1540h482q150 0 252 -24.5t161 -79.5q86 -80 86 -228q0 -119 -69.5 -218t-210.5 -154q133 -39 202.5 -123t69.5 -209q0 -225 -139 -352q-88 -78 -232.5 -115t-361.5 -37h-510zM440 254h154q193 0 272 74q70 63 70 178q0 82 -45 123q-29 27 -77 36t-118 9h-180z M561 928h115q147 0 215 65q63 57 63 158q0 63 -30 94q-23 23 -62 32t-102 9h-137z" />
<glyph unicode="C" horiz-adv-x="1355" d="M84 580q0 207 68.5 416.5t201.5 351.5q209 223 570 223q203 0 434 -76l-88 -250q-188 53 -318 53q-115 0 -206 -42t-160 -152q-63 -98 -100 -235.5t-37 -270.5q0 -170 65 -254q43 -55 112.5 -78.5t174.5 -23.5q152 0 309 30l-8 -256q-74 -20 -177.5 -33.5t-199.5 -13.5 q-319 0 -480 150.5t-161 460.5z" />
<glyph unicode="D" horiz-adv-x="1566" d="M47 0l270 1540h457q408 0 574 -174q72 -76 103.5 -182.5t31.5 -245.5q0 -209 -64.5 -395.5t-189.5 -313.5q-123 -125 -292 -177t-413 -52h-477zM444 256h117q147 0 245.5 43t170.5 147q63 90 102 218.5t39 267.5q0 174 -74 260q-41 47 -108.5 69.5t-169.5 22.5h-143z" />
<glyph unicode="E" horiz-adv-x="1341" d="M47 0l270 1540h1041l-72 -254h-663l-64 -373h528l-47 -264h-528l-68 -395h697l-41 -254h-1053z" />
<glyph unicode="F" horiz-adv-x="1290" d="M47 0l270 1540h1016l-71 -254h-639l-64 -373h504l-47 -264h-504l-113 -649h-352z" />
<glyph unicode="G" horiz-adv-x="1560" d="M84 582q0 162 45 328.5t129 306t199 219.5q190 135 493 135q229 0 494 -76l-92 -256q-217 59 -377 59q-104 0 -190.5 -29.5t-153.5 -103.5q-88 -96 -135 -258t-47 -311q0 -180 77 -266q78 -88 258 -88q98 0 164 8l58 330h-215l45 254h565l-139 -787q-252 -78 -517 -78 q-337 1 -495 146q-82 76 -124 194.5t-42 272.5z" />
<glyph unicode="H" horiz-adv-x="1609" d="M47 0l270 1540h351l-109 -627h543l110 627h351l-271 -1540h-350l113 649h-543l-113 -649h-352z" />
<glyph unicode="I" horiz-adv-x="743" d="M61 0l269 1540h352l-270 -1540h-351z" />
<glyph unicode="J" horiz-adv-x="974" d="M-37 0l17 262q82 -22 169 -22h7q113 0 166 51q29 27 46 71t29 115l187 1063h350l-195 -1118q-39 -225 -151 -332q-127 -121 -363 -121q-143 0 -262 31z" />
<glyph unicode="K" horiz-adv-x="1509" d="M47 0l270 1540h351l-109 -625l582 625h411l-626 -622l395 -918h-387l-270 657l-183 -182l-82 -475h-352z" />
<glyph unicode="L" horiz-adv-x="1298" d="M47 0l270 1540h351l-228 -1286h684l-43 -254h-1034z" />
<glyph unicode="M" horiz-adv-x="1900" d="M47 0l270 1540h271l330 -850l647 850h288l-270 -1540h-321l155 899l-416 -547h-270l-225 576l-164 -928h-295z" />
<glyph unicode="N" horiz-adv-x="1660" d="M47 0l270 1540h254l557 -1008l179 1008h309l-273 -1540h-276l-543 958l-168 -958h-309z" />
<glyph unicode="O" horiz-adv-x="1605" d="M84 578q0 162 44 328.5t120 297.5q215 367 667 367q285 0 445 -148.5t160 -459.5q0 -160 -42 -329t-120 -300q-211 -365 -674 -365q-281 0 -440.5 148.5t-159.5 460.5zM449 573q0 -176 66.5 -252.5t189.5 -76.5q114 0 195 58t140 169q55 104 86 238.5t31 255.5 q0 176 -66.5 252.5t-191.5 76.5q-115 0 -195.5 -58t-138.5 -169q-55 -104 -85.5 -237.5t-30.5 -256.5z" />
<glyph unicode="P" horiz-adv-x="1425" d="M47 0l270 1540h492q150 0 262.5 -32.5t179.5 -92.5q127 -113 127 -317q0 -121 -42 -223.5t-113 -172.5q-172 -170 -551 -170h-180l-93 -532h-352zM539 795h141q160 0 248 65q51 39 76.5 98.5t25.5 126.5q0 84 -41 132q-58 69 -209 69h-4h-153z" />
<glyph unicode="Q" horiz-adv-x="1687" d="M84 578q0 162 44 328.5t120 297.5q215 367 667 367q285 0 445 -148.5t160 -461.5q0 -158 -41 -324t-121 -303q-82 -141 -199 -225q117 -8 211 -32t182 -71q-57 -160 -174 -289l-291 164q-160 88 -380 88h-23q-281 0 -440.5 148.5t-159.5 460.5zM449 573 q0 -176 66.5 -252.5t189.5 -76.5q114 0 195 58t140 169q55 104 86 238.5t31 255.5q0 176 -66.5 252.5t-191.5 76.5q-115 0 -195.5 -58t-138.5 -169q-55 -104 -85.5 -237.5t-30.5 -256.5z" />
<glyph unicode="R" horiz-adv-x="1497" d="M47 0l270 1540h525q276 0 407 -113q63 -55 97 -139t34 -184q0 -84 -22.5 -159t-61.5 -130q-41 -57 -112.5 -110.5t-163.5 -88.5l240 -616h-377l-181 559h-206l-97 -559h-352zM541 813h135q94 0 159.5 17.5t112.5 62.5q41 39 62.5 93t21.5 112q0 88 -45 133 q-55 55 -188 55h-176z" />
<glyph unicode="S" horiz-adv-x="1359" d="M16 61l70 261q96 -37 218 -59.5t226 -22.5q133 0 227.5 43t94.5 145q0 63 -45 109.5t-152 89.5l-133 53q-172 70 -255 168t-83 246q0 113 48.5 206t140.5 156q166 115 428 115q209 0 454 -82l-88 -248q-199 59 -354 59q-131 0 -212 -41.5t-81 -123.5q0 -57 50.5 -100.5 t177.5 -96.5l133 -55q164 -68 238.5 -167.5t74.5 -250.5q0 -240 -178 -369q-176 -127 -484 -127q-266 0 -516 92z" />
<glyph unicode="T" horiz-adv-x="1419" d="M145 1286l45 254h1323l-73 -254h-465l-225 -1286h-353l226 1286h-478z" />
<glyph unicode="U" horiz-adv-x="1597" d="M129 477q0 100 27 248l145 815h344l-160 -905q-16 -98 -16 -154q0 -102 47 -162q62 -81 207 -81h4q162 0 244 94q37 43 62.5 108.5t45.5 171.5l164 928h316l-183 -1032q-47 -264 -207 -397q-170 -141 -456 -142q-276 0 -432 131q-80 70 -116 161t-36 216z" />
<glyph unicode="V" horiz-adv-x="1517" d="M184 1540h365l168 -1134l536 1134h361l-783 -1540h-380z" />
<glyph unicode="W" horiz-adv-x="2234" d="M190 1540h363l90 -1134l473 1134h295l107 -1134l471 1134h325l-686 -1540h-381l-88 954l-407 -954h-381z" />
<glyph unicode="X" horiz-adv-x="1472" d="M-100 0l647 801l-314 739h381l187 -485l381 485h374l-620 -766l332 -774h-381l-205 522l-410 -522h-372z" />
<glyph unicode="Y" horiz-adv-x="1538" d="M184 1540h375l229 -625l461 625h373l-713 -913l-110 -627h-353l111 629z" />
<glyph unicode="Z" horiz-adv-x="1372" d="M-43 0l35 207l928 1075h-715l45 258h1157l-37 -215l-919 -1065h735l-45 -260h-1184z" />
<glyph unicode="[" horiz-adv-x="878" d="M16 -287l387 2106h570l-41 -226h-230l-307 -1654h232l-41 -226h-570z" />
<glyph unicode="\" horiz-adv-x="1189" d="M252 1571h283l395 -1602h-281z" />
<glyph unicode="]" horiz-adv-x="882" d="M-98 -287l39 226h231l307 1654h-231l41 226h569l-387 -2106h-569z" />
<glyph unicode="^" horiz-adv-x="1456" d="M250 854l516 690h195l258 -690h-254l-138 449l-307 -449h-270z" />
<glyph unicode="_" horiz-adv-x="1052" d="M-139 -283l41 220h966l-41 -220h-966z" />
<glyph unicode="`" horiz-adv-x="1024" d="M377 1675zM377 1931l158 219l401 -321l-115 -154z" />
<glyph unicode="a" d="M-104 0l786 1540h387l287 -1540h-361l-61 387h-500l-186 -387h-352zM559 641h334l-76 537h-4z" />
<glyph unicode="b" horiz-adv-x="1439" d="M47 0l270 1540h482q150 0 252 -24.5t161 -79.5q86 -80 86 -228q0 -119 -69.5 -218t-210.5 -154q133 -39 202.5 -123t69.5 -209q0 -225 -139 -352q-88 -78 -232.5 -115t-361.5 -37h-510zM440 254h154q193 0 272 74q70 63 70 178q0 82 -45 123q-29 27 -77 36t-118 9h-180z M561 928h115q147 0 215 65q63 57 63 158q0 63 -30 94q-23 23 -62 32t-102 9h-137z" />
<glyph unicode="c" horiz-adv-x="1355" d="M84 580q0 207 68.5 416.5t201.5 351.5q209 223 570 223q203 0 434 -76l-88 -250q-188 53 -318 53q-115 0 -206 -42t-160 -152q-63 -98 -100 -235.5t-37 -270.5q0 -170 65 -254q43 -55 112.5 -78.5t174.5 -23.5q152 0 309 30l-8 -256q-74 -20 -177.5 -33.5t-199.5 -13.5 q-319 0 -480 150.5t-161 460.5z" />
<glyph unicode="d" horiz-adv-x="1566" d="M47 0l270 1540h457q408 0 574 -174q72 -76 103.5 -182.5t31.5 -245.5q0 -209 -64.5 -395.5t-189.5 -313.5q-123 -125 -292 -177t-413 -52h-477zM444 256h117q147 0 245.5 43t170.5 147q63 90 102 218.5t39 267.5q0 174 -74 260q-41 47 -108.5 69.5t-169.5 22.5h-143z" />
<glyph unicode="e" horiz-adv-x="1341" d="M47 0l270 1540h1041l-72 -254h-663l-64 -373h528l-47 -264h-528l-68 -395h697l-41 -254h-1053z" />
<glyph unicode="f" horiz-adv-x="1290" d="M47 0l270 1540h1016l-71 -254h-639l-64 -373h504l-47 -264h-504l-113 -649h-352z" />
<glyph unicode="g" horiz-adv-x="1560" d="M84 582q0 162 45 328.5t129 306t199 219.5q190 135 493 135q229 0 494 -76l-92 -256q-217 59 -377 59q-104 0 -190.5 -29.5t-153.5 -103.5q-88 -96 -135 -258t-47 -311q0 -180 77 -266q78 -88 258 -88q98 0 164 8l58 330h-215l45 254h565l-139 -787q-252 -78 -517 -78 q-337 1 -495 146q-82 76 -124 194.5t-42 272.5z" />
<glyph unicode="h" horiz-adv-x="1609" d="M47 0l270 1540h351l-109 -627h543l110 627h351l-271 -1540h-350l113 649h-543l-113 -649h-352z" />
<glyph unicode="i" horiz-adv-x="743" d="M61 0l269 1540h352l-270 -1540h-351z" />
<glyph unicode="j" horiz-adv-x="974" d="M-37 0l17 262q82 -22 169 -22h7q113 0 166 51q29 27 46 71t29 115l187 1063h350l-195 -1118q-39 -225 -151 -332q-127 -121 -363 -121q-143 0 -262 31z" />
<glyph unicode="k" horiz-adv-x="1509" d="M47 0l270 1540h351l-109 -625l582 625h411l-626 -622l395 -918h-387l-270 657l-183 -182l-82 -475h-352z" />
<glyph unicode="l" horiz-adv-x="1298" d="M47 0l270 1540h351l-228 -1286h684l-43 -254h-1034z" />
<glyph unicode="m" horiz-adv-x="1900" d="M47 0l270 1540h271l330 -850l647 850h288l-270 -1540h-321l155 899l-416 -547h-270l-225 576l-164 -928h-295z" />
<glyph unicode="n" horiz-adv-x="1660" d="M47 0l270 1540h254l557 -1008l179 1008h309l-273 -1540h-276l-543 958l-168 -958h-309z" />
<glyph unicode="o" horiz-adv-x="1605" d="M84 578q0 162 44 328.5t120 297.5q215 367 667 367q285 0 445 -148.5t160 -459.5q0 -160 -42 -329t-120 -300q-211 -365 -674 -365q-281 0 -440.5 148.5t-159.5 460.5zM449 573q0 -176 66.5 -252.5t189.5 -76.5q114 0 195 58t140 169q55 104 86 238.5t31 255.5 q0 176 -66.5 252.5t-191.5 76.5q-115 0 -195.5 -58t-138.5 -169q-55 -104 -85.5 -237.5t-30.5 -256.5z" />
<glyph unicode="p" horiz-adv-x="1425" d="M47 0l270 1540h492q150 0 262.5 -32.5t179.5 -92.5q127 -113 127 -317q0 -121 -42 -223.5t-113 -172.5q-172 -170 -551 -170h-180l-93 -532h-352zM539 795h141q160 0 248 65q51 39 76.5 98.5t25.5 126.5q0 84 -41 132q-58 69 -209 69h-4h-153z" />
<glyph unicode="q" horiz-adv-x="1687" d="M84 578q0 162 44 328.5t120 297.5q215 367 667 367q285 0 445 -148.5t160 -461.5q0 -158 -41 -324t-121 -303q-82 -141 -199 -225q117 -8 211 -32t182 -71q-57 -160 -174 -289l-291 164q-160 88 -380 88h-23q-281 0 -440.5 148.5t-159.5 460.5zM449 573 q0 -176 66.5 -252.5t189.5 -76.5q114 0 195 58t140 169q55 104 86 238.5t31 255.5q0 176 -66.5 252.5t-191.5 76.5q-115 0 -195.5 -58t-138.5 -169q-55 -104 -85.5 -237.5t-30.5 -256.5z" />
<glyph unicode="r" horiz-adv-x="1497" d="M47 0l270 1540h525q276 0 407 -113q63 -55 97 -139t34 -184q0 -84 -22.5 -159t-61.5 -130q-41 -57 -112.5 -110.5t-163.5 -88.5l240 -616h-377l-181 559h-206l-97 -559h-352zM541 813h135q94 0 159.5 17.5t112.5 62.5q41 39 62.5 93t21.5 112q0 88 -45 133 q-55 55 -188 55h-176z" />
<glyph unicode="s" horiz-adv-x="1359" d="M16 61l70 261q96 -37 218 -59.5t226 -22.5q133 0 227.5 43t94.5 145q0 63 -45 109.5t-152 89.5l-133 53q-172 70 -255 168t-83 246q0 113 48.5 206t140.5 156q166 115 428 115q209 0 454 -82l-88 -248q-199 59 -354 59q-131 0 -212 -41.5t-81 -123.5q0 -57 50.5 -100.5 t177.5 -96.5l133 -55q164 -68 238.5 -167.5t74.5 -250.5q0 -240 -178 -369q-176 -127 -484 -127q-266 0 -516 92z" />
<glyph unicode="t" horiz-adv-x="1419" d="M145 1286l45 254h1323l-73 -254h-465l-225 -1286h-353l226 1286h-478z" />
<glyph unicode="u" horiz-adv-x="1597" d="M129 477q0 100 27 248l145 815h344l-160 -905q-16 -98 -16 -154q0 -102 47 -162q62 -81 207 -81h4q162 0 244 94q37 43 62.5 108.5t45.5 171.5l164 928h316l-183 -1032q-47 -264 -207 -397q-170 -141 -456 -142q-276 0 -432 131q-80 70 -116 161t-36 216z" />
<glyph unicode="v" horiz-adv-x="1517" d="M184 1540h365l168 -1134l536 1134h361l-783 -1540h-380z" />
<glyph unicode="w" horiz-adv-x="2234" d="M190 1540h363l90 -1134l473 1134h295l107 -1134l471 1134h325l-686 -1540h-381l-88 954l-407 -954h-381z" />
<glyph unicode="x" horiz-adv-x="1472" d="M-100 0l647 801l-314 739h381l187 -485l381 485h374l-620 -766l332 -774h-381l-205 522l-410 -522h-372z" />
<glyph unicode="y" horiz-adv-x="1538" d="M184 1540h375l229 -625l461 625h373l-713 -913l-110 -627h-353l111 629z" />
<glyph unicode="z" horiz-adv-x="1372" d="M-43 0l35 207l928 1075h-715l45 258h1157l-37 -215l-919 -1065h735l-45 -260h-1184z" />
<glyph unicode="{" horiz-adv-x="929" d="M37 649l43 234q145 14 216 65t93 174l62 328q27 143 78 223t133.5 113t214.5 33h141l-41 -226h-31q-74 0 -105.5 -24.5t-45.5 -98.5l-66 -346q-27 -147 -96.5 -229t-204.5 -129q90 -33 135 -92.5t45 -153.5q0 -57 -22 -172l-54 -276q-6 -39 -6 -56q0 -45 27 -61t82 -16 h45l-41 -226h-135q-316 0 -316 254q0 66 25 199l43 231q10 51 10 74q0 88 -53 127t-176 51z" />
<glyph unicode="|" horiz-adv-x="604" d="M-45 -389l395 2242h289l-397 -2242h-287z" />
<glyph unicode="}" horiz-adv-x="935" d="M-98 -287l39 226h32q74 0 106 24.5t46 97.5l63 347q27 141 97.5 227t206.5 131q-180 66 -181 244q0 57 23 172l51 278q2 12 5 29.5t3 30.5q0 43 -26.5 58t-81.5 15h-45l41 226h135q158 0 235.5 -63.5t77.5 -201.5q0 -59 -24 -188l-43 -231q-8 -49 -9 -78q0 -82 52.5 -122 t175.5 -52l-43 -234q-143 -14 -214 -65.5t-94 -173.5l-61 -328q-27 -143 -78 -223t-135 -113t-213 -33h-141z" />
<glyph unicode="~" horiz-adv-x="1439" d="M203 676q31 170 119 245.5t213 75.5q68 0 120 -17t119 -50q53 -27 82 -37t59 -10q57 0 91 36.5t51 92.5l194 -25q-29 -170 -116.5 -249t-214.5 -79q-68 0 -121.5 17.5t-120.5 52.5q-45 25 -78 37t-65 12q-94 0 -138 -131z" />
<glyph unicode="&#xa1;" horiz-adv-x="692" d="M0 0l238 1059h239l-139 -1059h-338zM236 1360q0 29 8 67q35 143 196 144q76 0 115 -32t39 -93q0 -31 -10 -68q-35 -145 -195 -145q-154 0 -153 127z" />
<glyph unicode="&#xa2;" horiz-adv-x="1445" d="M197 451q0 152 52 281.5t138 215.5q82 82 179.5 122t211.5 56l45 267h205l-45 -263q129 -10 231 -38l-40 -240q-139 35 -252 35q-164 0 -260 -94q-66 -63 -95.5 -152.5t-29.5 -181.5q0 -131 64.5 -189.5t213.5 -58.5q119 0 256 27l-41 -234q-106 -29 -252 -33l-45 -260 h-205l47 266q-379 68 -378 474z" />
<glyph unicode="&#xa3;" horiz-adv-x="1402" d="M100 53q0 68 29 114t111 140q51 59 79.5 101.5t47 106t18.5 155.5v28h-242l33 179l193 18q-10 63 -11 141q0 131 36 230.5t116 169.5q154 135 442 135q96 0 195.5 -14.5t181.5 -38.5l-37 -240q-166 39 -303 39q-152 0 -227 -70q-90 -82 -90 -246q0 -47 6 -102h366 l-36 -201h-310v-24q0 -141 -54 -244.5t-191 -196.5h735l-41 -233h-1041q-6 22 -6 53z" />
<glyph unicode="&#xa5;" horiz-adv-x="1421" d="M174 309l33 185h285l14 86h-283l31 184h211l-277 776h369l184 -659l416 659h356l-563 -776h207l-31 -184h-284l-17 -86h285l-31 -185h-284l-54 -309h-335l53 309h-285z" />
<glyph unicode="&#xa6;" horiz-adv-x="602" d="M-49 -389l155 878h289l-155 -878h-289zM195 985l153 868h289l-154 -868h-288z" />
<glyph unicode="&#xa8;" horiz-adv-x="1024" d="M295 1712zM295 1837q0 29 8 55q12 63 58.5 98t121.5 35q74 0 107 -30.5t33 -93.5q0 -29 -9 -56q-12 -63 -57 -98t-121 -35t-108.5 31t-32.5 94zM764 1837q0 25 6 55q14 63 59 98t121 35t109 -30.5t33 -93.5q0 -14 -9 -56q-12 -63 -58 -98t-122 -35q-74 0 -106.5 31 t-32.5 94z" />
<glyph unicode="&#xa9;" horiz-adv-x="1837" d="M109 657q0 256 122.5 465t334.5 329t468 120q211 0 370 -82t246 -237.5t87 -370.5q0 -256 -123 -464t-335 -328t-468 -120q-209 0 -367.5 82t-246.5 236.5t-88 369.5zM342 670q0 -233 130 -364.5t357 -131.5q193 0 346.5 92t240.5 251t87 351q0 233 -129 365.5 t-358 132.5q-193 0 -346.5 -93t-240.5 -252t-87 -351zM575 684q0 115 44.5 230.5t134.5 185.5q51 39 110.5 56.5t134.5 17.5q117 0 226 -39l-49 -136q-88 27 -152 27q-57 0 -96 -18.5t-70 -55.5q-39 -49 -58.5 -118.5t-19.5 -139.5q0 -84 31 -125q35 -43 137 -43 q55 0 146 15l-4 -140q-86 -23 -191 -22q-182 0 -264 102q-59 74 -60 203z" />
<glyph unicode="&#xab;" horiz-adv-x="1337" d="M141 762q0 39 22.5 73.5t63.5 71.5l414 369l123 -117l-352 -403l213 -412l-154 -90l-272 373q-57 78 -58 135zM649 762q0 39 21.5 72.5t64.5 72.5l414 369l121 -117l-350 -403l210 -412l-153 -90l-272 373q-55 78 -56 135z" />
<glyph unicode="&#xac;" horiz-adv-x="1474" d="M301 840l39 213h842l-115 -645h-229l77 432h-614z" />
<glyph unicode="&#xad;" horiz-adv-x="806" d="M106 633l48 264h544l-47 -264h-545z" />
<glyph unicode="&#xae;" horiz-adv-x="1837" d="M109 657q0 256 122.5 465t334.5 329t468 120q211 0 370 -82t246 -237.5t87 -370.5q0 -256 -123 -464t-335 -328t-468 -120q-209 0 -367.5 82t-246.5 236.5t-88 369.5zM342 670q0 -233 130 -364.5t357 -131.5q193 0 346.5 92t240.5 251t87 351q0 233 -129 365.5 t-358 132.5q-193 0 -346.5 -93t-240.5 -252t-87 -351zM584 395l135 770h260q137 0 209 -55t72 -162q0 -88 -48.5 -150.5t-136.5 -97.5l117 -305h-188l-89 275h-96l-47 -275h-188zM842 803h61q80 0 118 39t38 100q0 47 -24.5 67.5t-80.5 20.5h-73z" />
<glyph unicode="&#xaf;" horiz-adv-x="1024" d="M324 1747l41 219h665l-41 -219h-665zM324 1747z" />
<glyph unicode="&#xb0;" horiz-adv-x="1241" d="M252 1069q0 115 45 219.5t131 173.5q133 109 336 109q184 0 279.5 -93.5t95.5 -260.5q0 -115 -45 -219.5t-131 -174.5q-133 -109 -336 -108q-185 0 -280 93t-95 261zM514 1083q0 -154 141 -153q91 -1 150 65q35 39 53.5 95.5t18.5 111.5q0 154 -142 154q-90 0 -149 -66 q-35 -39 -53.5 -95t-18.5 -112z" />
<glyph unicode="&#xb1;" horiz-adv-x="1443" d="M168 0l37 211h843l-39 -211h-841zM168 0zM297 744l37 211h307l55 315h232l-58 -315h307l-39 -211h-307l-53 -316h-229l53 316h-305z" />
<glyph unicode="&#xb2;" horiz-adv-x="1230" d="M285 774q0 49 6 84q8 49 31.5 87t83.5 87l192 166q104 90 136 126t32 75q0 94 -145 94q-70 0 -170 -14l32 190q113 23 213 23q156 0 242 -61.5t86 -184.5q0 -90 -50 -156.5t-175 -171.5l-195 -164h361l-33 -180h-647z" />
<glyph unicode="&#xb3;" horiz-adv-x="1243" d="M346 797l31 180q82 -14 168 -14t145.5 23.5t59.5 92.5q0 49 -35 66.5t-113 17.5h-55l28 164h64q63 0 108.5 21.5t45.5 70.5q0 45 -40 64.5t-116 19.5q-90 0 -158 -12l31 178q82 23 188 23q158 0 248 -60.5t90 -169.5q0 -68 -36.5 -123t-110.5 -90q117 -57 117 -182 q0 -94 -62.5 -160.5t-163 -100.5t-215.5 -34q-110 0 -219 25z" />
<glyph unicode="&#xb4;" horiz-adv-x="1024" d="M387 1675zM387 1839l512 315l133 -243l-549 -236z" />
<glyph unicode="&#xb6;" horiz-adv-x="1523" d="M190 1077q0 98 39 190.5t123 157.5q80 61 189.5 88t255.5 27h721l-39 -223h-154l-311 -1774h-256l313 1774h-170l-313 -1774h-256l211 1182q-158 14 -255.5 100t-97.5 252z" />
<glyph unicode="&#xb7;" horiz-adv-x="600" d="M135 600zM135 725q0 29 8 68q35 145 197 145q76 0 114.5 -32.5t38.5 -94.5q0 -20 -10 -67q-35 -143 -197 -144q-151 0 -151 125z" />
<glyph unicode="&#xb8;" horiz-adv-x="1024" d="M135 0zM135 -537l31 164q66 -16 135 -16q55 0 89 14.5t34 42.5q0 25 -20.5 38t-44 22.5t-29.5 11.5q-72 25 -95.5 49.5t-23.5 67.5l2 24q4 29 24.5 67t45.5 62h159q-18 -43 -20 -69q0 -16 13.5 -28.5t39.5 -25.5q68 -35 101.5 -58.5t52 -57t18.5 -86.5q0 -117 -84 -185 q-82 -68 -219 -67q-113 -1 -209 30z" />
<glyph unicode="&#xb9;" horiz-adv-x="1269" d="M360 784l33 179h162l94 540h-153l32 178q61 6 132 9.5t124 3.5q63 0 95 -15.5t32 -58.5q0 -23 -16 -111l-96 -546h125l-31 -179h-533z" />
<glyph unicode="&#xbb;" horiz-adv-x="1337" d="M68 371l350 403l-211 412l153 90l273 -373q55 -76 55 -135q0 -39 -21.5 -72.5t-64.5 -72.5l-414 -369zM573 371l353 403l-213 412l153 90l273 -373q57 -78 57 -135q0 -39 -22.5 -74t-63.5 -71l-414 -369z" />
<glyph unicode="&#xbc;" horiz-adv-x="2363" d="M262 643l33 178h162l94 541h-154l33 178q61 6 132 9t124 3q63 0 95 -15t32 -58q0 -23 -16 -111l-97 -547h125l-30 -178h-533zM467 -31l1102 1602h284l-1103 -1602h-283zM1309 223q0 35 14 73t49 110l254 497h256l-270 -520h162l41 199h223l-41 -199h88l-33 -188h-88 l-35 -195h-225l35 195h-426q-4 12 -4 28z" />
<glyph unicode="&#xbd;" horiz-adv-x="2367" d="M274 0zM274 643l33 179h162l94 540h-153l32 178q61 6 132 9.5t124 3.5q63 0 95 -15.5t32 -58.5q0 -23 -16 -111l-96 -546h125l-31 -179h-533zM477 -31l1102 1602h285l-1104 -1602h-283zM1350 0q0 49 6 84q8 49 31.5 87t83.5 87l192 166q104 90 136 126t32 75 q0 94 -145 94q-70 0 -170 -14l32 190q113 23 213 23q156 0 242 -61.5t86 -184.5q0 -90 -50 -156.5t-175 -171.5l-195 -164h361l-33 -180h-647z" />
<glyph unicode="&#xbe;" horiz-adv-x="2359" d="M238 655l30 181q82 -14 168 -15q86 0 145.5 23.5t59.5 93.5q0 49 -35 66.5t-112 17.5h-56l29 164h63q63 0 108.5 21.5t45.5 70.5q0 45 -40 64.5t-116 19.5q-90 0 -157 -12l30 178q82 23 189 22q158 0 248 -60t90 -169q0 -68 -37 -123t-111 -90q117 -57 117 -182 q0 -94 -62.5 -161t-163 -100.5t-214.5 -33.5q-110 -1 -219 24zM469 -31l1102 1602h284l-1103 -1602h-283zM1311 223q0 35 14 73t49 110l256 497h254l-270 -520h162l41 199h223l-41 -199h88l-31 -188h-88l-37 -195h-225l37 195h-426q-6 18 -6 28z" />
<glyph unicode="&#xbf;" horiz-adv-x="1032" d="M-25 315q0 129 59.5 227.5t158.5 186.5q106 94 151 139t69.5 84t49.5 101h235q-8 -86 -33.5 -147.5t-60.5 -106.5t-100 -115q-96 -100 -134 -158.5t-38 -132.5q0 -164 196 -164q90 0 228 41l18 -241q-168 -61 -356 -62q-217 0 -330 89t-113 259zM459 1358q0 29 8 67 q35 143 197 144q75 0 114 -32t39 -93q0 -31 -10 -68q-35 -145 -195 -145q-154 0 -153 127z" />
<glyph unicode="&#xc0;" d="M-104 0l786 1540h387l287 -1540h-361l-61 387h-500l-186 -387h-352zM0 0zM506 1931l158 219l401 -321l-115 -154zM559 641h334l-76 537h-4z" />
<glyph unicode="&#xc1;" d="M-104 0l786 1540h387l287 -1540h-361l-61 387h-500l-186 -387h-352zM0 0zM559 641h334l-76 537h-4zM637 1839l512 315l133 -243l-549 -236z" />
<glyph unicode="&#xc2;" d="M-104 0l786 1540h387l287 -1540h-361l-61 387h-500l-186 -387h-352zM0 0zM512 1769l332 320h217l227 -340l-121 -100l-235 221l-320 -221zM559 641h334l-76 537h-4z" />
<glyph unicode="&#xc3;" d="M-104 0l786 1540h387l287 -1540h-361l-61 387h-500l-186 -387h-352zM0 0zM516 1741q23 143 100.5 226t190.5 83q51 0 91 -14.5t91 -40.5q43 -23 70 -33t55 -10q82 0 123 106l156 -24q-25 -141 -102.5 -224.5t-190.5 -83.5q-47 0 -84 13.5t-94 40.5q-45 23 -72 33t-57 10 q-80 0 -121 -107zM559 641h334l-76 537h-4z" />
<glyph unicode="&#xc4;" d="M-104 0l786 1540h387l287 -1540h-361l-61 387h-500l-186 -387h-352zM0 0zM528 1837q0 29 8 55q12 63 58.5 98t121.5 35q74 0 107 -30.5t33 -93.5q0 -29 -9 -56q-12 -63 -57 -98t-121 -35t-108.5 31t-32.5 94zM559 641h334l-76 537h-4zM997 1837q0 25 6 55q14 63 59 98 t121 35t109 -30.5t33 -93.5q0 -14 -9 -56q-12 -63 -58 -98t-122 -35q-74 0 -106.5 31t-32.5 94z" />
<glyph unicode="&#xc5;" d="M-104 0l786 1540h387l287 -1540h-361l-61 387h-500l-186 -387h-352zM0 0zM559 641h334l-76 537h-4zM647 1884q0 125 62 207q80 104 266 104q123 0 188.5 -59t65.5 -160q0 -125 -61 -207q-80 -104 -267 -104q-123 0 -188.5 59.5t-65.5 159.5zM815 1903q0 -92 103 -93 q81 1 116 52q27 41 27 96q0 92 -102 92q-82 0 -117 -51q-27 -39 -27 -96z" />
<glyph unicode="&#xc6;" horiz-adv-x="2338" d="M-111 0l1221 1540h1245l-71 -254h-662l-66 -373h529l-47 -264h-529l-69 -395h698l-41 -254h-1053l74 422h-520l-319 -422h-390zM797 672h364l109 614h-4z" />
<glyph unicode="&#xc7;" horiz-adv-x="1355" d="M84 580q0 207 68.5 416.5t201.5 351.5q209 223 570 223q203 0 434 -76l-88 -250q-188 53 -318 53q-114 0 -205.5 -42t-160.5 -152q-63 -98 -100 -235.5t-37 -270.5q0 -170 65 -254q43 -55 112.5 -78.5t174.5 -23.5q152 0 309 30l-8 -256q-74 -20 -177.5 -33.5 t-199.5 -13.5h-12q-6 -16 -6 -28q0 -16 13 -28.5t40 -25.5q68 -35 101.5 -58.5t52 -57t18.5 -86.5q0 -117 -84 -185q-82 -68 -219 -67q-113 0 -209 30l31 164q66 -16 135 -16q55 0 89 14.5t34 42.5q0 25 -20.5 38t-44 22.5t-30.5 11.5q-72 25 -95 49.5t-23 67.5l2 24 q6 45 47 103q-461 78 -461 596z" />
<glyph unicode="&#xc8;" horiz-adv-x="1341" d="M47 0l270 1540h1041l-72 -254h-663l-64 -373h528l-47 -264h-528l-68 -395h697l-41 -254h-1053zM47 0zM508 1931l158 219l401 -321l-115 -154z" />
<glyph unicode="&#xc9;" horiz-adv-x="1341" d="M47 0l270 1540h1041l-72 -254h-663l-64 -373h528l-47 -264h-528l-68 -395h697l-41 -254h-1053zM47 0zM584 1839l512 315l133 -243l-549 -236z" />
<glyph unicode="&#xca;" horiz-adv-x="1341" d="M47 0l270 1540h1041l-72 -254h-663l-64 -373h528l-47 -264h-528l-68 -395h697l-41 -254h-1053zM47 0zM459 1769l332 320h217l227 -340l-121 -100l-235 221l-320 -221z" />
<glyph unicode="&#xcb;" horiz-adv-x="1341" d="M47 0l270 1540h1041l-72 -254h-663l-64 -373h528l-47 -264h-528l-68 -395h697l-41 -254h-1053zM47 0zM475 1837q0 29 8 55q12 63 58.5 98t121.5 35q74 0 107 -30.5t33 -93.5q0 -29 -9 -56q-12 -63 -57 -98t-121 -35t-108.5 31t-32.5 94zM944 1837q0 25 6 55q14 63 59 98 t121 35t109 -30.5t33 -93.5q0 -14 -9 -56q-12 -63 -58 -98t-122 -35q-74 0 -106.5 31t-32.5 94z" />
<glyph unicode="&#xcc;" horiz-adv-x="743" d="M61 0l269 1540h352l-270 -1540h-351zM61 0zM295 1931l158 219l401 -321l-115 -154z" />
<glyph unicode="&#xcd;" horiz-adv-x="743" d="M61 0l269 1540h352l-270 -1540h-351zM61 0zM252 1839l512 315l133 -243l-549 -236z" />
<glyph unicode="&#xce;" horiz-adv-x="743" d="M61 0l269 1540h352l-270 -1540h-351zM61 0zM154 1769l332 320h217l227 -340l-121 -100l-235 221l-320 -221z" />
<glyph unicode="&#xcf;" horiz-adv-x="743" d="M61 0l269 1540h352l-270 -1540h-351zM61 0zM143 1837q0 29 8 55q12 63 58.5 98t121.5 35q74 0 107 -30.5t33 -93.5q0 -29 -9 -56q-12 -63 -57 -98t-121 -35t-108.5 31t-32.5 94zM612 1837q0 25 6 55q14 63 59 98t121 35t109 -30.5t33 -93.5q0 -14 -9 -56q-12 -63 -58 -98 t-122 -35q-74 0 -106.5 31t-32.5 94z" />
<glyph unicode="&#xd0;" horiz-adv-x="1597" d="M27 0zM27 649l41 230l165 26l113 635h457q408 0 573 -174q72 -76 103.5 -182.5t31.5 -245.5q0 -209 -64.5 -395.5t-189.5 -313.5q-123 -125 -291.5 -177t-412.5 -52h-477l112 649h-161zM473 256h117q147 0 245.5 43t170.5 147q63 90 102 218.5t39 267.5q0 174 -74 260 q-41 47 -108.5 69.5t-169.5 22.5h-144l-63 -371h313l-47 -264h-313z" />
<glyph unicode="&#xd1;" horiz-adv-x="1660" d="M47 0l270 1540h254l557 -1008l179 1008h309l-273 -1540h-276l-543 958l-168 -958h-309zM47 0zM587 1741q23 143 100.5 226t190.5 83q51 0 91 -14.5t91 -40.5q43 -23 70 -33t55 -10q82 0 123 106l156 -24q-25 -141 -102.5 -224.5t-190.5 -83.5q-47 0 -84 13.5t-94 40.5 q-45 23 -72 33t-57 10q-80 0 -121 -107z" />
<glyph unicode="&#xd2;" horiz-adv-x="1605" d="M84 0zM84 578q0 162 44 328.5t120 297.5q215 367 667 367q285 0 445 -148.5t160 -459.5q0 -160 -42 -329t-120 -300q-211 -365 -674 -365q-281 0 -440.5 148.5t-159.5 460.5zM449 573q0 -176 66.5 -252.5t189.5 -76.5q114 0 195 58t140 169q55 104 86 238.5t31 255.5 q0 176 -66.5 252.5t-191.5 76.5q-115 0 -195.5 -58t-138.5 -169q-55 -104 -85.5 -237.5t-30.5 -256.5zM623 1931l158 219l401 -321l-115 -154z" />
<glyph unicode="&#xd3;" horiz-adv-x="1605" d="M84 0zM84 578q0 162 44 328.5t120 297.5q215 367 667 367q285 0 445 -148.5t160 -459.5q0 -160 -42 -329t-120 -300q-211 -365 -674 -365q-281 0 -440.5 148.5t-159.5 460.5zM449 573q0 -176 66.5 -252.5t189.5 -76.5q114 0 195 58t140 169q55 104 86 238.5t31 255.5 q0 176 -66.5 252.5t-191.5 76.5q-115 0 -195.5 -58t-138.5 -169q-55 -104 -85.5 -237.5t-30.5 -256.5zM682 1839l512 315l133 -243l-549 -236z" />
<glyph unicode="&#xd4;" horiz-adv-x="1605" d="M84 0zM84 578q0 162 44 328.5t120 297.5q215 367 667 367q285 0 445 -148.5t160 -459.5q0 -160 -42 -329t-120 -300q-211 -365 -674 -365q-281 0 -440.5 148.5t-159.5 460.5zM449 573q0 -176 66.5 -252.5t189.5 -76.5q114 0 195 58t140 169q55 104 86 238.5t31 255.5 q0 176 -66.5 252.5t-191.5 76.5q-115 0 -195.5 -58t-138.5 -169q-55 -104 -85.5 -237.5t-30.5 -256.5zM557 1769l332 320h217l227 -340l-121 -100l-235 221l-320 -221z" />
<glyph unicode="&#xd5;" horiz-adv-x="1605" d="M84 0zM84 578q0 162 44 328.5t120 297.5q215 367 667 367q285 0 445 -148.5t160 -459.5q0 -160 -42 -329t-120 -300q-211 -365 -674 -365q-281 0 -440.5 148.5t-159.5 460.5zM449 573q0 -176 66.5 -252.5t189.5 -76.5q114 0 195 58t140 169q55 104 86 238.5t31 255.5 q0 176 -66.5 252.5t-191.5 76.5q-115 0 -195.5 -58t-138.5 -169q-55 -104 -85.5 -237.5t-30.5 -256.5zM561 1741q23 143 100.5 226t190.5 83q51 0 91 -14.5t91 -40.5q43 -23 70 -33t55 -10q82 0 123 106l156 -24q-25 -141 -102.5 -224.5t-190.5 -83.5q-47 0 -84 13.5 t-94 40.5q-45 23 -72 33t-57 10q-80 0 -121 -107z" />
<glyph unicode="&#xd6;" horiz-adv-x="1605" d="M84 0zM84 578q0 162 44 328.5t120 297.5q215 367 667 367q285 0 445 -148.5t160 -459.5q0 -160 -42 -329t-120 -300q-211 -365 -674 -365q-281 0 -440.5 148.5t-159.5 460.5zM449 573q0 -176 66.5 -252.5t189.5 -76.5q114 0 195 58t140 169q55 104 86 238.5t31 255.5 q0 176 -66.5 252.5t-191.5 76.5q-115 0 -195.5 -58t-138.5 -169q-55 -104 -85.5 -237.5t-30.5 -256.5zM574 1837q0 29 8 55q12 63 58.5 98t121.5 35q74 0 107 -30.5t33 -93.5q0 -29 -9 -56q-12 -63 -57 -98t-121 -35t-108.5 31t-32.5 94zM1043 1837q0 25 6 55q14 63 59 98 t121 35t109 -30.5t33 -93.5q0 -14 -9 -56q-12 -63 -58 -98t-122 -35q-74 0 -106.5 31t-32.5 94z" />
<glyph unicode="&#xd7;" horiz-adv-x="1480" d="M311 510l277 231l-178 232l161 131l179 -230l274 230l135 -154l-282 -237l174 -226l-162 -131l-176 226l-267 -226z" />
<glyph unicode="&#xd8;" horiz-adv-x="1605" d="M84 582q0 160 44 326.5t120 295.5q217 367 665 367q121 0 213 -25l84 160h197l-123 -225q113 -68 174.5 -198t61.5 -316q0 -166 -42 -333t-120 -300q-104 -180 -272 -272.5t-410 -92.5q-104 0 -201 25l-86 -160h-196l124 227q-233 147 -233 521zM449 575q0 -121 36 -208 l498 917q-39 10 -86 10q-113 0 -193.5 -58t-138.5 -169q-53 -100 -84.5 -234.5t-31.5 -257.5zM621 254q33 -10 84 -10q214 0 335 227q55 104 86 236.5t31 253.5q0 143 -41 215z" />
<glyph unicode="&#xd9;" horiz-adv-x="1597" d="M129 0zM129 477q0 100 27 248l145 815h344l-160 -905q-16 -98 -16 -154q0 -102 47 -162q63 -82 211 -81q162 0 244 94q37 43 62.5 108.5t45.5 171.5l164 928h316l-183 -1032q-47 -264 -207 -397q-170 -141 -456 -142q-276 0 -432 131q-80 70 -116 161t-36 216zM584 1931 l158 219l401 -321l-115 -154z" />
<glyph unicode="&#xda;" horiz-adv-x="1597" d="M129 0zM129 477q0 100 27 248l145 815h344l-160 -905q-16 -98 -16 -154q0 -102 47 -162q63 -82 211 -81q162 0 244 94q37 43 62.5 108.5t45.5 171.5l164 928h316l-183 -1032q-47 -264 -207 -397q-170 -141 -456 -142q-276 0 -432 131q-80 70 -116 161t-36 216zM704 1839 l512 315l133 -243l-549 -236z" />
<glyph unicode="&#xdb;" horiz-adv-x="1597" d="M129 0zM129 477q0 100 27 248l145 815h344l-160 -905q-16 -98 -16 -154q0 -102 47 -162q63 -82 211 -81q162 0 244 94q37 43 62.5 108.5t45.5 171.5l164 928h316l-183 -1032q-47 -264 -207 -397q-170 -141 -456 -142q-276 0 -432 131q-80 70 -116 161t-36 216zM580 1769 l332 320h217l227 -340l-121 -100l-235 221l-320 -221z" />
<glyph unicode="&#xdc;" horiz-adv-x="1597" d="M129 0zM129 477q0 100 27 248l145 815h344l-160 -905q-16 -98 -16 -154q0 -102 47 -162q63 -82 211 -81q162 0 244 94q37 43 62.5 108.5t45.5 171.5l164 928h316l-183 -1032q-47 -264 -207 -397q-170 -141 -456 -142q-276 0 -432 131q-80 70 -116 161t-36 216zM596 1837 q0 29 8 55q12 63 58.5 98t121.5 35q74 0 107 -30.5t33 -93.5q0 -29 -9 -56q-12 -63 -57 -98t-121 -35t-108.5 31t-32.5 94zM1065 1837q0 25 6 55q14 63 59 98t121 35t109 -30.5t33 -93.5q0 -14 -9 -56q-12 -63 -58 -98t-122 -35q-74 0 -106.5 31t-32.5 94z" />
<glyph unicode="&#xdd;" horiz-adv-x="1538" d="M184 0zM184 1540h375l229 -625l461 625h373l-713 -913l-110 -627h-353l111 629zM674 1839l512 315l133 -243l-549 -236z" />
<glyph unicode="&#xde;" horiz-adv-x="1425" d="M47 0l270 1540h351l-45 -256h147q152 0 264.5 -33.5t179.5 -93.5q125 -106 125 -317q0 -119 -42 -221.5t-113 -172.5q-172 -172 -551 -172h-187l-47 -274h-352zM494 539h147q160 0 248 65q51 39 76.5 97.5t25.5 125.5q0 82 -41 134q-59 70 -211 69h-161z" />
<glyph unicode="&#xe0;" d="M-104 0l786 1540h387l287 -1540h-361l-61 387h-500l-186 -387h-352zM0 0zM506 1931l158 219l401 -321l-115 -154zM559 641h334l-76 537h-4z" />
<glyph unicode="&#xe1;" d="M-104 0l786 1540h387l287 -1540h-361l-61 387h-500l-186 -387h-352zM0 0zM559 641h334l-76 537h-4zM637 1839l512 315l133 -243l-549 -236z" />
<glyph unicode="&#xe2;" d="M-104 0l786 1540h387l287 -1540h-361l-61 387h-500l-186 -387h-352zM0 0zM512 1769l332 320h217l227 -340l-121 -100l-235 221l-320 -221zM559 641h334l-76 537h-4z" />
<glyph unicode="&#xe3;" d="M-104 0l786 1540h387l287 -1540h-361l-61 387h-500l-186 -387h-352zM0 0zM516 1741q23 143 100.5 226t190.5 83q51 0 91 -14.5t91 -40.5q43 -23 70 -33t55 -10q82 0 123 106l156 -24q-25 -141 -102.5 -224.5t-190.5 -83.5q-47 0 -84 13.5t-94 40.5q-45 23 -72 33t-57 10 q-80 0 -121 -107zM559 641h334l-76 537h-4z" />
<glyph unicode="&#xe4;" d="M-104 0l786 1540h387l287 -1540h-361l-61 387h-500l-186 -387h-352zM0 0zM528 1837q0 29 8 55q12 63 58.5 98t121.5 35q74 0 107 -30.5t33 -93.5q0 -29 -9 -56q-12 -63 -57 -98t-121 -35t-108.5 31t-32.5 94zM559 641h334l-76 537h-4zM997 1837q0 25 6 55q14 63 59 98 t121 35t109 -30.5t33 -93.5q0 -14 -9 -56q-12 -63 -58 -98t-122 -35q-74 0 -106.5 31t-32.5 94z" />
<glyph unicode="&#xe5;" d="M-104 0l786 1540h387l287 -1540h-361l-61 387h-500l-186 -387h-352zM0 0zM559 641h334l-76 537h-4zM647 1884q0 125 62 207q80 104 266 104q123 0 188.5 -59t65.5 -160q0 -125 -61 -207q-80 -104 -267 -104q-123 0 -188.5 59.5t-65.5 159.5zM815 1903q0 -92 103 -93 q81 1 116 52q27 41 27 96q0 92 -102 92q-82 0 -117 -51q-27 -39 -27 -96z" />
<glyph unicode="&#xe6;" horiz-adv-x="2338" d="M-111 0l1221 1540h1245l-71 -254h-662l-66 -373h529l-47 -264h-529l-69 -395h698l-41 -254h-1053l74 422h-520l-319 -422h-390zM797 672h364l109 614h-4z" />
<glyph unicode="&#xe7;" horiz-adv-x="1355" d="M84 0zM84 580q0 207 68.5 416.5t201.5 351.5q209 223 570 223q203 0 434 -76l-88 -250q-188 53 -318 53q-114 0 -205.5 -42t-160.5 -152q-63 -98 -100 -235.5t-37 -270.5q0 -170 65 -254q43 -55 112.5 -78.5t174.5 -23.5q152 0 309 30l-8 -256q-74 -20 -177.5 -33.5 t-199.5 -13.5h-12q-6 -16 -6 -28q0 -16 13 -28.5t40 -25.5q68 -35 101.5 -58.5t52 -57t18.5 -86.5q0 -117 -84 -185q-82 -68 -219 -67q-113 0 -209 30l31 164q66 -16 135 -16q55 0 89 14.5t34 42.5q0 25 -20.5 38t-44 22.5t-30.5 11.5q-72 25 -95 49.5t-23 67.5l2 24 q6 45 47 103q-461 78 -461 596z" />
<glyph unicode="&#xe8;" horiz-adv-x="1341" d="M47 0l270 1540h1041l-72 -254h-663l-64 -373h528l-47 -264h-528l-68 -395h697l-41 -254h-1053zM47 0zM508 1931l158 219l401 -321l-115 -154z" />
<glyph unicode="&#xe9;" horiz-adv-x="1341" d="M47 0l270 1540h1041l-72 -254h-663l-64 -373h528l-47 -264h-528l-68 -395h697l-41 -254h-1053zM47 0zM584 1839l512 315l133 -243l-549 -236z" />
<glyph unicode="&#xea;" horiz-adv-x="1341" d="M47 0l270 1540h1041l-72 -254h-663l-64 -373h528l-47 -264h-528l-68 -395h697l-41 -254h-1053zM47 0zM459 1769l332 320h217l227 -340l-121 -100l-235 221l-320 -221z" />
<glyph unicode="&#xeb;" horiz-adv-x="1341" d="M47 0l270 1540h1041l-72 -254h-663l-64 -373h528l-47 -264h-528l-68 -395h697l-41 -254h-1053zM47 0zM475 1837q0 29 8 55q12 63 58.5 98t121.5 35q74 0 107 -30.5t33 -93.5q0 -29 -9 -56q-12 -63 -57 -98t-121 -35t-108.5 31t-32.5 94zM944 1837q0 25 6 55q14 63 59 98 t121 35t109 -30.5t33 -93.5q0 -14 -9 -56q-12 -63 -58 -98t-122 -35q-74 0 -106.5 31t-32.5 94z" />
<glyph unicode="&#xec;" horiz-adv-x="743" d="M61 0l269 1540h352l-270 -1540h-351zM61 0zM295 1931l158 219l401 -321l-115 -154z" />
<glyph unicode="&#xed;" horiz-adv-x="743" d="M61 0l269 1540h352l-270 -1540h-351zM61 0zM252 1839l512 315l133 -243l-549 -236z" />
<glyph unicode="&#xee;" horiz-adv-x="743" d="M61 0l269 1540h352l-270 -1540h-351zM61 0zM154 1769l332 320h217l227 -340l-121 -100l-235 221l-320 -221z" />
<glyph unicode="&#xef;" horiz-adv-x="743" d="M61 0l269 1540h352l-270 -1540h-351zM61 0zM143 1837q0 29 8 55q12 63 58.5 98t121.5 35q74 0 107 -30.5t33 -93.5q0 -29 -9 -56q-12 -63 -57 -98t-121 -35t-108.5 31t-32.5 94zM612 1837q0 25 6 55q14 63 59 98t121 35t109 -30.5t33 -93.5q0 -14 -9 -56q-12 -63 -58 -98 t-122 -35q-74 0 -106.5 31t-32.5 94z" />
<glyph unicode="&#xf0;" horiz-adv-x="1597" d="M27 0zM27 649l41 230l165 26l113 635h457q408 0 573 -174q72 -76 103.5 -182.5t31.5 -245.5q0 -209 -64.5 -395.5t-189.5 -313.5q-123 -125 -291.5 -177t-412.5 -52h-477l112 649h-161zM473 256h117q147 0 245.5 43t170.5 147q63 90 102 218.5t39 267.5q0 174 -74 260 q-41 47 -108.5 69.5t-169.5 22.5h-144l-63 -371h313l-47 -264h-313z" />
<glyph unicode="&#xf1;" horiz-adv-x="1660" d="M47 0l270 1540h254l557 -1008l179 1008h309l-273 -1540h-276l-543 958l-168 -958h-309zM47 0zM587 1741q23 143 100.5 226t190.5 83q51 0 91 -14.5t91 -40.5q43 -23 70 -33t55 -10q82 0 123 106l156 -24q-25 -141 -102.5 -224.5t-190.5 -83.5q-47 0 -84 13.5t-94 40.5 q-45 23 -72 33t-57 10q-80 0 -121 -107z" />
<glyph unicode="&#xf2;" horiz-adv-x="1605" d="M84 0zM84 578q0 162 44 328.5t120 297.5q215 367 667 367q285 0 445 -148.5t160 -459.5q0 -160 -42 -329t-120 -300q-211 -365 -674 -365q-281 0 -440.5 148.5t-159.5 460.5zM449 573q0 -176 66.5 -252.5t189.5 -76.5q114 0 195 58t140 169q55 104 86 238.5t31 255.5 q0 176 -66.5 252.5t-191.5 76.5q-115 0 -195.5 -58t-138.5 -169q-55 -104 -85.5 -237.5t-30.5 -256.5zM623 1931l158 219l401 -321l-115 -154z" />
<glyph unicode="&#xf3;" horiz-adv-x="1605" d="M84 0zM84 578q0 162 44 328.5t120 297.5q215 367 667 367q285 0 445 -148.5t160 -459.5q0 -160 -42 -329t-120 -300q-211 -365 -674 -365q-281 0 -440.5 148.5t-159.5 460.5zM449 573q0 -176 66.5 -252.5t189.5 -76.5q114 0 195 58t140 169q55 104 86 238.5t31 255.5 q0 176 -66.5 252.5t-191.5 76.5q-115 0 -195.5 -58t-138.5 -169q-55 -104 -85.5 -237.5t-30.5 -256.5zM682 1839l512 315l133 -243l-549 -236z" />
<glyph unicode="&#xf4;" horiz-adv-x="1605" d="M84 0zM84 578q0 162 44 328.5t120 297.5q215 367 667 367q285 0 445 -148.5t160 -459.5q0 -160 -42 -329t-120 -300q-211 -365 -674 -365q-281 0 -440.5 148.5t-159.5 460.5zM449 573q0 -176 66.5 -252.5t189.5 -76.5q114 0 195 58t140 169q55 104 86 238.5t31 255.5 q0 176 -66.5 252.5t-191.5 76.5q-115 0 -195.5 -58t-138.5 -169q-55 -104 -85.5 -237.5t-30.5 -256.5zM557 1769l332 320h217l227 -340l-121 -100l-235 221l-320 -221z" />
<glyph unicode="&#xf5;" horiz-adv-x="1605" d="M84 0zM84 578q0 162 44 328.5t120 297.5q215 367 667 367q285 0 445 -148.5t160 -459.5q0 -160 -42 -329t-120 -300q-211 -365 -674 -365q-281 0 -440.5 148.5t-159.5 460.5zM449 573q0 -176 66.5 -252.5t189.5 -76.5q114 0 195 58t140 169q55 104 86 238.5t31 255.5 q0 176 -66.5 252.5t-191.5 76.5q-115 0 -195.5 -58t-138.5 -169q-55 -104 -85.5 -237.5t-30.5 -256.5zM561 1741q23 143 100.5 226t190.5 83q51 0 91 -14.5t91 -40.5q43 -23 70 -33t55 -10q82 0 123 106l156 -24q-25 -141 -102.5 -224.5t-190.5 -83.5q-47 0 -84 13.5 t-94 40.5q-45 23 -72 33t-57 10q-80 0 -121 -107z" />
<glyph unicode="&#xf6;" horiz-adv-x="1605" d="M84 0zM84 578q0 162 44 328.5t120 297.5q215 367 667 367q285 0 445 -148.5t160 -459.5q0 -160 -42 -329t-120 -300q-211 -365 -674 -365q-281 0 -440.5 148.5t-159.5 460.5zM449 573q0 -176 66.5 -252.5t189.5 -76.5q114 0 195 58t140 169q55 104 86 238.5t31 255.5 q0 176 -66.5 252.5t-191.5 76.5q-115 0 -195.5 -58t-138.5 -169q-55 -104 -85.5 -237.5t-30.5 -256.5zM574 1837q0 29 8 55q12 63 58.5 98t121.5 35q74 0 107 -30.5t33 -93.5q0 -29 -9 -56q-12 -63 -57 -98t-121 -35t-108.5 31t-32.5 94zM1043 1837q0 25 6 55q14 63 59 98 t121 35t109 -30.5t33 -93.5q0 -14 -9 -56q-12 -63 -58 -98t-122 -35q-74 0 -106.5 31t-32.5 94z" />
<glyph unicode="&#xf7;" horiz-adv-x="1472" d="M287 625l37 211h843l-39 -211h-841zM489 250q0 27 9 61q33 131 176 131q139 0 139 -114q0 -29 -6 -60q-12 -63 -58.5 -98t-121.5 -35q-68 0 -103 30t-35 85zM643 1124q0 31 10 68q18 66 59.5 98.5t114.5 32.5q141 0 142 -115q0 -29 -6 -59q-12 -63 -58.5 -98t-120.5 -35 q-67 0 -104 29.5t-37 78.5z" />
<glyph unicode="&#xf8;" horiz-adv-x="1605" d="M84 582q0 160 44 326.5t120 295.5q217 367 665 367q121 0 213 -25l84 160h197l-123 -225q113 -68 174.5 -198t61.5 -316q0 -166 -42 -333t-120 -300q-104 -180 -272 -272.5t-410 -92.5q-104 0 -201 25l-86 -160h-196l124 227q-233 147 -233 521zM449 575q0 -121 36 -208 l498 917q-39 10 -86 10q-113 0 -193.5 -58t-138.5 -169q-53 -100 -84.5 -234.5t-31.5 -257.5zM621 254q33 -10 84 -10q214 0 335 227q55 104 86 236.5t31 253.5q0 143 -41 215z" />
<glyph unicode="&#xf9;" horiz-adv-x="1597" d="M129 0zM129 477q0 100 27 248l145 815h344l-160 -905q-16 -98 -16 -154q0 -102 47 -162q63 -82 211 -81q162 0 244 94q37 43 62.5 108.5t45.5 171.5l164 928h316l-183 -1032q-47 -264 -207 -397q-170 -141 -456 -142q-276 0 -432 131q-80 70 -116 161t-36 216zM584 1931 l158 219l401 -321l-115 -154z" />
<glyph unicode="&#xfa;" horiz-adv-x="1597" d="M129 0zM129 477q0 100 27 248l145 815h344l-160 -905q-16 -98 -16 -154q0 -102 47 -162q63 -82 211 -81q162 0 244 94q37 43 62.5 108.5t45.5 171.5l164 928h316l-183 -1032q-47 -264 -207 -397q-170 -141 -456 -142q-276 0 -432 131q-80 70 -116 161t-36 216zM704 1839 l512 315l133 -243l-549 -236z" />
<glyph unicode="&#xfb;" horiz-adv-x="1597" d="M129 0zM129 477q0 100 27 248l145 815h344l-160 -905q-16 -98 -16 -154q0 -102 47 -162q63 -82 211 -81q162 0 244 94q37 43 62.5 108.5t45.5 171.5l164 928h316l-183 -1032q-47 -264 -207 -397q-170 -141 -456 -142q-276 0 -432 131q-80 70 -116 161t-36 216zM580 1769 l332 320h217l227 -340l-121 -100l-235 221l-320 -221z" />
<glyph unicode="&#xfc;" horiz-adv-x="1597" d="M129 0zM129 477q0 100 27 248l145 815h344l-160 -905q-16 -98 -16 -154q0 -102 47 -162q63 -82 211 -81q162 0 244 94q37 43 62.5 108.5t45.5 171.5l164 928h316l-183 -1032q-47 -264 -207 -397q-170 -141 -456 -142q-276 0 -432 131q-80 70 -116 161t-36 216zM596 1837 q0 29 8 55q12 63 58.5 98t121.5 35q74 0 107 -30.5t33 -93.5q0 -29 -9 -56q-12 -63 -57 -98t-121 -35t-108.5 31t-32.5 94zM1065 1837q0 25 6 55q14 63 59 98t121 35t109 -30.5t33 -93.5q0 -14 -9 -56q-12 -63 -58 -98t-122 -35q-74 0 -106.5 31t-32.5 94z" />
<glyph unicode="&#xfd;" horiz-adv-x="1538" d="M184 0zM184 1540h375l229 -625l461 625h373l-713 -913l-110 -627h-353l111 629zM674 1839l512 315l133 -243l-549 -236z" />
<glyph unicode="&#xfe;" horiz-adv-x="1425" d="M47 0l270 1540h351l-45 -256h147q152 0 264.5 -33.5t179.5 -93.5q125 -106 125 -317q0 -119 -42 -221.5t-113 -172.5q-172 -172 -551 -172h-187l-47 -274h-352zM494 539h147q160 0 248 65q51 39 76.5 97.5t25.5 125.5q0 82 -41 134q-59 70 -211 69h-161z" />
<glyph unicode="&#xff;" horiz-adv-x="1538" d="M184 0zM184 1540h375l229 -625l461 625h373l-713 -913l-110 -627h-353l111 629zM565 1837q0 29 8 55q12 63 58.5 98t121.5 35q74 0 107 -30.5t33 -93.5q0 -29 -9 -56q-12 -63 -57 -98t-121 -35t-108.5 31t-32.5 94zM1034 1837q0 25 6 55q14 63 59 98t121 35t109 -30.5 t33 -93.5q0 -14 -9 -56q-12 -63 -58 -98t-122 -35q-74 0 -106.5 31t-32.5 94z" />
<glyph unicode="&#x152;" horiz-adv-x="2226" d="M84 602q0 211 63.5 396.5t188.5 312.5q125 129 300 179t404 50h1203l-74 -254h-662l-65 -373h530l-47 -264h-530l-68 -395h698l-43 -254h-1196q-399 0 -567 176q-135 141 -135 426zM446 608q0 -178 74 -260q82 -92 281 -92h174l180 1028h-149q-150 0 -248.5 -42 t-169.5 -146q-63 -90 -102.5 -219t-39.5 -269z" />
<glyph unicode="&#x153;" horiz-adv-x="2226" d="M84 602q0 211 63.5 396.5t188.5 312.5q125 129 300 179t404 50h1203l-74 -254h-662l-65 -373h530l-47 -264h-530l-68 -395h698l-43 -254h-1196q-399 0 -567 176q-135 141 -135 426zM446 608q0 -178 74 -260q82 -92 281 -92h174l180 1028h-149q-150 0 -248.5 -42 t-169.5 -146q-63 -90 -102.5 -219t-39.5 -269z" />
<glyph unicode="&#x178;" horiz-adv-x="1538" d="M184 0zM184 1540h375l229 -625l461 625h373l-713 -913l-110 -627h-353l111 629zM565 1837q0 29 8 55q12 63 58.5 98t121.5 35q74 0 107 -30.5t33 -93.5q0 -29 -9 -56q-12 -63 -57 -98t-121 -35t-108.5 31t-32.5 94zM1034 1837q0 25 6 55q14 63 59 98t121 35t109 -30.5 t33 -93.5q0 -14 -9 -56q-12 -63 -58 -98t-122 -35q-74 0 -106.5 31t-32.5 94z" />
<glyph unicode="&#x2c6;" horiz-adv-x="1024" d="M295 1649zM295 1769l332 320h217l227 -340l-121 -100l-235 221l-320 -221z" />
<glyph unicode="&#x2dc;" horiz-adv-x="1024" d="M268 1716zM268 1741q23 143 100.5 226t190.5 83q51 0 91 -14.5t91 -40.5q43 -23 70 -33t55 -10q82 0 123 106l156 -24q-25 -141 -102.5 -224.5t-190.5 -83.5q-47 0 -84 13.5t-94 40.5q-45 23 -72 33t-57 10q-80 0 -121 -107z" />
<glyph unicode="&#x2000;" horiz-adv-x="1097" />
<glyph unicode="&#x2001;" horiz-adv-x="2195" />
<glyph unicode="&#x2002;" horiz-adv-x="1097" />
<glyph unicode="&#x2003;" horiz-adv-x="2195" />
<glyph unicode="&#x2004;" horiz-adv-x="731" />
<glyph unicode="&#x2005;" horiz-adv-x="548" />
<glyph unicode="&#x2006;" horiz-adv-x="365" />
<glyph unicode="&#x2007;" horiz-adv-x="365" />
<glyph unicode="&#x2008;" horiz-adv-x="274" />
<glyph unicode="&#x2009;" horiz-adv-x="439" />
<glyph unicode="&#x200a;" horiz-adv-x="121" />
<glyph unicode="&#x2010;" horiz-adv-x="806" d="M106 633l48 264h544l-47 -264h-545z" />
<glyph unicode="&#x2011;" horiz-adv-x="806" d="M106 633l48 264h544l-47 -264h-545z" />
<glyph unicode="&#x2012;" horiz-adv-x="806" d="M106 633l48 264h544l-47 -264h-545z" />
<glyph unicode="&#x2013;" horiz-adv-x="1024" d="M0 633l47 264h977l-47 -264h-977z" />
<glyph unicode="&#x2014;" horiz-adv-x="2048" d="M0 633l47 264h2001l-47 -264h-2001z" />
<glyph unicode="&#x2018;" horiz-adv-x="575" d="M190 1053q0 74 33 202.5t76 237.5q12 35 42 55.5t71 20.5h90l-68 -330q55 -10 84 -39t29 -86q0 -49 -20.5 -101t-61.5 -77q-47 -33 -123 -33q-78 0 -119 41q-33 31 -33 109z" />
<glyph unicode="&#x2019;" horiz-adv-x="544" d="M190 1356q0 51 20.5 103t61.5 77q47 33 123 33t121 -41q31 -31 31 -109q0 -74 -32 -203t-77 -239q-12 -33 -41.5 -53.5t-70.5 -20.5h-90l67 330q-113 16 -113 123z" />
<glyph unicode="&#x201a;" horiz-adv-x="589" d="M-31 94q0 51 20.5 103.5t61.5 76.5q51 33 125 33q78 0 119 -41q31 -31 31 -108q0 -74 -32 -202t-75 -241q-12 -33 -42 -53t-71 -20h-92l68 329q-113 16 -113 123z" />
<glyph unicode="&#x201c;" horiz-adv-x="1034" d="M190 1055q0 74 33 202.5t76 237.5q12 35 42 55.5t71 20.5h90l-68 -330q113 -16 113 -123q0 -51 -20.5 -103t-61.5 -77q-47 -33 -123 -33q-78 0 -119 41q-33 31 -33 109zM649 1055q0 72 33 200.5t76 239.5q12 33 41.5 54.5t70.5 21.5h91l-68 -330q113 -16 113 -123 q0 -51 -20.5 -103t-59.5 -77q-51 -33 -125 -33q-78 0 -119 41q-33 33 -33 109z" />
<glyph unicode="&#x201d;" horiz-adv-x="1003" d="M190 1356q0 51 20.5 103t61.5 77q47 33 123 33t121 -41q31 -31 31 -109q0 -74 -32 -203t-77 -239q-12 -33 -41.5 -53.5t-70.5 -20.5h-90l67 330q-113 16 -113 123zM649 1356q0 51 20.5 103t61.5 77q51 33 125 33q78 0 119 -41q31 -31 31 -109q0 -74 -32 -201.5 t-75 -240.5q-12 -33 -43 -53.5t-70 -20.5h-92l70 330q-115 16 -115 123z" />
<glyph unicode="&#x201e;" horiz-adv-x="1050" d="M-31 94q0 51 20.5 103.5t61.5 76.5q51 33 125 33q78 0 119 -41q31 -31 31 -108q0 -74 -32 -202t-75 -241q-12 -33 -42 -53t-71 -20h-92l68 329q-113 16 -113 123zM430 94q0 51 20.5 103.5t61.5 76.5q47 33 123 33q78 0 119 -41q33 -33 32 -108q0 -72 -32.5 -201 t-75.5 -242q-12 -33 -42 -53t-71 -20h-90l68 329q-113 16 -113 123z" />
<glyph unicode="&#x2022;" horiz-adv-x="909" d="M115 688q0 55 16 129q68 276 373 277q145 0 219 -62.5t74 -179.5q0 -37 -21 -129q-33 -133 -123 -201.5t-250 -68.5q-143 0 -215.5 60t-72.5 175z" />
<glyph unicode="&#x2026;" horiz-adv-x="1681" d="M-12 94q0 29 8 68q35 145 197 145q76 0 114.5 -32.5t38.5 -94.5q0 -20 -10 -67q-35 -143 -197 -144q-151 0 -151 125zM0 0zM526 94q0 29 8 68q35 145 197 145q76 0 114.5 -32.5t38.5 -94.5q0 -20 -10 -67q-35 -143 -197 -144q-151 0 -151 125zM1063 94q0 29 8 68 q35 145 197 145q76 0 114.5 -32.5t38.5 -94.5q0 -20 -10 -67q-35 -143 -197 -144q-151 0 -151 125z" />
<glyph unicode="&#x202f;" horiz-adv-x="439" />
<glyph unicode="&#x2039;" horiz-adv-x="827" d="M141 762q0 39 22.5 73.5t63.5 71.5l414 369l123 -117l-352 -403l213 -412l-154 -90l-272 373q-57 78 -58 135z" />
<glyph unicode="&#x203a;" horiz-adv-x="829" d="M68 369l350 405l-211 412l151 90l275 -373q55 -76 55 -137q0 -39 -22.5 -73t-63.5 -70l-414 -369z" />
<glyph unicode="&#x205f;" horiz-adv-x="548" />
<glyph unicode="&#x20ac;" horiz-adv-x="1374" d="M-14 496l30 157l170 23q2 33 15 112h-162l29 160l176 21q49 162 147 295q117 158 276.5 232.5t372.5 74.5q174 0 351 -55l-43 -256q-150 39 -265 38q-121 0 -227 -48t-176 -148q-43 -61 -70 -131h340l-30 -183h-357q-14 -53 -16 -112h352l-31 -180h-319 q12 -145 85 -199.5t202 -54.5q80 0 172 14t172 39l-43 -268q-176 -57 -371 -58q-274 0 -419.5 129t-158.5 398h-202z" />
<glyph unicode="&#x2122;" horiz-adv-x="1734" d="M174 1378l31 162h672l-31 -162h-225l-101 -585h-225l100 585h-221zM838 793l131 747h190l119 -420l274 420h197l-129 -747h-203l60 350l-164 -248h-135l-86 252l-60 -354h-194z" />
<glyph unicode="&#x25fc;" horiz-adv-x="1536" d="M0 0v1536h1536v-1536h-1536z" />
</font>
</defs>
</svg>
