<?xml version="1.0" standalone="no"?>
<!DOCTYPE svg PUBLIC "-//W3C//DTD SVG 1.1//EN" "http://www.w3.org/Graphics/SVG/1.1/DTD/svg11.dtd" >
<svg xmlns="http://www.w3.org/2000/svg">
<metadata></metadata>
<defs>
<font id="telefonicaregular" horiz-adv-x="1130" >
<font-face units-per-em="2048" ascent="1536" descent="-512" />
<missing-glyph horiz-adv-x="417" />
<glyph unicode="&#xfb01;" horiz-adv-x="1110" d="M29 879v96l182 26v103q0 98 21.5 168.5t68.5 120.5q100 106 309 106q102 0 226 -22v-129q-123 12 -199 12q-141 0 -199 -60q-29 -29 -43 -75.5t-14 -120.5v-100h582v-1004h-170v879h-412v-879h-170v879h-182z" />
<glyph unicode="&#xfb02;" horiz-adv-x="1114" d="M29 879v96l182 26v117q0 94 20.5 159.5t63.5 113.5q102 109 344 108q158 0 330 -31v-1468h-170v1352q-96 10 -160 10q-152 0 -207 -62q-27 -29 -39 -74.5t-12 -117.5v-104h264v-125h-264v-879h-170v879h-182z" />
<glyph horiz-adv-x="0" />
<glyph unicode="&#xd;" horiz-adv-x="417" />
<glyph unicode=" "  horiz-adv-x="417" />
<glyph unicode="&#x09;" horiz-adv-x="417" />
<glyph unicode="&#xa0;" horiz-adv-x="417" />
<glyph unicode="!" horiz-adv-x="559" d="M172 72v16q0 100 102 100h11q102 0 102 -100v-16q0 -100 -102 -101h-11q-102 1 -102 101zM186 1401h183l-29 -1026h-125z" />
<glyph unicode="&#x22;" horiz-adv-x="790" d="M150 1401h174l-21 -430h-133zM465 1401h176l-20 -430h-136z" />
<glyph unicode="#" d="M102 420v135h164l56 287h-220v137h248l82 422h154l-84 -422h235l84 422h152l-84 -422h139v-137h-166l-53 -287h221v-135h-248l-80 -420h-151l78 420h-236l-80 -420h-153l82 420h-140zM420 555h235l56 287h-236z" />
<glyph unicode="$" d="M141 1053q0 164 103.5 259t285.5 111v254h121v-252q168 -6 299 -51l-26 -139q-141 35 -273 41v-492q119 -47 198 -93t132 -124t53 -192q0 -180 -110 -285q-100 -94 -273 -113v-256h-121v250q-100 4 -201.5 21.5t-172.5 46.5l30 139q188 -55 344 -55v524 q-125 49 -203.5 92t-132 120t-53.5 194zM313 1065q0 -82 55.5 -133t161.5 -98v436q-217 -27 -217 -205zM651 131q80 14 133 55q76 59 76 170q0 88 -54 142.5t-155 99.5v-467z" />
<glyph unicode="%" horiz-adv-x="1890" d="M111 1014q0 182 82.5 297.5t255.5 115.5q172 0 254.5 -115.5t82.5 -297.5t-82.5 -298t-254.5 -116q-173 0 -255.5 115.5t-82.5 298.5zM268 1014q0 -135 40 -204t141 -69q100 0 140 69t40 204t-40 203.5t-140 68.5t-140.5 -68.5t-40.5 -203.5zM510 -29l719 1456h151 l-716 -1456h-154zM1104 385q0 182 83 298t255 116t255 -116t83 -298t-83 -298t-255 -116t-255 116t-83 298zM1262 385q0 -135 39.5 -203.5t140.5 -68.5q100 0 140 68.5t40 203.5t-40 203.5t-140 68.5t-140 -68.5t-40 -203.5z" />
<glyph unicode="&#x26;" horiz-adv-x="1378" d="M104 367q0 135 77 235t225 180q-94 106 -131 182t-37 160q0 139 92 221t233 82q137 0 226.5 -77.5t89.5 -208.5q0 -106 -63.5 -200.5t-194.5 -170.5l378 -416q39 63 66 155.5t33 186.5h137q-4 -121 -43 -237.5t-100 -204.5q33 -35 103.5 -113t102.5 -112l-112 -97 l-195 209q-88 -84 -199.5 -127t-238.5 -43q-133 0 -234.5 48.5t-158 138.5t-56.5 209zM279 381q0 -129 78.5 -198.5t220.5 -69.5q186 0 323 127l-418 454q-98 -55 -151 -134t-53 -179zM387 1135q0 -66 35 -126.5t123 -156.5q104 74 148 139.5t44 143.5q0 76 -46 122t-126 46 q-82 0 -130 -44.5t-48 -123.5z" />
<glyph unicode="'" horiz-adv-x="473" d="M150 1401h174l-21 -430h-133z" />
<glyph unicode="(" horiz-adv-x="681" d="M152 528q0 305 112.5 560t313.5 434l92 -70q-326 -395 -326 -924q0 -528 326 -923l-92 -70q-201 178 -313.5 433t-112.5 560z" />
<glyph unicode=")" horiz-adv-x="681" d="M12 -395q326 395 326 923t-326 924l92 70q201 -178 313.5 -433t112.5 -561q0 -305 -112.5 -560t-313.5 -433z" />
<glyph unicode="*" horiz-adv-x="897" d="M70 1061l49 139l278 -129l-24 330h147l-20 -330l278 129l49 -139l-297 -88l203 -240l-115 -90l-169 264l-170 -264l-115 90l203 240z" />
<glyph unicode="+" horiz-adv-x="1105" d="M213 610v129h274v275h129v-275h277v-129h-277v-276h-129v276h-274z" />
<glyph unicode="," horiz-adv-x="464" d="M115 84v6q0 111 104 111h2q61 0 89 -33t28 -109q0 -59 -14.5 -164.5t-32.5 -183.5h-80v256q-96 20 -96 117z" />
<glyph unicode="-" horiz-adv-x="659" d="M123 459v145h414v-145h-414z" />
<glyph unicode="." horiz-adv-x="464" d="M123 82v8q0 111 102 111h15q102 0 102 -111v-8q0 -111 -102 -111h-15q-102 0 -102 111z" />
<glyph unicode="/" horiz-adv-x="925" d="M78 -29l604 1456h166l-604 -1456h-166z" />
<glyph unicode="0" d="M84 698q0 356 114.5 542.5t366.5 186.5t367 -186t115 -543q0 -356 -115 -541.5t-367 -185.5t-366.5 185.5t-114.5 541.5zM262 698q0 -303 68.5 -442t234.5 -139t234.5 139t68.5 442t-68.5 443.5t-234.5 140.5t-234.5 -140.5t-68.5 -443.5z" />
<glyph unicode="1" d="M262 0v131h242v1147h-238v115q63 10 148.5 16t140.5 6q66 0 91.5 -20.5t25.5 -75.5v-1188h213v-131h-623z" />
<glyph unicode="2" d="M139 47q0 43 16.5 79t65.5 95l322 393q123 152 172 247t49 190q0 127 -76 181t-225 54q-147 0 -295 -31v134q156 39 319 38q233 0 349 -102q106 -94 106 -266q0 -86 -24.5 -159t-82 -157t-165.5 -213l-336 -395h633v-135h-820q-8 24 -8 47z" />
<glyph unicode="3" d="M154 6v135q127 -27 278 -26q96 0 160.5 15t107.5 48q90 66 91 209q0 57 -18.5 106.5t-51.5 81.5q-43 41 -112.5 58.5t-172.5 17.5h-37v127h35q322 0 322 262q0 123 -70 183q-39 33 -100.5 48t-153.5 15q-121 0 -256 -22v133q135 31 289 30q248 0 360 -110 q102 -98 103 -268q0 -119 -57.5 -200t-153.5 -118q119 -41 185.5 -129t66.5 -217q0 -197 -131 -305q-133 -109 -383 -109q-162 0 -301 35z" />
<glyph unicode="4" d="M84 395q0 33 7 65t30 95l295 846h166l-326 -922h465v355h168v-355h170v-137h-170v-342h-168v342h-633q-4 29 -4 53z" />
<glyph unicode="5" d="M178 4v133q55 -8 133 -15t127 -7q102 0 169 17.5t112 53.5q84 72 84 220q0 141 -70 210q-41 41 -112.5 58.5t-188.5 17.5h-229q-6 16 -6 43l2 76l26 590h670v-135h-526l-19 -437h107q158 0 256 -28.5t161 -93.5q106 -111 107 -297q0 -197 -113 -310q-125 -129 -397 -129 q-72 0 -155 9.5t-138 23.5z" />
<glyph unicode="6" d="M127 627q0 455 164 649q127 152 379 151q113 0 229 -24v-131q-123 16 -215 16q-199 0 -284 -122t-97 -382q182 76 338 76q184 0 288.5 -107.5t104.5 -312.5q0 -209 -115.5 -339t-328.5 -130q-246 0 -354.5 169t-108.5 487zM301 588q0 -233 66.5 -355t226.5 -122 q129 0 198.5 85t69.5 234q0 147 -60.5 220t-195.5 73q-66 0 -149.5 -14.5t-155.5 -38.5v-82z" />
<glyph unicode="7" d="M147 1266v135h842q6 -14 6 -45q0 -57 -22 -123l-420 -1233h-186l456 1266h-676z" />
<glyph unicode="8" d="M104 344q0 125 76 226.5t203 164.5q-104 61 -163.5 140t-59.5 196q0 104 52 185t144.5 126t210.5 45q119 0 210 -46t141.5 -122.5t50.5 -166.5q0 -115 -66.5 -206t-187.5 -149q147 -74 229 -158.5t82 -216.5q0 -117 -58.5 -205.5t-164 -137t-244.5 -48.5 q-211 0 -333 102.5t-122 270.5zM272 356q0 -117 77 -180t212 -63t215 61.5t80 171.5q0 80 -46 136.5t-107.5 91t-190.5 96.5q-111 -53 -175.5 -133t-64.5 -181zM319 1081q0 -94 69 -155.5t202 -126.5q221 112 221 280q0 90 -66.5 149.5t-175.5 59.5q-113 0 -181.5 -56 t-68.5 -151z" />
<glyph unicode="9" d="M96 958q0 209 116 339t329 130q246 0 354.5 -168.5t108.5 -486.5q0 -455 -164 -649q-127 -152 -379 -152q-113 0 -230 25v131q123 -16 215 -16q199 0 284 121.5t97 381.5q-182 -76 -338 -75q-184 0 -288.5 107.5t-104.5 311.5zM268 969q0 -147 60.5 -220t195.5 -73 q66 0 150 14.5t155 38.5v82q0 233 -66.5 355t-225.5 122q-129 0 -199 -85t-70 -234z" />
<glyph unicode=":" horiz-adv-x="464" d="M123 82v8q0 111 102 111h15q102 0 102 -111v-8q0 -111 -102 -111h-15q-102 0 -102 111zM123 719v8q0 111 102 111h15q102 0 102 -111v-8q0 -111 -102 -111h-15q-102 0 -102 111z" />
<glyph unicode=";" horiz-adv-x="464" d="M121 84v6q0 111 104 111h2q61 0 89 -33t28 -109q0 -59 -14.5 -164.5t-32.5 -183.5h-80v256q-96 20 -96 117zM123 719v8q0 111 102 111h15q102 0 102 -111v-8q0 -111 -102 -111h-15q-102 0 -102 111z" />
<glyph unicode="&#x3c;" horiz-adv-x="1105" d="M213 606v139l680 340v-147l-535 -262l535 -256v-152z" />
<glyph unicode="=" horiz-adv-x="1105" d="M213 426v129h680v-129h-680zM213 795v129h680v-129h-680z" />
<glyph unicode="&#x3e;" horiz-adv-x="1105" d="M213 268v152l535 256l-535 262v147l680 -340v-139z" />
<glyph unicode="?" horiz-adv-x="847" d="M74 1382q147 45 297 45q215 0 319 -98q88 -84 88 -223q0 -104 -42 -189.5t-136 -191.5q-80 -92 -112.5 -136t-50 -92t-19.5 -122h-125q-6 34 -6 63q0 82 27.5 147.5t107.5 157.5l24 29q80 94 116 161.5t36 149.5q0 98 -57 146q-59 51 -195 51q-127 0 -246 -31zM256 72v16 q0 100 102 100h11q102 0 102 -100v-16q0 -100 -102 -101h-11q-102 1 -102 101z" />
<glyph unicode="@" horiz-adv-x="1562" d="M82 694q0 217 86 383t246.5 258t378.5 92q207 0 362.5 -83.5t238.5 -235.5t83 -348q0 -205 -90.5 -319.5t-249.5 -114.5q-61 0 -114.5 15t-82.5 42q-96 -59 -211 -59q-106 0 -169.5 60t-63.5 159q0 100 59 155q39 35 97.5 51.5t146.5 16.5h116v47q0 43 -7 68.5t-23 42.5 q-35 33 -131 32q-86 0 -193 -20l-6 108q45 12 105.5 20.5t109.5 8.5q154 0 221 -69q57 -59 58 -187v-373q35 -8 79 -8q106 0 160 78q53 84 53 227q0 264 -144 413t-404 149q-270 0 -419 -163t-149 -442q0 -293 160 -450.5t471 -157.5q78 0 184.5 11.5t188.5 27.5v-113 q-76 -20 -179.5 -32.5t-209.5 -12.5q-369 0 -563.5 192.5t-194.5 530.5zM629 551q0 -117 137 -117q75 0 149 37v193h-116q-102 0 -140 -35q-31 -27 -30 -78z" />
<glyph unicode="A" horiz-adv-x="1210" d="M37 0l444 1401h209l484 -1401h-191l-123 373h-530l-115 -373h-178zM375 516h438l-225 692h-2z" />
<glyph unicode="B" horiz-adv-x="1212" d="M170 0v1401h375q139 0 229 -24.5t146 -80.5q88 -88 88 -243q0 -111 -48.5 -189t-138.5 -119q131 -31 204 -120.5t73 -229.5q0 -186 -107 -284q-61 -55 -158.5 -83t-238.5 -28h-424zM352 143h187q125 0 192.5 14.5t108.5 51.5q69 62 69 184q0 124 -61 187 q-41 39 -106.5 55t-178.5 16h-211v-508zM352 795h180q92 0 147.5 16t90.5 51q55 59 55 168q0 113 -57 168q-33 33 -89 46t-149 13h-178v-462z" />
<glyph unicode="C" horiz-adv-x="1136" d="M115 692q0 395 182 580q74 76 183.5 115.5t240.5 39.5q178 0 326 -53l-25 -139q-145 39 -281 39q-213 0 -313 -113q-63 -70 -93 -184.5t-30 -280.5q0 -164 31 -276.5t98 -181.5q57 -59 142.5 -87t209.5 -28q45 0 117 8t131 21l17 -140q-61 -18 -148.5 -29.5t-161.5 -11.5 q-315 0 -470.5 179.5t-155.5 541.5z" />
<glyph unicode="D" horiz-adv-x="1323" d="M170 0v1401h354q195 0 324 -41t211 -131q150 -164 149 -520q0 -387 -168 -557q-76 -78 -193.5 -115t-283.5 -37h-393zM352 145h205q117 0 194.5 25t133.5 78q135 129 135 459q0 291 -102 415q-57 70 -151.5 101.5t-252.5 31.5h-162v-1110z" />
<glyph unicode="E" horiz-adv-x="1087" d="M170 0v1401h803l-17 -144h-604v-475h490v-147h-490v-492h633v-143h-815z" />
<glyph unicode="F" horiz-adv-x="987" d="M170 0v1401h788l-16 -144h-590v-475h475v-147h-475v-635h-182z" />
<glyph unicode="G" horiz-adv-x="1310" d="M166 1029.5q51 148.5 143 240.5q159 157 449 157h4q84 0 175 -14t163 -39l-25 -139q-68 18 -148.5 29.5t-148.5 11.5q-121 0 -206 -32t-142 -99q-125 -143 -125 -457q0 -289 109 -428q55 -72 143 -105.5t221 -33.5q98 0 191 14v430h-238v144h416v-684 q-72 -23 -180.5 -38.5t-202.5 -15.5q-334 1 -490 179q-159 181 -159 524q0 207 51 355.5z" />
<glyph unicode="H" horiz-adv-x="1347" d="M170 0v1401h182v-619h643v619h183v-1401h-183v635h-643v-635h-182z" />
<glyph unicode="I" horiz-adv-x="534" d="M176 0v1401h182v-1401h-182z" />
<glyph unicode="J" horiz-adv-x="761" d="M74 131q72 -10 149 -10q66 0 107 16.5t63 52.5q16 29 23.5 69t7.5 106v1036h182v-1034q0 -117 -19.5 -189t-62.5 -119q-80 -88 -278 -88q-86 1 -156 17z" />
<glyph unicode="K" horiz-adv-x="1214" d="M170 0v1401h182v-723l584 723h205l-475 -580l497 -821h-207l-405 686l-199 -240v-446h-182z" />
<glyph unicode="L" horiz-adv-x="1032" d="M170 0v1401h182v-1258h611v-143h-793z" />
<glyph unicode="M" horiz-adv-x="1636" d="M170 0v1401h160l487 -922l494 922h155v-1401h-172v1042l-407 -745h-152l-403 754v-1051h-162z" />
<glyph unicode="N" horiz-adv-x="1396" d="M170 0v1401h127l768 -1090v1090h162v-1401h-140l-755 1067v-1067h-162z" />
<glyph unicode="O" horiz-adv-x="1347" d="M115 698q0 334 131 531.5t428 197.5t428 -197.5t131 -531.5t-131 -530.5t-428 -196.5t-428 197t-131 530zM305 698q0 -279 82 -424t287 -145t286.5 145.5t81.5 423.5q0 279 -81.5 425.5t-286.5 146.5t-287 -146.5t-82 -425.5z" />
<glyph unicode="P" horiz-adv-x="1159" d="M170 0v1401h401q152 0 252.5 -29t159.5 -90q102 -102 102 -305q0 -225 -114 -340q-119 -115 -359 -115h-260v-522h-182zM352 670h199q98 0 163.5 16t106.5 53q76 72 76 234q0 143 -66 209q-39 39 -105.5 57t-168.5 18h-205v-587z" />
<glyph unicode="Q" horiz-adv-x="1347" d="M115 698q0 334 131 531.5t428 197.5t428 -197.5t131 -531.5q0 -496 -264 -655q92 -6 189 -37t159 -69q-8 -27 -34 -79.5t-42 -74.5l-305 137q-70 31 -113 41t-118 10h-31q-297 0 -428 197t-131 530zM305 698q0 -279 82 -424t287 -145t286.5 145.5t81.5 423.5 q0 279 -81.5 425.5t-286.5 146.5t-287 -146.5t-82 -425.5z" />
<glyph unicode="R" horiz-adv-x="1232" d="M170 0v1401h408q150 0 250 -26.5t159 -86.5q104 -102 105 -311q0 -158 -68 -261.5t-195 -146.5l301 -569h-202l-273 539q-49 -4 -90 -4h-213v-535h-182zM352 682h217q106 0 170 20.5t103 63.5q61 70 61 211q0 143 -63 207q-39 39 -107.5 56t-175.5 17h-205v-575z" />
<glyph unicode="S" horiz-adv-x="1112" d="M109 1053q0 182 124.5 278t339.5 96q90 0 180.5 -14t164.5 -39l-27 -139q-158 41 -303 41q-307 0 -307 -211q0 -68 39.5 -115t100 -77.5t165.5 -71.5q133 -51 216 -96.5t141 -126t58 -203.5q0 -180 -110 -285q-125 -119 -371 -119q-100 0 -209.5 18.5t-187.5 49.5l31 139 q193 -55 350 -55q166 0 248 63q75 58 75 167q0 79 -42 130.5t-104.5 84t-170.5 73.5q-129 47 -209 91t-136 122t-56 199z" />
<glyph unicode="T" horiz-adv-x="1165" d="M45 1257v144h1083l-16 -144h-438v-1257h-182v1257h-447z" />
<glyph unicode="U" horiz-adv-x="1329" d="M154 504v897h182v-887q0 -117 20.5 -187.5t67.5 -115.5q88 -84 252 -84q158 0 242 84q47 47 69.5 121t22.5 182v887h166v-897q0 -279 -138 -410q-129 -123 -366 -123q-246 0 -375 117q-74 66 -108.5 167t-34.5 249z" />
<glyph unicode="V" horiz-adv-x="1204" d="M41 1401h188l387 -1202h5l362 1202h180l-448 -1401h-203z" />
<glyph unicode="W" horiz-adv-x="1812" d="M41 1401h186l318 -1186h4l272 1186h191l299 -1178h4l287 1178h170l-359 -1401h-215l-280 1116h-5l-260 -1116h-221z" />
<glyph unicode="X" horiz-adv-x="1103" d="M45 0l418 698l-400 703h193l311 -565l301 565h191l-410 -694l406 -707h-199l-313 565l-299 -565h-199z" />
<glyph unicode="Y" horiz-adv-x="1177" d="M33 1401h200l357 -674l371 674h184l-475 -832v-569h-183v573z" />
<glyph unicode="Z" horiz-adv-x="1148" d="M102 0v104l723 1153h-710v144h929v-109l-720 -1149h723v-143h-945z" />
<glyph unicode="[" horiz-adv-x="700" d="M233 -424v1913h408v-133h-229v-1647h229v-133h-408z" />
<glyph unicode="\" horiz-adv-x="925" d="M78 1427h166l604 -1456h-166z" />
<glyph unicode="]" horiz-adv-x="700" d="M59 -291h230v1647h-230v133h408v-1913h-408v133z" />
<glyph unicode="^" horiz-adv-x="1105" d="M150 815l333 586h138l333 -586h-157l-246 457l-246 -457h-155z" />
<glyph unicode="_" horiz-adv-x="880" d="M45 -57h791v-125h-791v125z" />
<glyph unicode="`" horiz-adv-x="839" d="M190 1165zM191 1446l96 129l360 -320l-65 -90z" />
<glyph unicode="a" horiz-adv-x="1034" d="M90 285q0 137 86 217q104 96 340 96h209v64q0 61 -12.5 102t-38.5 67q-61 59 -209 60q-123 0 -270 -25l-7 131q145 35 306 35q215 0 313 -92q47 -45 67.5 -109.5t20.5 -162.5v-668h-137l-10 68q-147 -96 -316 -97q-170 1 -262 97q-80 84 -80 217zM262 289 q0 -90 53.5 -135t153.5 -45q59 0 129 18t127 47v299h-184q-158 0 -224 -51q-55 -45 -55 -133z" />
<glyph unicode="b" horiz-adv-x="1081" d="M143 0v1464h170v-512q66 35 141.5 57.5t147.5 22.5q186 0 287.5 -131t101.5 -395q0 -268 -100 -401.5t-291 -133.5q-80 0 -165 27t-146 70l-8 -68h-138zM313 184q51 -31 120 -51t128 -20q131 0 191.5 90t60.5 303q0 203 -60.5 292t-195.5 89q-57 0 -124.5 -16.5 t-119.5 -41.5v-645z" />
<glyph unicode="c" horiz-adv-x="921" d="M90 489q0 264 131 406q129 137 369 137q123 0 239 -31l-10 -131q-127 25 -209 25q-174 0 -258 -100.5t-84 -302.5q0 -190 84 -287q82 -94 266 -94q49 0 108.5 6t100.5 14l13 -127q-49 -14 -123 -23.5t-129 -9.5q-242 0 -365 125q-133 137 -133 393z" />
<glyph unicode="d" horiz-adv-x="1085" d="M90 496q0 250 109.5 393t306.5 143q66 0 136.5 -19.5t129.5 -51.5v503h170v-1464h-139l-12 61q-61 -41 -144.5 -65.5t-152.5 -24.5q-195 0 -299.5 133.5t-104.5 391.5zM268 494q0 -197 67.5 -290t205.5 -93q53 0 114.5 16t116.5 43v670q-57 23 -119.5 36t-111.5 13 q-145 0 -209 -103.5t-64 -291.5z" />
<glyph unicode="e" horiz-adv-x="1036" d="M90 500q0 260 118 396t316 136q207 0 311.5 -138t104.5 -390v-39q0 -23 -25 -23h-647q0 -174 88 -256q41 -39 102.5 -57t153.5 -18q121 0 248 26l17 -127q-63 -18 -144.5 -28.5t-152.5 -10.5q-238 0 -359 121q-131 131 -131 408zM268 567h504q-4 152 -65.5 240t-182.5 88 q-125 0 -189.5 -86t-66.5 -242z" />
<glyph unicode="f" horiz-adv-x="653" d="M29 879v96l182 26v138q0 180 74 266q82 94 262 94q90 0 168 -16v-129q-82 8 -144 8q-106 0 -149 -45q-23 -25 -32 -65t-9 -109v-139h264v-125h-264v-879h-170v879h-182z" />
<glyph unicode="g" horiz-adv-x="1046" d="M82 -207q0 66 30.5 126.5t84.5 96.5q-47 39 -47 109q0 57 31.5 117.5t86.5 113.5q-70 49 -105.5 127t-35.5 176q0 170 102.5 271.5t300.5 101.5q41 0 103 -8l121 262q35 -8 75.5 -26.5t65.5 -38.5l-139 -238q88 -45 133 -129t45 -195q0 -170 -102.5 -271t-301.5 -101 q-90 0 -157 20q-23 -27 -39.5 -61.5t-16.5 -61.5q0 -61 82 -61h193q131 0 211 -22.5t129 -71.5q74 -74 74 -203q0 -156 -114 -235.5t-362 -79.5q-227 0 -337.5 72.5t-110.5 209.5zM242 -176q0 -84 71.5 -127t233.5 -43q299 0 299 166q0 74 -49 110q-55 41 -205 41h-217 q-43 0 -74 6q-59 -72 -59 -153zM528 422h2h2q240 0 240 237q0 238 -242 238q-241 0 -241 -236q0 -239 239 -239z" />
<glyph unicode="h" horiz-adv-x="1114" d="M143 0v1464h170v-524q168 92 326 92q166 0 252 -88q84 -84 84 -262v-682h-170v662q0 63 -11.5 103t-37.5 66q-51 51 -162 52q-68 0 -143.5 -18.5t-137.5 -47.5v-817h-170z" />
<glyph unicode="i" horiz-adv-x="464" d="M127 1303v4q0 108 98 108h2h11q100 0 100 -108v-4q0 -109 -100 -109h-11q-100 0 -100 109zM147 0v1004h170v-1004h-170z" />
<glyph unicode="j" horiz-adv-x="464" d="M-143 -346q88 2 144 18.5t89 53.5q31 37 44 93t13 148v1037h170v-1010q0 -145 -23.5 -229t-80.5 -144q-102 -104 -338 -104zM127 1303v4q0 108 98 108h2h11q100 0 100 -108v-4q0 -109 -100 -109h-11q-100 0 -100 109z" />
<glyph unicode="k" horiz-adv-x="1024" d="M143 0v1464h170v-970l449 510h196l-354 -390l391 -614h-194l-307 498l-181 -201v-297h-170z" />
<glyph unicode="l" horiz-adv-x="460" d="M145 0v1464h170v-1464h-170z" />
<glyph unicode="m" horiz-adv-x="1724" d="M143 0v1004h142l8 -74q164 102 323 102q186 0 273 -112q184 112 357 112h3q166 0 252 -88q84 -84 84 -262v-682h-170v662q0 63 -11 103t-38 66q-51 51 -158 52q-61 0 -132.5 -17.5t-137.5 -50.5q14 -63 14 -133v-682h-170v662q0 63 -11 103t-38 66q-51 51 -158 52 q-125 0 -262 -66v-817h-170z" />
<glyph unicode="n" horiz-adv-x="1114" d="M143 0v1004h142l8 -74q80 49 170 75.5t176 26.5q166 0 252 -88q84 -84 84 -262v-682h-170v662q0 63 -11.5 103t-37.5 66q-51 51 -162 52q-68 0 -143.5 -18.5t-137.5 -47.5v-817h-170z" />
<glyph unicode="o" horiz-adv-x="1093" d="M90 502q0 256 113.5 393t343.5 137q229 0 343 -137t114 -393t-114 -393.5t-343 -137.5q-230 0 -343.5 137.5t-113.5 393.5zM268 502q0 -199 64.5 -295t214.5 -96q149 0 213.5 96t64.5 295t-64.5 295t-213.5 96q-150 0 -214.5 -96.5t-64.5 -294.5z" />
<glyph unicode="p" horiz-adv-x="1081" d="M143 -461v1465h142l8 -74q76 51 159 76.5t154 25.5q190 0 287.5 -140t97.5 -386q0 -274 -102.5 -404.5t-288.5 -130.5q-78 0 -154.5 20.5t-132.5 55.5v-508h-170zM313 174q45 -27 113 -44t131 -17q137 0 196.5 91t59.5 304q0 193 -59.5 286t-184.5 93q-57 0 -126.5 -18.5 t-129.5 -49.5v-645z" />
<glyph unicode="q" horiz-adv-x="1087" d="M90 496q0 252 112.5 394t309.5 142q72 0 144.5 -24.5t136.5 -71.5l10 68h141v-1453l-170 -30v526q-59 -35 -136 -55.5t-144 -20.5q-190 0 -297 135.5t-107 389.5zM268 500q0 -389 273 -389q53 0 116.5 16t116.5 43v649q-119 70 -242 70q-129 0 -196.5 -98.5t-67.5 -290.5 z" />
<glyph unicode="r" horiz-adv-x="686" d="M143 0v1004h142l10 -86q136 114 282 114h3q31 0 65 -6v-152q-45 4 -88 5q-135 0 -244 -68v-811h-170z" />
<glyph unicode="s" horiz-adv-x="909" d="M94 743q0 141 99.5 215t265.5 74q74 0 152.5 -12t140.5 -31l-15 -125q-143 33 -264 33q-219 0 -219 -141q0 -68 56.5 -103t174.5 -71q102 -31 169 -62t113 -89t46 -152q0 -154 -108.5 -231t-296.5 -77q-72 0 -155 12.5t-140 30.5l8 131q61 -16 138 -26t142 -10 q123 0 187.5 39.5t64.5 117.5q0 66 -55 98.5t-174 69.5q-106 35 -171 64.5t-112 89t-47 155.5z" />
<glyph unicode="t" horiz-adv-x="747" d="M23 879v96l182 26v238q92 31 170 31v-266h264v-125h-264v-557q0 -76 7 -115t28 -62q35 -39 129 -39q74 0 151 17l8 -125q-98 -27 -206 -27q-74 0 -132.5 19.5t-91.5 58.5q-37 43 -50 98.5t-13 151.5v580h-182z" />
<glyph unicode="u" horiz-adv-x="1110" d="M139 322v682h170v-662q0 -63 11.5 -103t37.5 -67q51 -51 162 -51q66 0 139.5 17.5t137.5 47.5v818h170v-1004h-142l-8 74q-80 -49 -168 -76t-174 -27q-166 0 -252 88q-84 84 -84 263z" />
<glyph unicode="v" horiz-adv-x="962" d="M33 1004h178l278 -830l269 830h172l-352 -1004h-187z" />
<glyph unicode="w" horiz-adv-x="1466" d="M33 1004h172l225 -826l215 826h172l244 -836l215 836h158l-279 -1004h-194l-230 768l-209 -768h-196z" />
<glyph unicode="x" horiz-adv-x="944" d="M41 1004h190l256 -383l226 383h186l-332 -502l336 -502h-192l-252 379l-226 -379h-188l334 496z" />
<glyph unicode="y" horiz-adv-x="1110" d="M139 322v682h170v-662q0 -63 11.5 -103t37.5 -67q51 -51 162 -51q66 0 139.5 17.5t137.5 47.5v818h170v-1082q0 -203 -93 -301q-101 -110 -321 -110h-4q-49 0 -108.5 6t-94.5 14l-14 133q98 -12 192 -12q147 0 209 55q33 31 48.5 82t15.5 135v137q-158 -90 -322 -90 q-166 0 -252 88q-84 84 -84 263z" />
<glyph unicode="z" horiz-adv-x="870" d="M74 0v92l518 787h-514v125h717v-99l-514 -780h528v-125h-735z" />
<glyph unicode="{" horiz-adv-x="735" d="M115 463v139q61 12 100 26.5t64 41.5q31 31 44 84t13 139v334q0 78 14.5 125t46.5 75q68 61 230 62h51v-133h-35q-84 0 -108 -25q-14 -14 -19.5 -37.5t-5.5 -68.5v-336q0 -98 -13.5 -158.5t-43.5 -101.5q-45 -59 -129 -97q84 -37 129 -96q31 -41 44 -100.5t13 -159.5 v-336q0 -45 5 -68.5t20 -37.5q25 -25 108 -25h35v-133h-51q-162 1 -230 62q-33 29 -47 75.5t-14 124.5v334q0 86 -13.5 139.5t-43.5 83.5q-25 27 -64 41.5t-100 26.5z" />
<glyph unicode="|" horiz-adv-x="499" d="M176 -518v2040h148v-2040h-148z" />
<glyph unicode="}" horiz-adv-x="735" d="M57 -291h35q84 0 109 25q14 14 19 37.5t5 68.5v336q0 100 13.5 159.5t44.5 100.5q45 59 129 96q-84 37 -129 97q-31 41 -44.5 101.5t-13.5 158.5v336q0 45 -5 68.5t-19 37.5q-25 25 -109 25h-35v133h52q162 0 229 -62q33 -29 47 -75.5t14 -124.5v-334q0 -86 13.5 -139.5 t44.5 -83.5q25 -27 63.5 -41.5t100.5 -26.5v-139q-61 -12 -100.5 -26.5t-63.5 -41.5q-31 -31 -44.5 -84t-13.5 -139v-334q0 -78 -14 -125t-47 -75q-68 -61 -229 -62h-52v133z" />
<glyph unicode="~" horiz-adv-x="1105" d="M166 657q6 199 188 199q45 0 92.5 -10t120.5 -33q121 -39 178 -39q39 0 57.5 19.5t31.5 68.5l106 -22q-6 -199 -188 -199q-45 0 -92.5 10.5t-120.5 32.5q-121 39 -179 39q-39 0 -57 -19.5t-31 -68.5z" />
<glyph unicode="&#xa1;" horiz-adv-x="559" d="M172 915v17q0 100 102 100h11q102 0 102 -100v-17q0 -100 -102 -100h-11q-102 0 -102 100zM190 -397l29 1026h125l29 -1026h-183z" />
<glyph unicode="&#xa2;" d="M193 489q0 264 131 406q100 109 278 131v236h119v-230q109 -4 211 -31l-10 -131q-135 23 -201 25v-784q49 0 108.5 6t100.5 14l12 -127q-88 -25 -221 -33v-229h-119v235q-182 18 -276 119q-133 137 -133 393zM371 492q0 -190 84 -287q53 -63 147 -84v762 q-231 -57 -231 -391z" />
<glyph unicode="&#xa3;" d="M123 670v92l158 18q-33 139 -33 246q0 201 119.5 301t330.5 100q139 0 293 -32v-133q-143 25 -274 24q-154 0 -226.5 -66.5t-72.5 -199.5q0 -92 33 -232h360v-118h-336q10 -47 17.5 -94.5t7.5 -86.5q0 -106 -40 -185t-130 -169h706v-135h-864q-10 31 -10 78q0 29 9 52.5 t36 53.5q68 84 96.5 146.5t28.5 144.5q0 53 -12.5 115.5t-16.5 79.5h-180z" />
<glyph unicode="&#xa4;" d="M106 326l156 155q-57 88 -57 217t57 217l-156 156l93 92l153 -155q88 59 213 59q127 0 211 -59l156 155l92 -92l-156 -156q57 -92 58 -217q0 -125 -58 -217l156 -155l-92 -93l-156 154q-86 -57 -211 -57q-123 0 -213 57l-153 -154zM367 698q0 -233 198 -233 q199 0 199 233t-199 234q-199 0 -198 -234z" />
<glyph unicode="&#xa5;" d="M57 1401h195l313 -674l330 674h178l-397 -770h242v-117h-277v-96h277v-117h-277v-301h-172v301h-274v117h274v96h-274v117h245z" />
<glyph unicode="&#xa6;" horiz-adv-x="499" d="M176 274h148v-792h-148v792zM176 731v791h148v-791h-148z" />
<glyph unicode="&#xa7;" horiz-adv-x="1136" d="M180 1143q0 150 106.5 217t280.5 67q76 0 156 -11t141 -27l-22 -129q-57 14 -134 23t-135 9q-119 0 -174 -33.5t-55 -107.5q0 -61 38 -96t132 -56l148 -32q158 -35 226 -95.5t68 -189.5q0 -131 -100 -217q100 -74 100 -209q0 -150 -106.5 -217.5t-280.5 -67.5 q-75 0 -165.5 12.5t-151.5 28.5l22 131q152 -37 289 -37q121 0 175.5 34t54.5 108q0 63 -38 96t-132 55l-148 33q-152 33 -222.5 97.5t-70.5 183.5q0 131 101 217q-102 72 -103 213zM338 731q0 -66 41 -98.5t158 -59.5l129 -28q47 -10 79 -23q56 60 56 142q-2 68 -43 101.5 t-158 59.5l-129 29q-47 10 -76 20q-27 -27 -42 -64.5t-15 -78.5z" />
<glyph unicode="&#xa8;" horiz-adv-x="839" d="M119 1241zM119 1339v23q0 98 98 98h19q98 0 98 -98v-23q0 -98 -98 -98h-19q-98 0 -98 98zM506 1339v23q0 98 98 98h19q98 0 98 -98v-23q0 -98 -98 -98h-19q-98 0 -98 98z" />
<glyph unicode="&#xa9;" horiz-adv-x="1572" d="M82 700q0 203 84 368t242.5 262t377.5 97t378 -97t243 -262t84 -368t-84 -368.5t-242.5 -263t-378.5 -97.5q-219 0 -377.5 97.5t-242.5 263.5t-84 368zM225 700q0 -184 67.5 -319t194.5 -208t299 -73t299 73t195 208t68 319t-68 319.5t-195 207t-299 71.5t-299 -71.5 t-194.5 -206.5t-67.5 -320zM506 705q0 174 82 268t227 94q94 0 172 -31l-12 -92q-74 23 -146 23q-104 0 -150 -66.5t-46 -195.5q0 -135 49 -199t152 -64q53 0 145 19l4 -94q-78 -25 -166 -25q-311 1 -311 363z" />
<glyph unicode="&#xaa;" horiz-adv-x="833" d="M123 926q0 209 287 209h135v55q0 70 -35 98.5t-121 28.5q-96 0 -194 -21l-7 107q115 25 218 24q143 0 207.5 -58t64.5 -185v-459h-105l-12 45q-43 -27 -98 -43t-105 -16q-108 0 -171.5 56t-63.5 159zM258 928q0 -102 131 -103q35 0 80 9.5t76 23.5v174h-127 q-84 0 -122 -25.5t-38 -78.5z" />
<glyph unicode="&#xab;" horiz-adv-x="1077" d="M147 537q0 27 13.5 51t48.5 65l270 308l80 -66l-244 -358l244 -359l-80 -65l-270 307q-35 41 -48.5 65.5t-13.5 51.5zM535 537q0 27 13 51t48 65l270 308l80 -66l-244 -358l244 -359l-80 -65l-270 307q-35 41 -48 65.5t-13 51.5z" />
<glyph unicode="&#xac;" horiz-adv-x="1105" d="M213 795v129h680v-498h-129v369h-551z" />
<glyph unicode="&#xad;" horiz-adv-x="659" d="M123 459v145h414v-145h-414z" />
<glyph unicode="&#xae;" horiz-adv-x="1572" d="M82 700q0 203 84 368t242.5 262t377.5 97t378 -97t243 -262t84 -368t-84 -368.5t-242.5 -263t-378.5 -97.5q-219 0 -377.5 97.5t-242.5 263.5t-84 368zM225 700q0 -184 67.5 -319t194.5 -208t299 -73t299 73t195 208t68 319t-68 319.5t-195 207t-299 71.5t-299 -71.5 t-194.5 -206.5t-67.5 -320zM555 358v701h215q152 0 211 -60q53 -53 53 -151q0 -76 -32.5 -126t-90.5 -75l146 -289h-127l-129 269h-127v-269h-119zM674 721h96q43 0 67.5 5t41.5 17q35 29 34 105q0 61 -28 90q-16 14 -43 20.5t-72 6.5h-96v-244z" />
<glyph unicode="&#xaf;" horiz-adv-x="839" d="M152 1272v137h536v-137h-536zM152 1272z" />
<glyph unicode="&#xb0;" horiz-adv-x="966" d="M135 1067q0 168 91 264t257 96t257 -96t91 -264t-91 -264t-257 -96t-257 96t-91 264zM287 1067q0 -113 49 -171t147 -58q99 0 148 58t49 171t-49 171t-148 58q-98 0 -147 -58t-49 -171z" />
<glyph unicode="&#xb1;" horiz-adv-x="1105" d="M213 0v129h680v-129h-680zM213 610v129h274v275h129v-275h277v-129h-277v-276h-129v276h-274z" />
<glyph unicode="&#xb2;" horiz-adv-x="966" d="M213 778q0 37 13.5 63.5t45.5 65.5l164 191q78 88 105.5 135t27.5 98t-32 78q-35 29 -123 29q-70 0 -185 -17v109q115 25 207 24q156 0 228 -71q57 -57 57 -146q0 -61 -29.5 -119.5t-99.5 -139.5t-215 -228h350v-117h-508q-6 18 -6 45z" />
<glyph unicode="&#xb3;" horiz-adv-x="966" d="M221 739v115q84 -18 160 -18q109 0 156 41q37 31 36 92q0 61 -36 92q-43 37 -160 37h-21v104h21q111 0 149 39q33 31 33 90q0 53 -35 78q-37 29 -135 29q-61 0 -160 -13v111q82 18 193 18q129 0 203.5 -57t74.5 -162q0 -63 -28.5 -110t-83.5 -70q137 -47 137 -199 q0 -115 -87 -176t-230 -61q-105 0 -187 20z" />
<glyph unicode="&#xb4;" horiz-adv-x="839" d="M190 1165zM191 1255l360 320l96 -129l-391 -281z" />
<glyph unicode="&#xb5;" horiz-adv-x="1114" d="M143 0zM143 -461v1465h170v-662q0 -63 11.5 -103t37.5 -67q51 -51 162 -51q66 0 139.5 17.5t137.5 47.5v818h170v-1004h-142l-8 74q-80 -49 -168 -76t-174 -27q-92 0 -166 29v-461h-170z" />
<glyph unicode="&#xb6;" horiz-adv-x="1232" d="M119 1034q0 156 86 252q51 57 135 86t192 29h576v-135h-143v-1682h-148v1682h-162v-1682h-147v1084q-180 0 -284.5 96t-104.5 270z" />
<glyph unicode="&#xb7;" horiz-adv-x="464" d="M123 723v8q0 111 102 111h15q102 0 102 -111v-8q0 -111 -102 -111h-15q-102 0 -102 111z" />
<glyph unicode="&#xb8;" horiz-adv-x="839" d="M233 0zM234 -338q72 -16 137 -16q104 0 104 57q0 25 -23.5 39t-72.5 33q-66 23 -102.5 50.5t-36.5 78.5q0 57 53 110h94q-18 -37 -18 -67q0 -23 20.5 -36t63.5 -28q74 -29 114 -62.5t40 -107.5q0 -88 -56.5 -135t-159.5 -47q-32 0 -77 7t-80 18v106z" />
<glyph unicode="&#xb9;" horiz-adv-x="966" d="M272 733v115h164v577h-155v109q143 10 211 10q49 0 68.5 -16.5t19.5 -54.5v-625h137v-115h-445z" />
<glyph unicode="&#xba;" horiz-adv-x="860" d="M109 1069q0 170 82.5 264t238.5 94t239 -94t83 -264t-83 -264t-239 -94t-238.5 94t-82.5 264zM252 1069q0 -240 178 -240t178 240t-178 240t-178 -240z" />
<glyph unicode="&#xbb;" horiz-adv-x="1077" d="M131 178l244 359l-244 358l80 66l270 -308q35 -41 48.5 -65.5t13.5 -50.5q0 -27 -13.5 -51.5t-48.5 -65.5l-270 -307zM518 178l244 359l-244 358l80 66l270 -308q35 -41 48.5 -65.5t13.5 -50.5q0 -27 -13.5 -51.5t-48.5 -65.5l-270 -307z" />
<glyph unicode="&#xbc;" horiz-adv-x="1945" d="M221 608v115h164v577h-156v109q143 10 211 10q49 0 68.5 -16.5t19.5 -54.5v-625h138v-115h-445zM528 -29l719 1456h156l-717 -1456h-158zM1159 233q0 37 21 97l170 489h137l-172 -506h219v176h139v-176h96v-118h-96v-195h-139v195h-371q-4 16 -4 38z" />
<glyph unicode="&#xbd;" horiz-adv-x="1945" d="M213 0zM213 608v115h164v577h-155v109q143 10 211 10q49 0 68.5 -16.5t19.5 -54.5v-625h137v-115h-445zM521 -29l718 1456h156l-717 -1456h-157zM1214 45q0 37 13.5 63.5t45.5 65.5l164 191q78 88 105.5 135t27.5 98t-32 78q-35 29 -123 29q-70 0 -185 -17v109 q115 25 207 24q156 0 228 -71q57 -57 57 -146q0 -61 -29.5 -119.5t-99.5 -139.5t-215 -228h350v-117h-508q-6 18 -6 45z" />
<glyph unicode="&#xbe;" horiz-adv-x="1945" d="M201 614v115q84 -18 159 -18q109 0 156 41q37 31 37 92t-37 92q-43 37 -160 37h-20v104h20q111 0 150 39q33 31 33 90q0 53 -35 78q-37 29 -135 29q-61 0 -160 -13v111q82 18 192 19q129 0 204 -57.5t75 -162.5q0 -63 -28.5 -110t-84.5 -70q137 -47 138 -199 q0 -115 -87.5 -176t-230.5 -61q-104 0 -186 20zM532 -29l719 1456h156l-717 -1456h-158zM1159 233q0 37 21 97l170 489h137l-172 -506h219v176h139v-176h96v-118h-96v-195h-139v195h-371q-4 16 -4 38z" />
<glyph unicode="&#xbf;" horiz-adv-x="847" d="M70 -102q0 104 42 189t136 192q80 92 112.5 136t50 92t19.5 122h125q6 -33 6 -64q0 -82 -27.5 -147.5t-107.5 -157.5l-25 -29q-80 -94 -115.5 -161.5t-35.5 -149.5q0 -98 57 -145q59 -51 195 -51q127 0 246 30l26 -133q-147 -45 -297 -45q-215 0 -319 98q-88 84 -88 224z M377 915v17q0 100 102 100h10q103 0 103 -100v-17q0 -100 -103 -100h-10q-102 0 -102 100z" />
<glyph unicode="&#xc0;" horiz-adv-x="1210" d="M37 0l444 1401h209l484 -1401h-191l-123 373h-530l-115 -373h-178zM37 0zM357 1835l96 129l360 -319l-65 -91zM375 516h438l-225 692h-2z" />
<glyph unicode="&#xc1;" horiz-adv-x="1210" d="M37 0l444 1401h209l484 -1401h-191l-123 373h-530l-115 -373h-178zM37 0zM357 1645l360 319l96 -129l-391 -281zM375 516h438l-225 692h-2z" />
<glyph unicode="&#xc2;" horiz-adv-x="1210" d="M37 0l444 1401h209l484 -1401h-191l-123 373h-530l-115 -373h-178zM37 0zM271 1620l243 301h146l242 -301l-62 -61l-254 219l-254 -219zM375 516h438l-225 692h-2z" />
<glyph unicode="&#xc3;" horiz-adv-x="1210" d="M37 0l444 1401h209l484 -1401h-191l-123 373h-530l-115 -373h-178zM37 0zM269 1667q8 102 52 157.5t120 55.5q37 0 72.5 -11t93.5 -34q82 -35 116 -35q33 0 52.5 18.5t29.5 63.5l97 -16q-8 -102 -52.5 -157.5t-119.5 -55.5q-37 0 -73 11t-93 34q-82 35 -117 35 q-33 0 -52.5 -18.5t-29.5 -63.5zM375 516h438l-225 692h-2z" />
<glyph unicode="&#xc4;" horiz-adv-x="1210" d="M37 0l444 1401h209l484 -1401h-191l-123 373h-530l-115 -373h-178zM37 0zM285 1729v22q0 98 98 98h19q98 0 98 -98v-22q0 -98 -98 -99h-19q-98 1 -98 99zM375 516h438l-225 692h-2zM672 1729v22q0 98 98 98h19q98 0 98 -98v-22q0 -98 -98 -99h-19q-98 1 -98 99z" />
<glyph unicode="&#xc5;" horiz-adv-x="1210" d="M37 0l444 1401h209l484 -1401h-191l-123 373h-530l-115 -373h-178zM37 0zM353 1784v18q0 109 61.5 163t167.5 54h8q106 0 168 -54t62 -163v-18q0 -109 -61.5 -163t-168.5 -54h-8q-106 0 -167.5 54t-61.5 163zM375 516h438l-225 692h-2zM467 1788q0 -61 29 -89t88 -28h4 q59 0 88 27.5t29 89.5v10q0 61 -28.5 89t-88.5 28h-4q-59 0 -88 -27.5t-29 -89.5v-10z" />
<glyph unicode="&#xc6;" horiz-adv-x="1845" d="M20 0l820 1401h891l-17 -144h-604v-475h489v-147h-489v-492h633v-143h-815v373h-502l-215 -373h-191zM508 516h420v725z" />
<glyph unicode="&#xc7;" horiz-adv-x="1136" d="M115 692q0 395 182 580q74 76 183.5 115.5t240.5 39.5q178 0 326 -53l-25 -139q-145 39 -281 39q-213 0 -313 -113q-63 -70 -93 -184.5t-30 -280.5q0 -164 31 -276.5t98 -181.5q57 -59 142.5 -87t209.5 -28q45 0 117 8t131 21l17 -140q-61 -18 -148.5 -29.5t-161.5 -11.5 q-53 0 -71 2q-2 -10 -2 -26q0 -23 20.5 -36t63.5 -28q74 -29 113.5 -62.5t39.5 -107.5q0 -88 -56 -135t-159 -47q-33 0 -78 7t-80 18v106q72 -16 138 -16q104 0 104 57q0 25 -23.5 39t-72.5 33q-66 23 -102.5 50.5t-36.5 78.5q0 47 24 86q-449 92 -448 702z" />
<glyph unicode="&#xc8;" horiz-adv-x="1087" d="M170 0v1401h803l-17 -144h-604v-475h490v-147h-490v-492h633v-143h-815zM170 0zM363 1835l96 129l360 -319l-65 -91z" />
<glyph unicode="&#xc9;" horiz-adv-x="1087" d="M170 0v1401h803l-17 -144h-604v-475h490v-147h-490v-492h633v-143h-815zM170 0zM363 1645l360 319l96 -129l-391 -281z" />
<glyph unicode="&#xca;" horiz-adv-x="1087" d="M170 0v1401h803l-17 -144h-604v-475h490v-147h-490v-492h633v-143h-815zM170 0zM277 1620l243 301h146l242 -301l-62 -61l-254 219l-254 -219z" />
<glyph unicode="&#xcb;" horiz-adv-x="1087" d="M170 0v1401h803l-17 -144h-604v-475h490v-147h-490v-492h633v-143h-815zM170 0zM291 1729v22q0 98 98 98h19q98 0 98 -98v-22q0 -98 -98 -99h-19q-98 1 -98 99zM678 1729v22q0 98 98 98h19q98 0 98 -98v-22q0 -98 -98 -99h-19q-98 1 -98 99z" />
<glyph unicode="&#xcc;" horiz-adv-x="534" d="M39 0zM39 1835l96 129l360 -319l-65 -91zM176 0v1401h182v-1401h-182z" />
<glyph unicode="&#xcd;" horiz-adv-x="534" d="M39 0zM39 1645l360 319l96 -129l-391 -281zM176 0v1401h182v-1401h-182z" />
<glyph unicode="&#xce;" horiz-adv-x="534" d="M-47 1620l243 301h146l242 -301l-62 -61l-254 219l-254 -219zM0 0zM176 0v1401h182v-1401h-182z" />
<glyph unicode="&#xcf;" horiz-adv-x="534" d="M-33 1729v22q0 98 98 98h19q98 0 98 -98v-22q0 -98 -98 -99h-19q-98 1 -98 99zM0 0zM176 0v1401h182v-1401h-182zM354 1729v22q0 98 98 98h19q98 0 98 -98v-22q0 -98 -98 -99h-19q-98 1 -98 99z" />
<glyph unicode="&#xd0;" horiz-adv-x="1351" d="M25 635v147h174v619h354q195 0 324 -41t210 -131q150 -164 150 -520q0 -387 -168 -557q-76 -78 -193.5 -115t-283.5 -37h-393v635h-174zM381 145h205q117 0 194.5 25t132.5 78q135 129 136 459q0 291 -103 415q-57 70 -151.5 101.5t-251.5 31.5h-162v-473h244v-147h-244 v-490z" />
<glyph unicode="&#xd1;" horiz-adv-x="1396" d="M170 0v1401h127l768 -1090v1090h162v-1401h-140l-755 1067v-1067h-162zM170 0zM416 1667q8 102 52 157.5t120 55.5q37 0 72.5 -11t93.5 -34q82 -35 116 -35q33 0 52.5 18.5t29.5 63.5l97 -16q-8 -102 -52.5 -157.5t-119.5 -55.5q-37 0 -73 11t-93 34q-82 35 -117 35 q-33 0 -52.5 -18.5t-29.5 -63.5z" />
<glyph unicode="&#xd2;" horiz-adv-x="1347" d="M115 0zM115 698q0 334 131 531.5t428 197.5t428 -197.5t131 -531.5t-131 -530.5t-428 -196.5t-428 197t-131 530zM305 698q0 -279 82 -424t287 -145t286.5 145.5t81.5 423.5q0 279 -81.5 425.5t-286.5 146.5t-287 -146.5t-82 -425.5zM445 1835l96 129l360 -319l-65 -91z " />
<glyph unicode="&#xd3;" horiz-adv-x="1347" d="M115 0zM115 698q0 334 131 531.5t428 197.5t428 -197.5t131 -531.5t-131 -530.5t-428 -196.5t-428 197t-131 530zM305 698q0 -279 82 -424t287 -145t286.5 145.5t81.5 423.5q0 279 -81.5 425.5t-286.5 146.5t-287 -146.5t-82 -425.5zM445 1645l360 319l96 -129l-391 -281 z" />
<glyph unicode="&#xd4;" horiz-adv-x="1347" d="M115 0zM115 698q0 334 131 531.5t428 197.5t428 -197.5t131 -531.5t-131 -530.5t-428 -196.5t-428 197t-131 530zM305 698q0 -279 82 -424t287 -145t286.5 145.5t81.5 423.5q0 279 -81.5 425.5t-286.5 146.5t-287 -146.5t-82 -425.5zM359 1620l243 301h146l242 -301 l-62 -61l-254 219l-254 -219z" />
<glyph unicode="&#xd5;" horiz-adv-x="1347" d="M115 0zM115 698q0 334 131 531.5t428 197.5t428 -197.5t131 -531.5t-131 -530.5t-428 -196.5t-428 197t-131 530zM305 698q0 -279 82 -424t287 -145t286.5 145.5t81.5 423.5q0 279 -81.5 425.5t-286.5 146.5t-287 -146.5t-82 -425.5zM357 1667q8 102 52 157.5t120 55.5 q37 0 72.5 -11t93.5 -34q82 -35 116 -35q33 0 52.5 18.5t29.5 63.5l97 -16q-8 -102 -52.5 -157.5t-119.5 -55.5q-37 0 -73 11t-93 34q-82 35 -117 35q-33 0 -52.5 -18.5t-29.5 -63.5z" />
<glyph unicode="&#xd6;" horiz-adv-x="1347" d="M115 0zM115 698q0 334 131 531.5t428 197.5t428 -197.5t131 -531.5t-131 -530.5t-428 -196.5t-428 197t-131 530zM305 698q0 -279 82 -424t287 -145t286.5 145.5t81.5 423.5q0 279 -81.5 425.5t-286.5 146.5t-287 -146.5t-82 -425.5zM373 1729v22q0 98 98 98h19 q98 0 98 -98v-22q0 -98 -98 -99h-19q-98 1 -98 99zM760 1729v22q0 98 98 98h19q98 0 98 -98v-22q0 -98 -98 -99h-19q-98 1 -98 99z" />
<glyph unicode="&#xd7;" horiz-adv-x="1105" d="M266 479l195 195l-195 194l92 90l193 -192l197 195l90 -93l-195 -194l195 -195l-90 -92l-197 195l-193 -193z" />
<glyph unicode="&#xd8;" horiz-adv-x="1347" d="M115 698q0 334 131 531.5t428 197.5q113 0 198 -30l60 153h141l-82 -211q242 -168 242 -641q0 -334 -131 -530.5t-428 -196.5q-111 0 -191 27l-55 -150h-141l78 205q-250 164 -250 645zM305 698q0 -170 28.5 -289.5t94.5 -189.5l387 1026q-61 25 -141 25 q-205 0 -287 -146.5t-82 -425.5zM541 150q55 -20 133 -21q205 0 286.5 145.5t81.5 423.5q0 164 -26.5 282t-87.5 187z" />
<glyph unicode="&#xd9;" horiz-adv-x="1329" d="M154 0zM154 504v897h182v-887q0 -117 20.5 -187.5t67.5 -115.5q88 -84 252 -84q158 0 242 84q47 47 69.5 121t22.5 182v887h166v-897q0 -279 -138 -410q-129 -123 -366 -123q-246 0 -375 117q-74 66 -108.5 167t-34.5 249zM443 1835l96 129l360 -319l-65 -91z" />
<glyph unicode="&#xda;" horiz-adv-x="1329" d="M154 0zM154 504v897h182v-887q0 -117 20.5 -187.5t67.5 -115.5q88 -84 252 -84q158 0 242 84q47 47 69.5 121t22.5 182v887h166v-897q0 -279 -138 -410q-129 -123 -366 -123q-246 0 -375 117q-74 66 -108.5 167t-34.5 249zM465 1645l360 319l96 -129l-391 -281z" />
<glyph unicode="&#xdb;" horiz-adv-x="1329" d="M154 0zM154 504v897h182v-887q0 -117 20.5 -187.5t67.5 -115.5q88 -84 252 -84q158 0 242 84q47 47 69.5 121t22.5 182v887h166v-897q0 -279 -138 -410q-129 -123 -366 -123q-246 0 -375 117q-74 66 -108.5 167t-34.5 249zM357 1620l243 301h146l242 -301l-62 -61 l-254 219l-254 -219z" />
<glyph unicode="&#xdc;" horiz-adv-x="1329" d="M154 0zM154 504v897h182v-887q0 -117 20.5 -187.5t67.5 -115.5q88 -84 252 -84q158 0 242 84q47 47 69.5 121t22.5 182v887h166v-897q0 -279 -138 -410q-129 -123 -366 -123q-246 0 -375 117q-74 66 -108.5 167t-34.5 249zM371 1729v22q0 98 98 98h19q98 0 98 -98v-22 q0 -98 -98 -99h-19q-98 1 -98 99zM758 1729v22q0 98 98 98h19q98 0 98 -98v-22q0 -98 -98 -99h-19q-98 1 -98 99z" />
<glyph unicode="&#xdd;" horiz-adv-x="1177" d="M33 0zM33 1401h200l357 -674l371 674h184l-475 -832v-569h-183v573zM393 1645l360 319l96 -129l-391 -281z" />
<glyph unicode="&#xde;" horiz-adv-x="1187" d="M170 0v1401h182v-256h219q152 0 252.5 -29t159.5 -90q102 -102 102 -305q0 -225 -114 -340q-119 -115 -359 -115h-260v-266h-182zM352 414h199q98 0 163.5 16t106.5 53q76 72 76 234q0 143 -66 209q-39 39 -105.5 57t-168.5 18h-205v-587z" />
<glyph unicode="&#xdf;" horiz-adv-x="1323" d="M29 879v96l182 26v23q0 231 116.5 353t331.5 122q182 0 287 -84t105 -223q0 -102 -46.5 -165.5t-132.5 -131.5q-59 -47 -86.5 -80t-27.5 -74q0 -51 44 -80.5t138 -66.5t152.5 -71t101.5 -95t43 -156q0 -143 -99.5 -222t-297.5 -79q-72 0 -155 12.5t-142 28.5l10 131 q63 -14 142 -24t139 -10q113 0 176 36.5t63 114.5q0 70 -53 108t-162 81q-86 33 -140 61.5t-91 78.5t-37 126t38 127t111 114q72 63 108 112.5t36 119.5q0 80 -56.5 127t-160.5 47q-137 0 -211 -86q-39 -45 -56.5 -107.5t-17.5 -164.5v-1004h-170v879h-182z" />
<glyph unicode="&#xe0;" horiz-adv-x="1034" d="M90 0zM90 285q0 137 86 217q104 96 340 96h209v64q0 61 -12.5 102t-38.5 67q-61 59 -209 60q-123 0 -270 -25l-7 131q145 35 306 35q215 0 313 -92q47 -45 67.5 -109.5t20.5 -162.5v-668h-137l-10 68q-147 -96 -316 -97q-170 1 -262 97q-80 84 -80 217zM262 289 q0 -90 53.5 -135t153.5 -45q59 0 129 18t127 47v299h-184q-158 0 -224 -51q-55 -45 -55 -133zM301 1446l96 129l360 -320l-65 -90z" />
<glyph unicode="&#xe1;" horiz-adv-x="1034" d="M90 0zM90 285q0 137 86 217q104 96 340 96h209v64q0 61 -12.5 102t-38.5 67q-61 59 -209 60q-123 0 -270 -25l-7 131q145 35 306 35q215 0 313 -92q47 -45 67.5 -109.5t20.5 -162.5v-668h-137l-10 68q-147 -96 -316 -97q-170 1 -262 97q-80 84 -80 217zM262 289 q0 -90 53.5 -135t153.5 -45q59 0 129 18t127 47v299h-184q-158 0 -224 -51q-55 -45 -55 -133zM301 1255l360 320l96 -129l-391 -281z" />
<glyph unicode="&#xe2;" horiz-adv-x="1034" d="M90 0zM90 285q0 137 86 217q104 96 340 96h209v64q0 61 -12.5 102t-38.5 67q-61 59 -209 60q-123 0 -270 -25l-7 131q145 35 306 35q215 0 313 -92q47 -45 67.5 -109.5t20.5 -162.5v-668h-137l-10 68q-147 -96 -316 -97q-170 1 -262 97q-80 84 -80 217zM215 1229l243 301 h146l242 -301l-62 -62l-254 219l-254 -219zM262 289q0 -90 53.5 -135t153.5 -45q59 0 129 18t127 47v299h-184q-158 0 -224 -51q-55 -45 -55 -133z" />
<glyph unicode="&#xe3;" horiz-adv-x="1034" d="M90 0zM90 285q0 137 86 217q104 96 340 96h209v64q0 61 -12.5 102t-38.5 67q-61 59 -209 60q-123 0 -270 -25l-7 131q145 35 306 35q215 0 313 -92q47 -45 67.5 -109.5t20.5 -162.5v-668h-137l-10 68q-147 -96 -316 -97q-170 1 -262 97q-80 84 -80 217zM213 1268 q8 102 52 157.5t120 55.5q37 0 72.5 -11.5t93.5 -33.5q82 -35 116 -35q33 0 52.5 18.5t29.5 63.5l97 -17q-8 -102 -52.5 -157.5t-119.5 -55.5q-37 0 -73 11.5t-93 33.5q-82 35 -117 35q-33 0 -52.5 -18.5t-29.5 -63.5zM262 289q0 -90 53.5 -135t153.5 -45q59 0 129 18 t127 47v299h-184q-158 0 -224 -51q-55 -45 -55 -133z" />
<glyph unicode="&#xe4;" horiz-adv-x="1034" d="M90 0zM90 285q0 137 86 217q104 96 340 96h209v64q0 61 -12.5 102t-38.5 67q-61 59 -209 60q-123 0 -270 -25l-7 131q145 35 306 35q215 0 313 -92q47 -45 67.5 -109.5t20.5 -162.5v-668h-137l-10 68q-147 -96 -316 -97q-170 1 -262 97q-80 84 -80 217zM229 1339v23 q0 98 98 98h19q98 0 98 -98v-23q0 -98 -98 -98h-19q-98 0 -98 98zM262 289q0 -90 53.5 -135t153.5 -45q59 0 129 18t127 47v299h-184q-158 0 -224 -51q-55 -45 -55 -133zM616 1339v23q0 98 98 98h19q98 0 98 -98v-23q0 -98 -98 -98h-19q-98 0 -98 98z" />
<glyph unicode="&#xe5;" horiz-adv-x="1034" d="M90 0zM90 285q0 137 86 217q104 96 340 96h209v64q0 61 -12.5 102t-38.5 67q-61 59 -209 60q-123 0 -270 -25l-7 131q145 35 306 35q215 0 313 -92q47 -45 67.5 -109.5t20.5 -162.5v-668h-137l-10 68q-147 -96 -316 -97q-170 1 -262 97q-80 84 -80 217zM262 289 q0 -90 53.5 -135t153.5 -45q59 0 129 18t127 47v299h-184q-158 0 -224 -51q-55 -45 -55 -133zM297 1395v18q0 109 61.5 163t167.5 54h8q106 0 168 -54t62 -163v-18q0 -109 -61.5 -163t-168.5 -54h-8q-106 0 -167.5 54t-61.5 163zM411 1399q0 -61 29 -89t88 -28h4 q59 0 88 27.5t29 89.5v10q0 61 -28.5 89t-88.5 28h-4q-59 0 -88 -28t-29 -89v-10z" />
<glyph unicode="&#xe6;" horiz-adv-x="1671" d="M90 285q0 137 86 217q104 96 340 96h209v64q0 61 -12.5 102t-38.5 67q-61 59 -209 60q-123 0 -270 -25l-7 131q145 35 306 35q215 0 313 -92q23 -23 37 -43q55 68 136 101.5t179 33.5q207 0 311.5 -138t104.5 -390v-39q0 -23 -25 -23h-647q0 -174 88 -256 q41 -39 102.5 -57t153.5 -18q121 0 248 26l16 -127q-63 -18 -144 -28.5t-153 -10.5q-238 0 -358 121l-12 12q-88 -63 -191.5 -98t-210.5 -35q-176 1 -272 97q-80 80 -80 217zM262 289q0 -90 53.5 -135t153.5 -45q159 0 309 94q-51 113 -53 270h-184q-158 0 -224 -51 q-55 -45 -55 -133zM903 567h504q-4 152 -65.5 240t-182.5 88q-125 0 -189.5 -86t-66.5 -242z" />
<glyph unicode="&#xe7;" horiz-adv-x="921" d="M90 489q0 264 131 406q129 137 369 137q123 0 239 -31l-10 -131q-127 25 -209 25q-174 0 -258 -100.5t-84 -302.5q0 -190 84 -287q82 -94 266 -94q49 0 108.5 6t100.5 14l13 -127q-49 -14 -123 -23.5t-129 -9.5q-31 0 -47 2q-4 -12 -4 -26q0 -23 20.5 -36t63.5 -28 q74 -29 113.5 -62.5t39.5 -107.5q0 -88 -56 -135t-159 -47q-33 0 -78 7t-80 18v106q72 -16 138 -16q104 0 104 57q0 25 -23.5 39t-72.5 33q-66 23 -102.5 50.5t-36.5 78.5q0 45 28 82q-133 29 -213 110q-133 137 -133 393z" />
<glyph unicode="&#xe8;" horiz-adv-x="1036" d="M90 0zM90 500q0 260 118 396t316 136q207 0 311.5 -138t104.5 -390v-39q0 -23 -25 -23h-647q0 -174 88 -256q41 -39 102.5 -57t153.5 -18q121 0 248 26l17 -127q-63 -18 -144.5 -28.5t-152.5 -10.5q-238 0 -359 121q-131 131 -131 408zM268 567h504q-4 152 -65.5 240 t-182.5 88q-125 0 -189.5 -86t-66.5 -242zM312 1446l96 129l360 -320l-65 -90z" />
<glyph unicode="&#xe9;" horiz-adv-x="1036" d="M90 0zM90 500q0 260 118 396t316 136q207 0 311.5 -138t104.5 -390v-39q0 -23 -25 -23h-647q0 -174 88 -256q41 -39 102.5 -57t153.5 -18q121 0 248 26l17 -127q-63 -18 -144.5 -28.5t-152.5 -10.5q-238 0 -359 121q-131 131 -131 408zM268 567h504q-4 152 -65.5 240 t-182.5 88q-125 0 -189.5 -86t-66.5 -242zM312 1255l360 320l96 -129l-391 -281z" />
<glyph unicode="&#xea;" horiz-adv-x="1036" d="M90 0zM90 500q0 260 118 396t316 136q207 0 311.5 -138t104.5 -390v-39q0 -23 -25 -23h-647q0 -174 88 -256q41 -39 102.5 -57t153.5 -18q121 0 248 26l17 -127q-63 -18 -144.5 -28.5t-152.5 -10.5q-238 0 -359 121q-131 131 -131 408zM226 1229l243 301h146l242 -301 l-62 -62l-254 219l-254 -219zM268 567h504q-4 152 -65.5 240t-182.5 88q-125 0 -189.5 -86t-66.5 -242z" />
<glyph unicode="&#xeb;" horiz-adv-x="1036" d="M90 0zM90 500q0 260 118 396t316 136q207 0 311.5 -138t104.5 -390v-39q0 -23 -25 -23h-647q0 -174 88 -256q41 -39 102.5 -57t153.5 -18q121 0 248 26l17 -127q-63 -18 -144.5 -28.5t-152.5 -10.5q-238 0 -359 121q-131 131 -131 408zM240 1339v23q0 98 98 98h19 q98 0 98 -98v-23q0 -98 -98 -98h-19q-98 0 -98 98zM268 567h504q-4 152 -65.5 240t-182.5 88q-125 0 -189.5 -86t-66.5 -242zM627 1339v23q0 98 98 98h19q98 0 98 -98v-23q0 -98 -98 -98h-19q-98 0 -98 98z" />
<glyph unicode="&#xec;" horiz-adv-x="464" d="M4 0zM4 1446l96 129l360 -320l-65 -90zM147 0v1004h170v-1004h-170z" />
<glyph unicode="&#xed;" horiz-adv-x="464" d="M4 0zM4 1255l360 320l96 -129l-391 -281zM147 0v1004h170v-1004h-170z" />
<glyph unicode="&#xee;" horiz-adv-x="464" d="M-82 1229l243 301h146l242 -301l-62 -62l-254 219l-254 -219zM0 0zM147 0v1004h170v-1004h-170z" />
<glyph unicode="&#xef;" horiz-adv-x="464" d="M-68 1339v23q0 98 98 98h19q98 0 98 -98v-23q0 -98 -98 -98h-19q-98 0 -98 98zM0 0zM147 0v1004h170v-1004h-170zM319 1339v23q0 98 98 98h19q98 0 98 -98v-23q0 -98 -98 -98h-19q-98 0 -98 98z" />
<glyph unicode="&#xf0;" horiz-adv-x="1097" d="M90 459q0 229 110.5 361t309.5 132q68 0 140.5 -15t129.5 -40q-57 195 -205 373l-157 -125l-66 82l152 121q-76 80 -172 159l80 82q109 -78 192 -155l166 133l66 -82l-154 -125q317 -342 317 -791q0 -279 -111.5 -438.5t-346.5 -159.5q-215 0 -333 132.5t-118 355.5z M264 467q0 -164 68.5 -261t210.5 -97q151 0 216.5 119.5t65.5 338.5q0 104 -18 195q-53 23 -125 38t-131 15q-287 0 -287 -348z" />
<glyph unicode="&#xf1;" horiz-adv-x="1114" d="M143 0v1004h142l8 -74q80 49 170 75.5t176 26.5q166 0 252 -88q84 -84 84 -262v-682h-170v662q0 63 -11.5 103t-37.5 66q-51 51 -162 52q-68 0 -143.5 -18.5t-137.5 -47.5v-817h-170zM143 0zM291 1268q8 102 52 157.5t120 55.5q37 0 72.5 -11.5t93.5 -33.5 q82 -35 116 -35q33 0 52.5 18.5t29.5 63.5l97 -17q-8 -102 -52.5 -157.5t-119.5 -55.5q-37 0 -73 11.5t-93 33.5q-82 35 -117 35q-33 0 -52.5 -18.5t-29.5 -63.5z" />
<glyph unicode="&#xf2;" horiz-adv-x="1093" d="M90 0zM90 502q0 256 113.5 393t343.5 137q229 0 343 -137t114 -393t-114 -393.5t-343 -137.5q-230 0 -343.5 137.5t-113.5 393.5zM268 502q0 -199 64.5 -295t214.5 -96q149 0 213.5 96t64.5 295t-64.5 295t-213.5 96q-150 0 -214.5 -96.5t-64.5 -294.5zM318 1446l96 129 l360 -320l-65 -90z" />
<glyph unicode="&#xf3;" horiz-adv-x="1093" d="M90 0zM90 502q0 256 113.5 393t343.5 137q229 0 343 -137t114 -393t-114 -393.5t-343 -137.5q-230 0 -343.5 137.5t-113.5 393.5zM268 502q0 -199 64.5 -295t214.5 -96q149 0 213.5 96t64.5 295t-64.5 295t-213.5 96q-150 0 -214.5 -96.5t-64.5 -294.5zM318 1255l360 320 l96 -129l-391 -281z" />
<glyph unicode="&#xf4;" horiz-adv-x="1093" d="M90 0zM90 502q0 256 113.5 393t343.5 137q229 0 343 -137t114 -393t-114 -393.5t-343 -137.5q-230 0 -343.5 137.5t-113.5 393.5zM232 1229l243 301h146l242 -301l-62 -62l-254 219l-254 -219zM268 502q0 -199 64.5 -295t214.5 -96q149 0 213.5 96t64.5 295t-64.5 295 t-213.5 96q-150 0 -214.5 -96.5t-64.5 -294.5z" />
<glyph unicode="&#xf5;" horiz-adv-x="1093" d="M90 0zM90 502q0 256 113.5 393t343.5 137q229 0 343 -137t114 -393t-114 -393.5t-343 -137.5q-230 0 -343.5 137.5t-113.5 393.5zM230 1268q8 102 52 157.5t120 55.5q37 0 72.5 -11.5t93.5 -33.5q82 -35 116 -35q33 0 52.5 18.5t29.5 63.5l97 -17q-8 -102 -52.5 -157.5 t-119.5 -55.5q-37 0 -73 11.5t-93 33.5q-82 35 -117 35q-33 0 -52.5 -18.5t-29.5 -63.5zM268 502q0 -199 64.5 -295t214.5 -96q149 0 213.5 96t64.5 295t-64.5 295t-213.5 96q-150 0 -214.5 -96.5t-64.5 -294.5z" />
<glyph unicode="&#xf6;" horiz-adv-x="1093" d="M90 0zM90 502q0 256 113.5 393t343.5 137q229 0 343 -137t114 -393t-114 -393.5t-343 -137.5q-230 0 -343.5 137.5t-113.5 393.5zM246 1339v23q0 98 98 98h19q98 0 98 -98v-23q0 -98 -98 -98h-19q-98 0 -98 98zM268 502q0 -199 64.5 -295t214.5 -96q149 0 213.5 96 t64.5 295t-64.5 295t-213.5 96q-150 0 -214.5 -96.5t-64.5 -294.5zM633 1339v23q0 98 98 98h19q98 0 98 -98v-23q0 -98 -98 -98h-19q-98 0 -98 98z" />
<glyph unicode="&#xf7;" horiz-adv-x="1105" d="M213 610v129h680v-129h-680zM455 358v2q0 106 102 107h6q102 0 103 -107v-2q0 -106 -103 -106h-6q-102 0 -102 106zM455 989v2q0 106 102 107h6q102 0 103 -107v-2q0 -106 -103 -106h-6q-102 0 -102 106z" />
<glyph unicode="&#xf8;" horiz-adv-x="1093" d="M90 502q0 256 113.5 393t343.5 137q68 0 125 -12l51 141h135l-67 -186q213 -119 213 -473q0 -256 -114 -393.5t-343 -137.5q-63 0 -119 13l-51 -142h-135l65 183q-217 117 -217 477zM268 502q0 -121 22.5 -202t71.5 -128l261 713q-31 8 -76 8q-150 0 -214.5 -96.5 t-64.5 -294.5zM477 117q31 -6 70 -6q149 0 213.5 96t64.5 295q0 233 -90 323z" />
<glyph unicode="&#xf9;" horiz-adv-x="1110" d="M139 0zM139 322v682h170v-662q0 -63 11.5 -103t37.5 -67q51 -51 162 -51q66 0 139.5 17.5t137.5 47.5v818h170v-1004h-142l-8 74q-80 -49 -168 -76t-174 -27q-166 0 -252 88q-84 84 -84 263zM305 1446l96 129l360 -320l-65 -90z" />
<glyph unicode="&#xfa;" horiz-adv-x="1110" d="M139 0zM139 322v682h170v-662q0 -63 11.5 -103t37.5 -67q51 -51 162 -51q66 0 139.5 17.5t137.5 47.5v818h170v-1004h-142l-8 74q-80 -49 -168 -76t-174 -27q-166 0 -252 88q-84 84 -84 263zM361 1255l360 320l96 -129l-391 -281z" />
<glyph unicode="&#xfb;" horiz-adv-x="1110" d="M139 0zM139 322v682h170v-662q0 -63 11.5 -103t37.5 -67q51 -51 162 -51q66 0 139.5 17.5t137.5 47.5v818h170v-1004h-142l-8 74q-80 -49 -168 -76t-174 -27q-166 0 -252 88q-84 84 -84 263zM240 1229l243 301h146l242 -301l-62 -62l-254 219l-254 -219z" />
<glyph unicode="&#xfc;" horiz-adv-x="1110" d="M139 0zM139 322v682h170v-662q0 -63 11.5 -103t37.5 -67q51 -51 162 -51q66 0 139.5 17.5t137.5 47.5v818h170v-1004h-142l-8 74q-80 -49 -168 -76t-174 -27q-166 0 -252 88q-84 84 -84 263zM254 1339v23q0 98 98 98h19q98 0 98 -98v-23q0 -98 -98 -98h-19q-98 0 -98 98z M641 1339v23q0 98 98 98h19q98 0 98 -98v-23q0 -98 -98 -98h-19q-98 0 -98 98z" />
<glyph unicode="&#xfd;" horiz-adv-x="1110" d="M139 0zM139 322v682h170v-662q0 -63 11.5 -103t37.5 -67q51 -51 162 -51q66 0 139.5 17.5t137.5 47.5v818h170v-1082q0 -203 -93 -301q-102 -111 -325 -110q-49 0 -108.5 6t-94.5 14l-14 133q98 -12 192 -12q147 0 209 55q33 31 48.5 82t15.5 135v137q-158 -90 -322 -90 q-166 0 -252 88q-84 84 -84 263zM352 1255l360 320l96 -129l-391 -281z" />
<glyph unicode="&#xfe;" horiz-adv-x="1081" d="M143 -461v1925h170v-522q72 45 149 67.5t144 22.5q190 0 287.5 -140t97.5 -386q0 -274 -102.5 -404.5t-288.5 -130.5q-78 0 -154.5 20.5t-132.5 55.5v-508h-170zM313 174q45 -27 113 -44t131 -17q137 0 196.5 91t59.5 304q0 193 -59.5 286t-184.5 93q-57 0 -126.5 -18.5 t-129.5 -49.5v-645z" />
<glyph unicode="&#xff;" horiz-adv-x="1110" d="M139 0zM139 322v682h170v-662q0 -63 11.5 -103t37.5 -67q51 -51 162 -51q66 0 139.5 17.5t137.5 47.5v818h170v-1082q0 -203 -93 -301q-102 -111 -325 -110q-49 0 -108.5 6t-94.5 14l-14 133q98 -12 192 -12q147 0 209 55q33 31 48.5 82t15.5 135v137q-158 -90 -322 -90 q-166 0 -252 88q-84 84 -84 263zM254 1339v23q0 98 98 98h19q98 0 98 -98v-23q0 -98 -98 -98h-19q-98 0 -98 98zM641 1339v23q0 98 98 98h19q98 0 98 -98v-23q0 -98 -98 -98h-19q-98 0 -98 98z" />
<glyph unicode="&#x152;" horiz-adv-x="1873" d="M115 700q0 346 192 529q180 172 567 172h885l-16 -144h-604v-475h489v-147h-489v-492h633v-143h-914q-367 0 -547 162q-197 174 -196 538zM305 700q0 -287 139 -426q70 -70 178.5 -102.5t270.5 -32.5h63v1123h-59q-328 0 -463 -144q-129 -139 -129 -418z" />
<glyph unicode="&#x153;" horiz-adv-x="1771" d="M90 502q0 256 113.5 393t343.5 137q254 0 368 -172q117 172 345 172q207 0 311 -138t104 -390v-39q0 -23 -24 -23h-647q0 -174 88 -256q41 -39 102 -57t154 -18q121 0 247 26l17 -127q-63 -18 -144.5 -28.5t-152.5 -10.5q-238 0 -359 121q-25 23 -43 49 q-113 -170 -366 -170q-230 0 -343.5 137.5t-113.5 393.5zM268 502q0 -199 64.5 -295t214.5 -96q145 0 209.5 91t68.5 279v21q0 199 -64.5 295t-213.5 96q-150 0 -214.5 -96.5t-64.5 -294.5zM1004 567h503q-4 152 -65.5 240t-181.5 88q-125 0 -189.5 -86t-66.5 -242z" />
<glyph unicode="&#x178;" horiz-adv-x="1177" d="M33 0zM33 1401h200l357 -674l371 674h184l-475 -832v-569h-183v573zM289 1729v22q0 98 98 98h19q98 0 98 -98v-22q0 -98 -98 -99h-19q-98 1 -98 99zM676 1729v22q0 98 98 98h19q98 0 98 -98v-22q0 -98 -98 -99h-19q-98 1 -98 99z" />
<glyph unicode="&#x2c6;" horiz-adv-x="839" d="M104 1167zM105 1229l243 301h146l242 -301l-62 -62l-254 219l-254 -219z" />
<glyph unicode="&#x2dc;" horiz-adv-x="839" d="M102 1251zM103 1268q8 102 52 157.5t120 55.5q37 0 72.5 -11.5t93.5 -33.5q82 -35 116 -35q33 0 52.5 18.5t29.5 63.5l97 -17q-8 -102 -52.5 -157.5t-119.5 -55.5q-37 0 -73 11.5t-93 33.5q-82 35 -117 35q-33 0 -52.5 -18.5t-29.5 -63.5z" />
<glyph unicode="&#x2000;" horiz-adv-x="1009" />
<glyph unicode="&#x2001;" horiz-adv-x="2019" />
<glyph unicode="&#x2002;" horiz-adv-x="1009" />
<glyph unicode="&#x2003;" horiz-adv-x="2019" />
<glyph unicode="&#x2004;" horiz-adv-x="673" />
<glyph unicode="&#x2005;" horiz-adv-x="504" />
<glyph unicode="&#x2006;" horiz-adv-x="336" />
<glyph unicode="&#x2007;" horiz-adv-x="336" />
<glyph unicode="&#x2008;" horiz-adv-x="252" />
<glyph unicode="&#x2009;" horiz-adv-x="403" />
<glyph unicode="&#x200a;" horiz-adv-x="112" />
<glyph unicode="&#x2010;" horiz-adv-x="659" d="M123 459v145h414v-145h-414z" />
<glyph unicode="&#x2011;" horiz-adv-x="659" d="M123 459v145h414v-145h-414z" />
<glyph unicode="&#x2012;" horiz-adv-x="659" d="M123 459v145h414v-145h-414z" />
<glyph unicode="&#x2013;" horiz-adv-x="1024" d="M0 459v145h1024v-145h-1024z" />
<glyph unicode="&#x2014;" horiz-adv-x="2048" d="M0 459v145h2048v-145h-2048z" />
<glyph unicode="&#x2018;" horiz-adv-x="448" d="M123 1079q0 59 14.5 165t32.5 183h80v-256q96 -20 96 -116v-6q0 -111 -104 -111h-2q-62 0 -89.5 33t-27.5 108z" />
<glyph unicode="&#x2019;" horiz-adv-x="448" d="M102 1311v6q0 111 105 110h2q61 0 89 -32.5t28 -108.5q0 -59 -14.5 -164.5t-32.5 -183.5h-80v256q-96 20 -97 117z" />
<glyph unicode="&#x201a;" horiz-adv-x="448" d="M102 59v7q0 111 105 110h2q61 0 89 -32.5t28 -108.5q0 -59 -14.5 -165t-32.5 -183h-80v256q-96 20 -97 116z" />
<glyph unicode="&#x201c;" horiz-adv-x="788" d="M123 1079q0 59 14.5 165t32.5 183h80v-256q96 -20 96 -116v-6q0 -111 -104 -111h-2q-62 0 -89.5 33t-27.5 108zM463 1079q0 59 14.5 165t32.5 183h80v-256q96 -20 96 -116v-6q0 -111 -104 -111h-2q-62 0 -89.5 33t-27.5 108z" />
<glyph unicode="&#x201d;" horiz-adv-x="788" d="M102 1311v6q0 111 105 110h2q61 0 89 -32.5t28 -108.5q0 -59 -14.5 -164.5t-32.5 -183.5h-80v256q-96 20 -97 117zM442 1311v6q0 111 105 110h2q61 0 89 -32.5t28 -108.5q0 -59 -14.5 -164.5t-33.5 -183.5h-79v256q-96 20 -97 117z" />
<glyph unicode="&#x201e;" horiz-adv-x="788" d="M102 59v7q0 111 105 110h2q61 0 89 -32.5t28 -108.5q0 -59 -14.5 -165t-32.5 -183h-80v256q-96 20 -97 116zM442 59v7q0 111 105 110h2q61 0 89 -32.5t28 -108.5q0 -59 -14.5 -165t-33.5 -183h-79v256q-96 20 -97 116z" />
<glyph unicode="&#x2022;" horiz-adv-x="745" d="M117 682v33q0 129 59.5 186t177.5 57h37q119 0 178.5 -57t59.5 -186v-33q0 -129 -59.5 -186.5t-178.5 -57.5h-37q-118 0 -177.5 57.5t-59.5 186.5z" />
<glyph unicode="&#x2026;" horiz-adv-x="1394" d="M123 82v8q0 111 102 111h15q102 0 102 -111v-8q0 -111 -102 -111h-15q-102 0 -102 111zM588 82v8q0 111 102 111h15q102 0 102 -111v-8q0 -111 -102 -111h-15q-102 0 -102 111zM1053 82v8q0 111 102 111h14q102 0 103 -111v-8q0 -111 -103 -111h-14q-102 0 -102 111z" />
<glyph unicode="&#x202f;" horiz-adv-x="403" />
<glyph unicode="&#x2039;" horiz-adv-x="690" d="M147 537q0 27 13.5 51t48.5 65l270 308l80 -66l-244 -358l244 -359l-80 -65l-270 307q-35 41 -48.5 65.5t-13.5 51.5z" />
<glyph unicode="&#x203a;" horiz-adv-x="690" d="M131 178l244 359l-244 358l80 66l270 -308q35 -41 48.5 -65.5t13.5 -50.5q0 -27 -13.5 -51.5t-48.5 -65.5l-270 -307z" />
<glyph unicode="&#x205f;" horiz-adv-x="504" />
<glyph unicode="&#x20ac;" d="M82 494v94l147 18q-2 25 -2 125h-145v94l154 19q29 287 166 435t384 148q68 0 143 -10t136 -28v-136q-133 29 -256 29q-190 0 -282.5 -106.5t-112.5 -327.5h411v-117h-419q0 -96 2 -121h417v-116h-403q25 -197 122 -289t281 -92q127 0 265 32v-135q-160 -39 -291 -39 q-256 0 -388 129t-169 394h-160z" />
<glyph unicode="&#x2122;" horiz-adv-x="1390" d="M25 1296v105h534v-105h-203v-557h-129v557h-202zM659 739v662h123l197 -414l205 414h116v-662h-122v416l-158 -317h-88l-156 321v-420h-117z" />
<glyph unicode="&#x25fc;" horiz-adv-x="1003" d="M0 0v1004h1004v-1004h-1004z" />
</font>
</defs>
</svg>
